<?xml version="1.0" encoding="UTF-8"?>
<svg width="150px" height="151px" viewBox="0 0 150 151" version="1.1" xmlns="http://www.w3.org/2000/svg" xmlns:xlink="http://www.w3.org/1999/xlink">
    <!-- Generator: Sketch 45 (43475) - http://www.bohemiancoding.com/sketch -->
    <title>animation</title>
    <desc>Created with Sketch.</desc>
    <defs></defs>
    <g id="Page-1" stroke="none" stroke-width="1" fill="none" fill-rule="evenodd">
        <g id="animation" transform="translate(-1.000000, -1.000000)" fill-rule="nonzero" fill="#657488">
            <path d="M74.4,90.7 C73.3,91.7 72.2,92.6 71.2,93.7 C68.3,96.5 65.6,99.4 62,101.3 C61.1,101.8 60.3,102.6 59.4,103.3 C57.9,104.5 56.7,104.2 55.8,102.5 C55.6,102.1 55.3,101.7 54.9,101.4 C53,99.8 51,98.3 49,96.8 C48.2,96.1 47.5,95.8 46.6,96.9 C44.1,100.1 41.5,103.2 38.8,106.2 C36.2,109.1 33.4,111.8 30.5,114.5 C29,116 28.4,115.7 27.5,113.8 C26.2,111 24.7,108.2 23.3,105.4 C22.9,104.6 22.6,103.8 22.1,102.7 C18.1,106.3 14.4,109.6 10.8,113.1 C8.4,115.5 6.2,118.3 3.9,120.9 C3.4,121.4 3,122.4 2.2,121.6 C1.5,121 1.6,120.1 2.3,119.4 C4,117.6 5.6,115.8 7.3,114.1 C9.9,111.5 12.5,108.9 15.1,106.4 C17.3,104.3 19.5,102.3 21.7,100.2 C22.5,99.5 23.4,99.8 23.8,100.8 C25.4,104.3 27.1,107.7 28.7,111.1 C29,111.8 29.5,112.5 30.4,111.6 C33,109 35.8,106.5 38.3,103.7 C41,100.7 43.6,97.5 46.1,94.3 C47,93.1 47.8,93.1 48.8,93.9 C51.5,96.1 54.3,98.2 56.9,100.6 C57.9,101.5 58.5,101.5 59.4,100.8 C63.8,98 67.7,94.7 71.2,90.9 C72,90 72.9,89.1 73.8,88.3 C74.7,87.4 75.5,87.5 76.1,88.6 C77.1,90.3 77.9,92.1 79,93.7 C80.2,95.5 80.3,95.5 82.3,94.6 C86.3,92.8 90,90.6 93.5,87.9 C95.2,86.6 97.2,85.6 99,84.4 C99.5,84.1 99.9,83.7 100.3,83.4 C99.1,81.7 98,80.1 97.1,78.5 C96.8,78.1 96.7,77.2 96.9,76.9 C97.2,76.4 98,76 98.5,76 C102.1,76.2 105.7,76.4 109.3,76.7 C110.7,76.8 112.1,76.9 113.4,77 C115.1,77.2 115.5,78.3 114.5,79.6 C112.4,82.3 110.4,85.1 108.3,87.9 C107.9,88.4 107.4,88.9 106.8,89.2 C105.8,89.7 105.1,89.5 104.3,88.3 C102.1,84.7 103,84.4 99.1,86.9 C95.5,89.2 91.9,91.7 88.3,94 C86,95.4 83.5,96.4 81.1,97.6 C80,98.1 79.5,97.8 78.8,96.8 C77.5,94.7 76,92.8 74.4,90.7 L74.4,90.7 Z M100.5,78.5 C100.4,78.7 100.3,78.9 100.1,79.1 C100.4,79.7 100.7,80.4 101.1,80.9 C102.5,82.5 104,84 105.3,85.7 C106,86.6 106.5,86.5 107.1,85.7 C108.4,84.1 109.7,82.5 111,80.8 C111.3,80.4 111.5,79.8 111.9,79 C107.9,78.8 104.2,78.6 100.5,78.5 Z M148.6,31.7 C147.9,32.1 147.5,32.8 146.9,33.4 C146.2,34.1 145.7,34.8 145,35.5 C144.9,34.8 144.6,33.8 144.6,33.7 C144.4,32.7 144.2,31.8 144,30.8 C143.6,28.3 142.9,25.9 142.8,23.4 C142.8,22.5 141.5,22.1 141,22.9 C139,26.3 136.6,29.4 134.5,32.8 C133.5,34.4 132.6,36 131.8,37.7 C131.4,38.6 130.9,39.4 130.4,40.3 C130.2,40.6 130,41.3 129.7,41.8 C128.7,40.3 128.3,37.1 126.5,37.1 C125.7,37.1 125.3,37.9 125,38.5 C124.8,39.1 124.3,40.7 123.8,41.6 C122.9,39.9 121.7,38.3 120.7,36.7 C119.1,34.2 117.6,31.5 116.1,28.9 C114.8,26.6 113.4,24.2 112.7,21.6 C112.4,20.6 111.8,18 110.8,17.5 C110.4,17.3 109.9,17.3 109.6,17.6 C109.1,18.1 108.9,18.7 108.7,19.4 C108.2,20.9 107.4,22.2 106.7,23.7 C105.6,26.1 104.6,28.6 103.6,31.1 C103.1,32.3 102.8,33.5 102.2,34.6 C101.6,35.8 100.3,33.2 99.9,32.6 C99.2,31.6 98.3,30.8 97.6,29.8 C96.9,28.8 96.4,27.6 95.7,26.6 C95,25.6 93.4,26.5 94.1,27.6 C94.9,28.8 95.5,30.1 96.4,31.3 C97.3,32.6 98.4,33.7 99.3,35 C100.2,36.3 102.1,38.9 103.5,36.4 C105,33.8 105.8,30.9 106.9,28.1 C107.6,26.4 108.4,24.7 109.2,23 C109.5,22.4 109.9,21.7 110.1,21.1 C110.1,21 110.2,20.9 110.2,20.8 C110.5,21.8 111,22.8 111.3,23.9 C112,26.1 113.2,28 114.3,30 C115.6,32.2 116.9,34.4 118.2,36.7 C119.5,38.9 121.4,41.1 122.3,43.5 C122.5,44 122.9,44.2 123.5,44.2 C125.4,43.9 125.6,41.4 126.4,39.8 L126.6,40 C127,40.6 127.2,41.5 127.6,42.1 C128,42.9 128.6,43.7 129.3,44.2 C129.6,44.4 130,44.4 130.3,44.2 C131.5,43.3 132,41.5 132.6,40.2 C133.5,38.4 134.4,36.7 135.4,35 C137.1,32 139.2,29.2 141.1,26.3 C141.6,29.7 142.6,33.1 143.3,36.5 C144.1,40.9 148.7,33.7 149.8,33.2 C150.1,33 150.3,32.7 150.3,32.4 L150.3,32.3 C150.3,31.2 149,31.1 148.6,31.7 L148.6,31.7 Z" id="Shape"></path>
            <g id="Group">
                <path d="M32.1,31.2 C32.9,25.9 33.5,20.6 33.9,15.3 C34,13.6 31.4,13.6 31.3,15.3 C31,18.9 30.6,22.5 30.1,26.1 C29,23.5 28,20.8 27.1,18.1 C26.1,15.1 24.3,12.3 23.3,9.3 C22.8,7.7 20.3,8.4 20.8,10 C21.9,13.5 23.8,16.7 25,20.2 C26.3,24.1 27.9,27.9 29.7,31.7 C30.1,32.5 30.9,32.5 31.5,32.1 C31.7,32 31.9,31.8 32,31.5 C32.1,31.3 32.1,31.3 32.1,31.2 L32.1,31.2 Z M6.5,32.6 C6.3,32.7 6.4,32.7 6.2,32.7 C5.5,32.8 5.1,33.7 5.3,34.3 C5.5,35 6.2,35.3 6.9,35.2 C7.2,35.1 7.6,35 7.8,34.8 C9.2,33.9 7.9,31.6 6.5,32.6 L6.5,32.6 Z M11.1,12.9 C10.8,12.7 11,12.9 10.9,12.8 C10,11.4 7.7,12.7 8.6,14.1 C8.9,14.6 9.2,14.9 9.7,15.2 C11.3,16 12.6,13.7 11.1,12.9 L11.1,12.9 Z M27.1,3.9 C26.8,4.7 26.8,5.5 27,6.3 C27.1,7 28,7.4 28.6,7.2 C29.3,7 29.6,6.3 29.5,5.6 C29.4,5.2 29.5,4.9 29.6,4.6 C30.2,3 27.7,2.3 27.1,3.9 Z M47.2,10.3 C46.9,9.7 46,9.4 45.4,9.8 C44.9,10.1 44.5,10.5 44.1,10.9 C42.9,12.1 44.8,13.9 46,12.8 C46.2,12.6 46.5,12.3 46.8,12.2 C47.3,11.7 47.6,10.9 47.2,10.3 Z M55.9,28.1 C55.4,28.1 55,28.1 54.5,28.2 C53.8,28.3 53.4,29.2 53.6,29.8 C53.8,30.5 54.5,30.9 55.2,30.7 L55.9,30.7 C56.6,30.8 57.2,30.1 57.2,29.4 C57.2,28.7 56.6,28.2 55.9,28.1 L55.9,28.1 Z M51,48.2 C50.8,48.1 50.6,47.9 50.4,47.7 C50,47.1 49.3,46.8 48.6,47.2 C48,47.5 47.7,48.4 48.1,49 C48.5,49.6 49,50.1 49.6,50.5 C51.1,51.2 52.5,49 51,48.2 Z M37.1,54.2 L37.1,54 C36.7,52.4 34.2,53.1 34.6,54.7 C34.7,55 34.7,55.2 34.8,55.5 C35,56.4 36.3,56.8 37,56.1 L37.2,55.9 C37.7,55.3 37.5,54.6 37.1,54.2 L37.1,54.2 Z M22.1,52.6 C22.1,51.1 20,50.9 19.6,52.2 C19.4,52.3 19.3,52.4 19.1,52.5 C18.7,52.9 18.6,53.4 18.7,54 C19,55.1 20.2,55.1 20.9,54.5 C21.1,54.4 21.3,54.3 21.5,54.1 C21.8,53.6 22,53.2 22.1,52.6 Z" id="Shape"></path>
                <path d="M63.9,27 C62.1,19.3 57.1,11.3 51.1,6.2 C44.5,0.7 35,1.4 26.9,1 C25,0.9 23.1,1.1 21.2,1.4 C20,1.6 18.8,2.2 17.7,2.7 L16.2,3.3 L14.4,4.2 C11.6,5.6 9.1,7.7 7.1,10.2 C5.2,12.6 3.8,15.3 2.8,18.1 C1.8,21 1.2,24.1 1,27.2 C0.8,30.3 1.1,33.4 1.7,36.5 C1.9,37.6 2.2,38.7 2.6,39.8 C7.3,54.7 23.1,63.1 38.2,60.5 C53.3,58 67.6,42.9 63.9,27 Z M61.2,41.4 C58,48.4 52,53.7 45.2,57 C31,63.8 13.4,57.8 5.8,44.1 C4.4,41.6 3.5,39 2.9,36.2 C2.3,33.4 2.1,30.5 2.2,27.6 C2.3,24.7 2.8,21.8 3.8,19.1 C4.7,16.4 6,13.9 7.7,11.6 C9.4,9.4 11.5,7.5 14,6.1 C14.9,5.6 15.9,5.1 16.8,4.7 C17.7,4.3 18.6,3.8 19.5,3.4 C21.4,2.6 23.4,2.4 25.5,2.3 L25.8,2.3 C29.8,2.2 33.8,2.7 37.7,3 C42.4,3.3 46.3,4.3 50.1,7.2 C53.2,9.6 55.5,12.9 57.5,16.2 C62.4,24 65.2,32.7 61.2,41.4 Z" id="Shape"></path>
            </g>
            <path d="M41.502,147.29 L35.545,147.29 L34.207,151 L32.273,151 L37.703,136.78 L39.343,136.78 L44.783,151 L42.86,151 L41.502,147.29 Z M36.112,145.746 L40.945,145.746 L38.523,139.096 L36.111,145.746 L36.112,145.746 Z M47.815,140.434 L47.875,141.762 C48.681,140.746 49.735,140.238 51.038,140.238 C53.271,140.238 54.398,141.498 54.418,144.018 L54.418,151 L52.61,151 L52.61,144.008 C52.604,143.246 52.43,142.683 52.088,142.318 C51.746,141.954 51.214,141.771 50.491,141.771 C49.906,141.771 49.391,141.929 48.949,142.241 C48.506,142.554 48.161,142.964 47.914,143.471 L47.914,151 L46.107,151 L46.107,140.434 L47.817,140.434 L47.815,140.434 Z M58.797,151 L56.99,151 L56.99,140.434 L58.797,140.434 L58.797,151 L58.797,151 Z M56.844,137.63 C56.844,137.338 56.934,137.09 57.112,136.89 C57.292,136.687 57.556,136.586 57.908,136.586 C58.26,136.586 58.528,136.686 58.708,136.889 C58.891,137.089 58.982,137.337 58.982,137.629 C58.982,137.923 58.892,138.167 58.709,138.362 C58.526,138.558 58.259,138.655 57.907,138.655 C57.555,138.655 57.29,138.558 57.111,138.362 C56.931,138.167 56.843,137.922 56.843,137.63 L56.844,137.63 Z M63.079,140.434 L63.127,141.604 C63.901,140.694 64.947,140.238 66.261,140.238 C67.739,140.238 68.745,140.805 69.279,141.938 C69.631,141.43 70.089,141.02 70.651,140.708 C71.214,140.395 71.881,140.238 72.648,140.238 C74.965,140.238 76.143,141.465 76.182,143.92 L76.182,151 L74.376,151 L74.376,144.027 C74.376,143.272 74.203,142.707 73.858,142.333 C73.513,141.959 72.934,141.771 72.12,141.771 C71.45,141.771 70.893,141.973 70.45,142.373 C70.007,142.773 69.75,143.313 69.678,143.989 L69.678,151 L67.862,151 L67.862,144.076 C67.862,142.54 67.11,141.771 65.606,141.771 C64.421,141.771 63.611,142.277 63.176,143.286 L63.176,151 L61.37,151 L61.37,140.434 L63.08,140.434 L63.079,140.434 Z M85.124,151 C85.02,150.792 84.934,150.42 84.87,149.887 C84.03,150.759 83.028,151.195 81.863,151.195 C80.821,151.195 79.967,150.901 79.3,150.312 C78.632,149.722 78.3,148.975 78.3,148.07 C78.3,146.97 78.717,146.116 79.553,145.507 C80.39,144.897 81.567,144.594 83.083,144.594 L84.841,144.594 L84.841,143.764 C84.841,143.132 84.654,142.629 84.276,142.254 C83.898,141.881 83.342,141.694 82.606,141.694 C81.962,141.694 81.421,141.856 80.986,142.182 C80.549,142.507 80.331,142.902 80.331,143.362 L78.514,143.362 C78.514,142.836 78.702,142.327 79.076,141.835 C79.45,141.343 79.958,140.955 80.599,140.668 C81.241,140.382 81.945,140.238 82.714,140.238 C83.931,140.238 84.884,140.543 85.574,141.151 C86.264,141.761 86.624,142.599 86.649,143.667 L86.649,148.53 C86.649,149.5 86.773,150.27 87.019,150.844 L87.019,151 L85.126,151 L85.124,151 Z M82.126,149.623 C82.692,149.623 83.229,149.477 83.736,149.183 C84.246,148.891 84.613,148.51 84.84,148.041 L84.84,145.874 L83.425,145.874 C81.212,145.874 80.105,146.522 80.105,147.817 C80.105,148.384 80.295,148.827 80.672,149.147 C81.049,149.465 81.534,149.624 82.127,149.624 L82.126,149.623 Z M91.623,137.875 L91.623,140.435 L93.595,140.435 L93.595,141.83 L91.623,141.83 L91.623,148.383 C91.623,148.806 91.711,149.123 91.886,149.335 C92.062,149.547 92.362,149.652 92.786,149.652 C92.993,149.652 93.28,149.612 93.644,149.535 L93.644,151 C93.169,151.13 92.707,151.195 92.257,151.195 C91.45,151.195 90.841,150.951 90.431,150.463 C90.021,149.975 89.816,149.281 89.816,148.383 L89.816,141.83 L87.892,141.83 L87.892,140.434 L89.816,140.434 L89.816,137.874 L91.623,137.874 L91.623,137.875 Z M97.36,151 L95.554,151 L95.554,140.434 L97.361,140.434 L97.361,151 L97.36,151 Z M95.408,137.63 C95.408,137.338 95.498,137.09 95.676,136.89 C95.856,136.687 96.121,136.586 96.472,136.586 C96.824,136.586 97.092,136.686 97.272,136.889 C97.455,137.089 97.546,137.337 97.546,137.629 C97.546,137.923 97.456,138.167 97.273,138.362 C97.091,138.558 96.823,138.655 96.473,138.655 C96.121,138.655 95.855,138.558 95.676,138.362 C95.496,138.167 95.408,137.922 95.408,137.63 L95.408,137.63 Z M99.465,145.62 C99.465,144.584 99.669,143.653 100.075,142.826 C100.483,141.999 101.049,141.361 101.775,140.912 C102.501,140.462 103.329,140.238 104.26,140.238 C105.7,140.238 106.863,140.736 107.75,141.732 C108.64,142.729 109.084,144.052 109.084,145.707 L109.084,145.834 C109.084,146.864 108.887,147.784 108.494,148.604 C108.1,149.42 107.537,150.056 106.804,150.512 C106.072,150.967 105.23,151.195 104.28,151.195 C102.847,151.195 101.687,150.697 100.798,149.701 C99.91,148.706 99.465,147.388 99.465,145.747 L99.465,145.62 L99.465,145.62 Z M101.282,145.834 C101.282,147.006 101.554,147.947 102.097,148.656 C102.641,149.366 103.367,149.721 104.28,149.721 C105.198,149.721 105.927,149.361 106.467,148.643 C107.007,147.923 107.277,146.916 107.277,145.62 C107.277,144.46 107.003,143.52 106.453,142.802 C105.903,142.082 105.173,141.722 104.26,141.722 C103.368,141.722 102.65,142.077 102.102,142.787 C101.555,143.497 101.282,144.512 101.282,145.834 L101.282,145.834 Z M112.752,140.434 L112.81,141.762 C113.617,140.746 114.672,140.238 115.974,140.238 C118.207,140.238 119.334,141.498 119.354,144.018 L119.354,151 L117.546,151 L117.546,144.008 C117.54,143.246 117.366,142.683 117.024,142.318 C116.682,141.954 116.15,141.771 115.427,141.771 C114.841,141.771 114.327,141.929 113.884,142.241 C113.441,142.554 113.096,142.964 112.849,143.471 L112.849,151 L111.04,151 L111.04,140.434 L112.75,140.434 L112.752,140.434 Z" id="Animation"></path>
        </g>
    </g>
</svg>