<?xml version="1.0" encoding="UTF-8"?>
<svg width="405px" height="396px" viewBox="0 0 405 396" version="1.1" xmlns="http://www.w3.org/2000/svg" xmlns:xlink="http://www.w3.org/1999/xlink">
    <!-- Generator: Sketch 50.2 (55047) - http://www.bohemiancoding.com/sketch -->
    <title>avatar</title>
    <desc>Created with Sketch.</desc>
    <defs></defs>
    <g id="Page-1" stroke="none" stroke-width="1" fill="none" fill-rule="evenodd">
        <g id="Desktop-HD" transform="translate(-1639.000000, -1673.000000)">
            <g id="avatar" transform="translate(1841.500000, 1872.500000) scale(-1, 1) translate(-1841.500000, -1872.500000) translate(1639.000000, 1676.000000)">
                <ellipse id="Oval" fill="#E5ECFF" fill-rule="nonzero" cx="202.649684" cy="366.404446" rx="201.728549" ry="26.405868"></ellipse>
                <path d="M98.5614374,122.30369 C98.5614374,122.30369 51.890601,128.137545 31.6256326,186.169045 C11.3606641,244.200546 26.7129129,347.981748 75.5330642,356.579007 C124.353215,365.176267 207.562404,366.711491 231.818957,346.139478 C256.07551,325.87451 252.083926,268.150054 220.458293,254.33303 C188.83266,240.516006 167.032467,214.110138 159.663388,199.064934 C152.294308,184.326775 151.066128,125.98823 98.5614374,122.30369 Z" id="Shape" fill="#CACCFD" fill-rule="nonzero"></path>
                <path d="M136.395401,0.0294467014 C136.395401,0.0294467014 92.3639986,-1.11450932 92.3639986,43.2709844 C92.3639986,87.4276869 95.6458423,77.8184563 88.535181,89.7155989 C81.4245198,101.38395 68.0236582,110.535599 77.5957022,127.008565 C87.1677462,143.481532 84.7063634,151.031642 98.654199,151.489224 C112.602035,151.946807 118.345261,141.422411 127.917305,135.47384 C137.489349,129.525269 163.470611,130.669225 173.863116,121.059994 C183.982134,111.450763 185.349569,91.7747197 180.973777,83.7670276 C176.597986,75.7593354 177.14496,58.1424127 173.863116,44.8725228 C170.854759,31.3738417 161.282715,-1.11450932 136.395401,0.0294467014 Z" id="Shape" stroke="#657488" stroke-width="5" fill="#E6D1F4" fill-rule="nonzero" transform="translate(128.797631, 75.751834) scale(-1, 1) translate(-128.797631, -75.751834) "></path>
                <path d="M149.837948,28.9620174 C149.837948,28.9620174 155.364758,69.4919543 153.829533,83.9230682 C152.601353,98.3541821 122.817991,101.731677 122.817991,101.731677 L122.817991,113.706431 C122.817991,113.706431 128.3448,121.996645 126.50253,121.996645 C124.66026,121.996645 121.282766,125.37414 106.237562,114.320521 L106.237562,101.424632 C106.237562,101.424632 103.167112,85.1512481 97.6403025,80.8526184 C88.4289532,73.483539 88.4289532,58.7453801 95.4909877,58.4383351 C102.553022,58.1312902 106.544607,58.4383351 111.150281,50.7622107 C116.063001,42.7790413 124.66026,27.1197475 149.837948,28.9620174 Z" id="Shape" stroke="#657488" stroke-width="5" fill="#FFFFFF" fill-rule="nonzero"></path>
                <path d="M71.8485245,202.135384 C71.8485245,202.135384 81.3669187,145.946153 83.8232786,139.805254 C86.2796384,133.664354 106.851652,114.320521 106.851652,114.320521 C106.851652,114.320521 120.668676,125.681185 127.11662,121.996645 C127.11662,121.996645 130.70137,119.84733 126.402741,113.706431 C130.08728,114.320521 151.680218,129.67277 156.899983,133.664354 C162.426793,137.348894 196.81583,213.496048 196.81583,213.496048 L182.998806,213.496048 C182.998806,213.496048 181.156536,225.163757 144.925229,227.313072 C144.925229,227.313072 147.995679,234.682152 139.398419,241.130096 C139.398419,241.130096 77.0682891,231.918747 71.8485245,228.848297 C66.3217149,225.470802 71.8485245,202.135384 71.8485245,202.135384 Z" id="Shape" stroke="#657488" stroke-width="5" fill="#FFFFFF" fill-rule="nonzero"></path>
                <path d="M128.651845,239.287826 C128.651845,239.287826 133.25752,253.10485 150.452038,262.009154 C167.646557,270.913459 234.275317,280.431853 234.275317,280.431853 L284.323648,352.587423 C284.323648,352.587423 295.991357,352.587423 299.368852,346.446523 L258.224825,252.49076 L173.787457,221.479218 C173.787457,221.479218 154.750668,228.234207 144.925229,227.313072 C144.925229,227.313072 147.074544,236.831466 139.398419,241.130096 L128.651845,239.287826 Z" id="Shape" stroke="#657488" stroke-width="5" fill="#FFFFFF" fill-rule="nonzero"></path>
                <path d="M335.907204,342.454938 C335.907204,342.454938 348.803093,343.069028 352.487633,334.778814 L284.630693,247.578041 L196.508785,213.496048 L182.691761,213.496048 C182.691761,213.496048 180.235401,219.329903 173.787457,221.479218 L258.224825,252.49076 L273.270029,286.879798 L335.907204,342.454938 Z" id="Shape" stroke="#657488" stroke-width="5" fill="#FFFFFF" fill-rule="nonzero"></path>
                <g id="Group-2" transform="translate(149.523227, 163.386308)" fill-rule="nonzero">
                    <rect id="Rectangle-path" fill="#657488" x="0.414510718" y="71.9099335" width="55.8821857" height="8.80305657"></rect>
                    <polygon id="Shape" stroke="#657488" stroke-width="5" fill="#C2DAFC" points="85.7730142 0.0614089953 56.2966964 71.9099335 56.2966964 77.743788 99.2829931 66.0760789 125.381816 0.0614089953"></polygon>
                    <polygon id="Shape" stroke="#657488" stroke-width="5" fill="#C2DAFC" points="0.414510718 71.9099335 44.0148974 50.1097401 65.5080457 50.1097401 56.2966964 71.9099335"></polygon>
                </g>
                <path d="M139.398419,241.130096 C139.398419,241.130096 144.004094,241.130096 152.908398,241.130096 C161.812703,241.130096 168.260647,241.130096 171.024052,241.130096 C173.787457,241.130096 179.928356,231.611702 144.618184,227.313072 C144.925229,227.313072 147.074544,236.831466 139.398419,241.130096 Z" id="Shape" stroke="#657488" stroke-width="5" fill="#FFFFFF" fill-rule="nonzero"></path>
                <path d="M109.000967,158.842042 L97.9473475,207.048104 C97.9473475,207.048104 128.3448,219.329903 144.618184,227.313072" id="Shape" stroke="#657488" stroke-width="4.5"></path>
                <path d="M156.285893,148.095468 C156.285893,148.095468 176.243816,191.38881 182.691761,213.189003" id="Shape" stroke="#657488" stroke-width="3.5"></path>
                <path d="M284.323648,352.587423 C284.323648,352.587423 286.165918,367.325581 289.850458,369.167851 C293.534997,371.010121 328.23108,376.229886 332.836754,372.238301 C337.442429,368.246716 304.895662,359.342412 299.368852,346.139478 C299.368852,346.446523 295.684312,352.280378 284.323648,352.587423 Z" id="Shape" stroke="#657488" stroke-width="5" fill="#FFFFFF" fill-rule="nonzero"></path>
                <path d="M336.828339,342.147893 C336.828339,342.147893 338.670609,356.886052 342.355149,358.728322 C346.039688,360.570592 380.735771,365.790357 385.341445,361.798772 C389.94712,357.807187 357.400353,348.902883 351.873543,335.699949 C352.180588,336.006994 348.189003,341.840848 336.828339,342.147893 Z" id="Shape" stroke="#657488" stroke-width="5" fill="#FFFFFF" fill-rule="nonzero"></path>
            </g>
        </g>
    </g>
</svg>