<?xml version="1.0" encoding="UTF-8"?>
<svg width="150px" height="151px" viewBox="0 0 150 151" version="1.1" xmlns="http://www.w3.org/2000/svg" xmlns:xlink="http://www.w3.org/1999/xlink">
    <!-- Generator: Sketch 45 (43475) - http://www.bohemiancoding.com/sketch -->
    <title>branding</title>
    <desc>Created with Sketch.</desc>
    <defs></defs>
    <g id="Page-1" stroke="none" stroke-width="1" fill="none" fill-rule="evenodd">
        <g id="branding" transform="translate(0.000000, -1.000000)" fill-rule="nonzero" fill="#657488">
            <path d="M1,24.4 C-0.3,22.5 0.2,21 1.4,19.5 C3.1,17.4 4.5,15.1 6.4,13.3 C12.1,7.7 18.6,3.4 26.7,2.1 C29.1,1.7 31.5,1.3 34,1.4 C34.8,1.4 35.9,2.7 36.4,3.6 C38,6.3 39.4,9.2 40.8,12 C42.7,15.9 44.6,19.9 46.4,23.8 C48,27.2 49.4,30.8 51.1,34.1 C51.9,35.8 53.3,37.2 54.3,38.7 C54.4,38.9 54.4,39.3 54.4,39.6 C54.5,40.6 54.4,41.7 55.8,42.1 C56.1,42.2 56.3,42.8 56.4,43.2 C56.5,45.5 57.5,47.5 58.5,49.6 C60.3,53.6 61.9,57.7 63.4,61.8 C64.3,64.3 65,66.9 65.8,69.4 C66,69.9 66.5,70.3 66.8,70.7 C67.1,71.3 67.7,72 67.6,72.4 C67.4,73 66.7,73.6 66.1,73.8 C63.4,74.7 60.6,75.3 57.9,76.1 C54.6,77.1 51.4,78.2 48.2,79.4 C45,80.7 41.8,82.2 38.6,83.6 C36.2,84.7 33.8,85.6 31.4,86.8 C30.1,87.5 29.3,87.1 28.8,85.9 C26.7,80.8 24.6,75.6 22.5,70.5 C21.3,67.7 20.2,64.8 18.9,62 C18.1,60.3 18,58 15.8,57.2 C15.7,57.1 15.7,56.5 15.7,56.1 C15.7,55.5 15.9,54.6 15.6,54.3 C14.2,53.2 14.4,51.5 13.8,50.1 C12.6,47.4 11.5,44.7 10.3,42 C8.2,37.3 6.1,32.6 2.8,28.6 C2.3,27.9 1.7,27.3 1,26.8 C-0.2,26 -0.4,25.2 1,24.4 Z M3.9,26.3 C4.9,27.9 6.1,29.8 7.1,31.8 C9.1,35.7 11,39.7 12.9,43.7 C13.9,45.7 15,47.7 15.6,49.8 C16,51.2 16.7,51.4 17.8,51.1 C19.2,50.7 20.6,50.2 22.1,49.9 C28.9,48.5 35.2,45.9 41.3,42.8 C42.1,42.4 42.4,42 42,41.1 C40.5,37.3 39.1,33.4 37.6,29.5 C36.1,25.7 34.5,21.9 33,18.1 C32.4,16.7 31.9,15.3 31.2,13.8 C27.3,17.5 23,20.3 18.3,22.2 C13.7,23.9 8.7,24.9 3.9,26.3 L3.9,26.3 Z M46.1,51.7 C38.1,56.9 29.7,59.5 20.4,61.4 C23.6,69.2 26.8,76.9 29.9,84.5 C30.7,84.3 31.2,84.3 31.6,84.1 C38.5,81.3 45.4,78.4 52.4,75.6 C53.4,75.2 53.6,74.7 53.3,73.8 C52.4,70.7 51.6,67.6 50.6,64.6 C49.3,60.4 47.7,56.2 46.1,51.7 Z M44,41.2 C45.6,40 47.1,39.2 48.2,38.1 C48.9,37.3 50,36.5 49,34.9 C47.6,32.6 46.6,29.9 45.5,27.4 C43.9,23.8 42.4,20.3 40.7,16.7 C39.2,13.4 37.6,10 36,6.7 C34.9,4.3 33.6,3.4 31.3,3.6 C25.5,4.2 19.8,5.3 14.8,8.6 C10.2,11.8 6,15.3 3.2,20.3 C2.8,21 2.4,22.2 2.8,22.6 C3.2,23.2 4.4,23.5 5.2,23.4 C8,23 10.7,22.4 13.4,21.9 C12.8,20.1 12.6,18.4 11.8,17.1 C10.8,15.5 11.7,14.8 12.7,14.2 C15.2,12.6 17.7,11 20.3,9.7 C22,8.7 23.8,8 25.7,7.4 C28.2,6.7 31.1,8.2 32,10.3 C33.1,13 34.2,15.6 35.3,18.3 C36.6,21.5 37.7,24.8 39,28 C40.6,32.3 42.2,36.6 44,41.2 L44,41.2 Z M54.4,46.1 C52.3,47.6 50.5,48.9 48.8,50.1 C48,50.7 47.5,51.3 48.1,52.4 C49,54 49.9,55.6 50.5,57.3 C51.8,61.1 52.8,64.9 54,68.7 C54.6,70.6 55.2,72.5 55.9,74.8 C58.3,74 60.3,73.4 62.3,72.7 C62.8,72.5 63.4,71.7 63.4,71.3 C63,69 62.5,66.6 61.8,64.4 C60.7,61.2 59.5,58 58.2,54.8 C57.1,51.8 55.7,49 54.4,46.1 L54.4,46.1 Z M21.3,18.9 C24.1,16.7 26.7,14.9 29.1,12.9 C29.6,12.5 29.9,11.4 29.7,10.9 C29.4,10.3 28.6,9.6 27.9,9.4 C26.9,9.2 25.9,9.4 24.9,9.6 C21.7,10.3 19,12 16.4,13.8 C15.5,14.4 14.5,15 13.5,15.6 C13.6,15.8 13.7,15.9 13.8,16.1 C15,15.8 16.2,15.8 16.9,14.3 C17.1,13.9 17.9,13.4 18.3,13.5 C18.8,13.6 19.3,14.2 19.6,14.8 C20.2,15.9 20.6,17.2 21.3,18.9 Z M16.9,53.7 C17.6,54.3 18.1,54.9 18.7,55 C19.7,55.1 20.8,55.1 21.7,54.7 C27.3,52.8 32.9,50.9 38.5,48.9 C40,48.3 41.4,47.4 42.8,46.4 C43.2,46.1 43.1,45.3 43.2,44.7 C42.7,44.7 42.2,44.7 41.7,44.8 C41.3,44.9 41.1,45.3 40.7,45.5 C34.9,48 29.1,50.5 22.8,51.7 C21,52.2 19.3,53 16.9,53.7 L16.9,53.7 Z M44.5,48.4 C42,49.5 39.7,50.7 37.2,51.7 C34.1,53 30.9,54.2 27.7,55.3 C25.2,56.1 22.6,56.6 20.1,57.3 C19.7,57.4 19.3,58 19.3,58.3 C19.3,58.6 19.8,59.2 20.1,59.2 C21.2,59.2 22.3,59.2 23.3,58.9 C26.3,58.1 29.3,57.3 32.1,56.1 C36.1,54.4 40.1,52.4 44,50.5 C44.9,49.9 45.4,49.2 44.5,48.4 Z M13.2,18.2 C14.3,19.2 15,20.4 15.8,20.5 C16.9,20.6 18.3,20 19.1,19.2 C19.5,18.8 18.8,17.3 18.6,16.5 C16.8,17 15.3,17.5 13.2,18.2 L13.2,18.2 Z M47.7,48.5 C49.4,47.1 51,45.7 52.6,44.3 C53.4,43.6 53.3,42.9 52.4,42.3 L47.3,46.2 C46.5,46.9 46.4,47.6 47.7,48.5 L47.7,48.5 Z M51.4,38.9 C51.3,38.8 51.1,38.8 51,38.7 L45.3,42.9 C45.1,43.1 45,43.5 44.9,43.9 C45.3,43.9 45.9,44.2 46.2,44 C47.8,42.8 49.3,41.6 50.8,40.2 C51.2,40 51.2,39.4 51.4,38.9 L51.4,38.9 Z M126.4,61 C128.5,58.7 130.8,56.5 133.2,54.6 C136.6,52 139.3,48.8 142.3,45.8 C143.5,44.6 144.5,43.1 145.6,41.7 C146.6,40.4 148.1,39.5 149,38.2 C150.4,36.3 147.3,33.8 146.2,32.6 C141.6,27.3 136.7,22.1 131.4,17.5 C128,14.6 124.6,11.7 121.3,8.7 C118.6,6.3 115.6,4.3 113,1.9 C112.8,1.3 112.3,0.9 111.5,1 L111.3,1 C111,1.1 110.8,1.2 110.6,1.3 C110.2,1.4 109.9,1.7 109.8,2.2 C109.1,4.5 106.6,6.4 105.2,8.4 C103.6,10.8 101.6,12.6 99.8,14.7 C98.1,17 96,19.3 93.8,21 C92.8,21.8 91.9,22.6 90.9,23.4 C90.2,23.9 89,25.4 88.1,25.5 C86.4,25.7 86.4,28.2 88.1,28.4 C89.2,28.5 91,30.3 91.7,31.1 C93.4,32.7 95.1,34.4 96.8,36 C100,39.1 103.3,42.1 106.6,45 C110.3,48.3 113.6,51.9 117,55.4 C118.4,56.9 119.9,58.3 121.3,59.8 C121.8,60.3 122.3,61 122.9,61.6 C123.1,62 123.5,62.4 123.9,62.5 L124,62.6 C125.4,63.5 126.8,62.2 126.4,61 L126.4,61 Z M143.6,39.4 C141.7,41.4 140,43.8 138.4,45.8 C135.2,49.7 131.1,52.8 127.3,56.2 C127.7,54.1 127.7,52 127.7,49.9 C127.7,46.4 127.3,42.7 127.6,39.2 C129.2,39.3 130.7,39.4 132.3,39.4 C135.1,39.4 138,39.2 140.8,39.3 C141.7,39.3 142.6,39.4 143.6,39.4 L143.6,39.4 Z M127.4,17.7 C132.7,22.3 137.9,27.3 142.4,32.7 C143.4,33.9 144.5,35.1 145.6,36.2 C145.7,36.3 145.7,36.3 145.7,36.4 C144.4,36.5 143,36.2 141.7,36.3 C139.1,36.6 136.4,36.2 133.7,36.4 C128.6,36.7 123.4,35.7 118.3,35 C115.7,34.7 115.5,28.3 115.3,26.5 C114.9,23.2 114.1,19.8 113.6,16.5 C113.1,13 113.1,9.4 112.9,5.8 C117.6,9.9 122.7,13.6 127.4,17.7 L127.4,17.7 Z M93.4,25.2 C95.8,23.3 98.3,21.2 100.2,18.9 C102.5,16.2 105.2,14 107.1,11 C107.9,9.8 109,8.6 110.1,7.4 C110.2,8.9 110.2,10.4 110.4,12 C110.7,14.6 110.9,17.2 111.3,19.8 C111.5,21.4 111.8,23 112.1,24.6 C110.9,24.9 109.3,24.4 108.1,24.5 C106.1,24.6 104,24.6 102,24.8 C98.9,25.1 95.9,25.5 92.8,25.7 C93,25.5 93.2,25.3 93.4,25.2 L93.4,25.2 Z M122.3,56.6 C120.6,54.8 118.9,53.1 117.2,51.4 C113.8,47.8 110.4,44.5 106.7,41.2 C102.9,37.9 99.1,34.4 95.6,30.8 C95,30.2 94.3,29.4 93.5,28.6 C96.4,28.4 99.4,28.1 102.3,27.7 C104.4,27.4 106.9,27.4 109,27.5 C110.2,27.5 111.4,27.7 112.6,27.6 C112.8,28.6 112.9,29.7 113.1,30.7 C113.5,33 113.6,35.8 115.7,37.2 C117.7,38.5 120.7,38.3 123,38.7 L124.8,39 C124.4,42.5 125,46.1 124.9,49.6 C124.8,51.9 124.9,54.1 124.4,56.3 C124.3,57 124,57.6 123.8,58.3 C123.2,57.6 122.7,57.1 122.3,56.6 Z M132.7,83.9 C130.7,83.2 128.6,84.1 127.1,85.4 C127.1,84.5 127,83.6 127,82.7 C127.6,82 127.3,80.6 126.1,80.6 L91,80.6 C90.7,80.6 90.5,80.7 90.4,80.8 C90.2,80.9 90,81.1 89.9,81.3 C89.4,82.4 89.6,83.6 89.6,84.8 C89.6,86.9 89.5,89 89.5,91.2 C89.5,94.3 89.9,98 91.2,100.9 C91.7,102.1 92.3,103.2 93,104.3 C89.7,104.3 86.4,105.2 83.9,107.5 C81.4,109.7 81.6,112.9 84.7,114.3 C88.4,115.9 92.5,116.2 96.4,116.8 C100.7,117.4 105,117.7 109.3,117.7 C116.6,117.7 123.6,115.8 130.1,112.6 C132.9,111.2 132.8,107.2 130.4,105.6 C129.4,104.9 127.7,104.4 126.5,104.4 C125.8,104.4 125.1,104.3 124.3,104.3 C124.4,104.2 124.5,104 124.6,103.9 C125,103.2 125.4,102.4 125.6,101.7 C127.4,102.5 130.5,101.8 131.9,101.4 C135.5,100.4 137.2,95.6 137.4,92.4 C137.5,88.3 136.5,85.2 132.7,83.9 L132.7,83.9 Z M128.3,107.1 C130.2,107.6 129.7,109.9 128.4,110.5 C126.9,111.2 125.5,111.9 124,112.6 C119.4,114.5 114.2,114.7 109.3,115.1 C103.9,115.5 98,114.6 92.7,113.8 C91.4,113.6 90.1,113.3 88.8,112.9 C87.6,112.6 83.2,111.8 85,109.5 C86.8,107.2 90.6,106.5 93.4,106.6 C93.9,106.8 94.4,106.7 94.8,106.4 C95.5,107 96.2,107.6 97.1,108.1 C99.8,109.6 104.2,110.1 107.2,110 C108.9,109.9 110.6,110 112.3,109.8 C113.8,109.6 115.9,110 117.3,109.3 C118.9,108.6 120.3,107.9 121.5,106.9 C121.9,107 122.4,106.8 122.7,106.5 C124.5,106.2 126.8,106.8 128.3,107.1 L128.3,107.1 Z M123.4,100.2 C122.9,101.8 122.2,103.2 120.9,104.3 C119.7,105.4 118.6,105.9 117.2,106.7 C116.1,107.3 114.9,107.2 113.7,107.2 C112.1,107.2 110.5,107.5 108.9,107.5 C106,107.5 103.2,107.3 100.4,106.6 C96.9,105.7 95,103.4 93.6,100.3 C92.3,97.4 92.4,94.3 92,91.2 C91.8,89.6 92.1,88 92.1,86.4 C92.1,85.7 91.8,84.1 91.9,83.1 L124.6,83.1 C124.6,83.1 124.6,83.2 124.7,83.2 C124.6,88.8 124.9,94.7 123.4,100.2 Z M132.5,97.8 C131.5,98.8 130.6,99 129.3,99.3 C128.5,99.5 127.6,99.5 126.8,99.2 C126.6,99.1 126.5,99.1 126.5,99.1 C126.4,98.9 126.3,98.8 126.2,98.7 C126.4,97.1 126.5,95.5 126.8,93.8 C127.1,92.2 127.2,90.6 127.2,88.9 L127.3,88.8 C128.1,87.5 129.4,86.4 131,86.4 C134.6,86.4 134.9,89.4 134.9,92.2 C134.9,94.1 133.9,96.4 132.5,97.8 L132.5,97.8 Z" id="Shape"></path>
            <path d="M38.65,147 L38.65,132.78 L43.3,132.78 C44.842,132.78 46.002,133.1 46.78,133.738 C47.558,134.376 47.947,135.32 47.947,136.57 C47.947,137.234 47.757,137.822 47.381,138.333 C47.004,138.843 46.491,139.24 45.839,139.52 C46.607,139.734 47.214,140.143 47.659,140.745 C48.106,141.347 48.329,142.065 48.329,142.898 C48.329,144.174 47.916,145.178 47.089,145.906 C46.262,146.636 45.093,147 43.583,147 L38.65,147 Z M40.525,140.35 L40.525,145.467 L43.621,145.467 C44.494,145.467 45.183,145.241 45.688,144.787 C46.192,144.337 46.444,143.712 46.444,142.917 C46.444,141.207 45.514,140.35 43.651,140.35 L40.526,140.35 L40.525,140.35 Z M40.525,138.846 L43.357,138.846 C44.177,138.846 44.834,138.641 45.325,138.23 C45.817,137.82 46.062,137.264 46.062,136.56 C46.062,135.78 45.835,135.21 45.379,134.856 C44.922,134.502 44.229,134.324 43.299,134.324 L40.524,134.324 L40.524,138.846 L40.525,138.846 Z M55.618,138.056 C55.345,138.009 55.048,137.986 54.728,137.986 C53.545,137.986 52.74,138.491 52.318,139.5 L52.318,147 L50.51,147 L50.51,136.434 L52.268,136.434 L52.298,137.654 C52.89,136.71 53.73,136.238 54.818,136.238 C55.168,136.238 55.436,136.284 55.618,136.375 L55.618,138.055 L55.618,138.056 Z M63.103,147 C62.999,146.792 62.915,146.42 62.849,145.887 C62.009,146.759 61.006,147.195 59.841,147.195 C58.799,147.195 57.944,146.901 57.277,146.312 C56.61,145.722 56.277,144.975 56.277,144.07 C56.277,142.97 56.694,142.116 57.531,141.507 C58.368,140.897 59.544,140.594 61.061,140.594 L62.819,140.594 L62.819,139.764 C62.819,139.132 62.629,138.629 62.253,138.254 C61.875,137.881 61.319,137.694 60.583,137.694 C59.938,137.694 59.398,137.856 58.963,138.182 C58.526,138.507 58.307,138.902 58.307,139.362 L56.491,139.362 C56.491,138.836 56.678,138.327 57.053,137.835 C57.427,137.343 57.935,136.955 58.576,136.668 C59.216,136.382 59.922,136.238 60.69,136.238 C61.91,136.238 62.862,136.543 63.553,137.151 C64.243,137.761 64.601,138.599 64.627,139.667 L64.627,144.53 C64.627,145.5 64.75,146.27 64.997,146.844 L64.997,147 L63.103,147 L63.103,147 Z M60.105,145.623 C60.672,145.623 61.209,145.477 61.717,145.183 C62.224,144.891 62.592,144.51 62.82,144.041 L62.82,141.874 L61.404,141.874 C59.191,141.874 58.084,142.522 58.084,143.817 C58.084,144.384 58.274,144.827 58.65,145.147 C59.028,145.465 59.513,145.624 60.105,145.624 L60.105,145.623 Z M68.86,136.433 L68.92,137.763 C69.726,136.746 70.78,136.238 72.083,136.238 C74.316,136.238 75.443,137.498 75.463,140.018 L75.463,147 L73.655,147 L73.655,140.008 C73.649,139.246 73.475,138.683 73.133,138.318 C72.791,137.954 72.259,137.771 71.536,137.771 C70.95,137.771 70.436,137.929 69.993,138.241 C69.55,138.554 69.205,138.964 68.958,139.471 L68.958,147 L67.15,147 L67.15,136.434 L68.86,136.434 L68.86,136.433 Z M77.44,141.629 C77.44,140.007 77.823,138.703 78.59,137.717 C79.36,136.73 80.366,136.237 81.61,136.237 C82.846,136.237 83.826,136.66 84.55,137.507 L84.55,132 L86.355,132 L86.355,147 L84.695,147 L84.607,145.867 C83.884,146.753 82.879,147.195 81.59,147.195 C80.366,147.195 79.368,146.695 78.596,145.691 C77.826,144.691 77.439,143.381 77.439,141.767 L77.439,141.63 L77.44,141.629 Z M79.246,141.833 C79.246,143.031 79.493,143.968 79.988,144.645 C80.483,145.323 81.166,145.661 82.038,145.661 C83.185,145.661 84.021,145.147 84.548,144.118 L84.548,139.264 C84.008,138.268 83.178,137.769 82.058,137.769 C81.173,137.769 80.483,138.112 79.988,138.796 C79.493,139.479 79.246,140.492 79.246,141.833 L79.246,141.833 Z M90.813,147 L89.006,147 L89.006,136.434 L90.813,136.434 L90.813,147 Z M88.86,133.63 C88.86,133.338 88.95,133.09 89.13,132.89 C89.308,132.687 89.573,132.586 89.924,132.586 C90.276,132.586 90.544,132.686 90.724,132.889 C90.908,133.089 90.999,133.337 90.999,133.629 C90.999,133.923 90.907,134.167 90.724,134.362 C90.542,134.558 90.274,134.655 89.924,134.655 C89.572,134.655 89.307,134.558 89.128,134.362 C88.948,134.167 88.858,133.922 88.858,133.63 L88.86,133.63 Z M95.105,136.434 L95.165,137.762 C95.971,136.746 97.025,136.238 98.328,136.238 C100.561,136.238 101.688,137.498 101.708,140.018 L101.708,147 L99.9,147 L99.9,140.008 C99.893,139.246 99.72,138.683 99.377,138.318 C99.037,137.954 98.503,137.771 97.781,137.771 C97.196,137.771 96.681,137.929 96.239,138.241 C95.796,138.554 95.451,138.964 95.204,139.471 L95.204,147 L93.397,147 L93.397,136.434 L95.107,136.434 L95.105,136.434 Z M103.695,141.629 C103.695,139.981 104.075,138.671 104.835,137.697 C105.598,136.724 106.607,136.237 107.865,136.237 C109.153,136.237 110.159,136.693 110.881,137.604 L110.971,136.434 L112.621,136.434 L112.621,146.744 C112.621,148.112 112.215,149.19 111.405,149.978 C110.595,150.764 109.505,151.158 108.138,151.158 C107.376,151.158 106.631,150.995 105.902,150.67 C105.174,150.344 104.617,149.898 104.232,149.332 L105.17,148.248 C105.945,149.205 106.892,149.684 108.012,149.684 C108.892,149.684 109.576,149.436 110.068,148.941 C110.558,148.447 110.805,147.751 110.805,146.851 L110.805,145.943 C110.083,146.777 109.095,147.193 107.845,147.193 C106.609,147.193 105.608,146.695 104.843,145.699 C104.079,144.704 103.697,143.347 103.697,141.629 L103.695,141.629 Z M105.51,141.833 C105.51,143.023 105.754,143.96 106.243,144.641 C106.731,145.321 107.415,145.661 108.293,145.661 C109.433,145.661 110.269,145.144 110.803,144.108 L110.803,139.283 C110.25,138.273 109.42,137.769 108.313,137.769 C107.433,137.769 106.747,138.112 106.253,138.796 C105.758,139.479 105.51,140.492 105.51,141.833 Z" id="Branding"></path>
        </g>
    </g>
</svg>