<?xml version="1.0" encoding="UTF-8"?>
<svg width="150px" height="151px" viewBox="0 0 150 151" version="1.1" xmlns="http://www.w3.org/2000/svg" xmlns:xlink="http://www.w3.org/1999/xlink">
    <!-- Generator: Sketch 45 (43475) - http://www.bohemiancoding.com/sketch -->
    <title>build</title>
    <desc>Created with Sketch.</desc>
    <defs></defs>
    <g id="Page-1" stroke="none" stroke-width="1" fill="none" fill-rule="evenodd">
        <g id="build" transform="translate(-1.000000, 0.000000)" fill-rule="nonzero" fill="#657488">
            <path d="M150.9,25.9 C150.9,31.5 144.7,38.3 137.4,39.3 C133.9,39.8 130.2,39.7 126.7,39.3 C117.8,38.5 109.2,36.2 101,33.1 C95.8,31.1 93.2,26.5 92.8,21.6 C92.2,12.4 98.2,7.1 106,2.6 C110.1,0.3 114.9,-0.2 119.5,0.1 C126.7,0.6 134,1.7 139.8,6 C144.2,9.4 148,13.2 148.6,18.7 C148.7,19.7 149.2,20.6 149.5,21.6 C150,23.1 150.4,24.5 150.9,25.9 Z M123.7,35 C128.1,34.1 132.7,33.4 137.1,32.2 C141.7,30.9 144.8,28.1 146,23.7 C146.6,21.7 146.5,19.8 146.3,17.8 C146,14.6 144.8,12.1 142.1,10.1 C141,9.3 140,8.3 138.9,7.4 C133.6,3.1 130.8,2.6 124.5,5.1 C122.4,5.9 120.3,6.7 118.2,7.6 C116.4,8.5 114.5,9.4 112.9,10.6 C107.4,14.7 104.6,20.2 102.6,26.1 C101.3,30 101.6,30.5 106,31.5 C106.6,31.6 107.1,31.8 107.6,32 C112.9,32.9 118.1,33.9 123.7,35 L123.7,35 Z M115.9,7 C106.3,3.8 98.5,7.8 95.6,14.8 C94.6,17.2 94.7,20.2 95.4,22.7 C95.9,24.8 98,26.6 99.4,28.6 C99.7,28.6 100,28.5 100.4,28.5 C102.8,19.8 106.8,12.2 115.9,7 Z M109.7,34 C109.7,34.2 109.6,34.3 109.6,34.5 C111.6,35 113.5,35.7 115.6,36 C120.3,36.8 125,37.5 129.6,38.1 C138.4,39.4 147.3,35.3 149,27.2 C149.2,26.1 148.9,24.8 148.8,23.6 L148,23.6 C147.7,24.2 147.4,24.7 147.2,25.3 C146.1,28.4 144.2,31.1 140.8,32.3 C137,33.7 132.9,34.7 128.9,35.4 C126,36 123,36 120.1,35.7 C116.6,35.4 113.2,34.6 109.7,34 L109.7,34 Z M107.8,4 C111.2,4.5 114.4,4.9 117.6,5.4 C119.6,5.7 124.1,4 125.3,2.4 C120.3,0.9 109.3,1.9 107.8,4 Z M68.0602344,37.8748714 C67.211384,37.6230686 65.9987405,37.8748714 65.1498901,37.8748714 C64.1797753,38.0007728 62.1182814,38.5043783 61.2694309,38.0007728 C61.0269023,37.8748714 60.5418449,36.7417588 60.2993162,36.2381533 C59.8142588,35.3568435 59.207937,34.4755338 58.6016153,33.7201254 C56.9039144,31.7057031 54.8424205,30.1948864 52.4171336,29.1876753 C53.3872483,26.6696474 54.9636849,23.5221126 53.265984,21.2558875 C52.2958692,19.7450708 50.1131109,18.9896625 48.5366744,18.3601555 C46.1113875,17.3529444 43.5648362,16.597536 41.0182849,15.7162262 C40.4119631,15.4644235 39.8056414,15.8421276 39.5631127,16.4716346 C38.5929979,18.6119583 37.3803544,20.6263806 36.7740327,22.7667042 L36.7740327,22.8926056 C32.6510449,22.3890001 28.2855283,22.8926056 24.5263336,24.9070279 C22.4648397,21.6335917 20.6458744,16.7234374 16.2803579,19.8709722 C14.7039214,21.0040847 13.2487492,22.1371973 11.793577,23.2703098 C10.5809336,24.277521 8.76196835,25.4106335 7.91311792,26.7955488 C7.18553183,28.1804641 8.15564661,29.4394781 9.00449705,30.4466892 C9.61081878,31.2020976 10.3384049,31.8316045 10.9447266,32.5870129 C11.3085197,33.0906185 11.5510483,33.2165198 11.429784,33.7201254 C11.429784,34.0978296 10.5809336,35.3568435 10.3384049,35.7345477 C8.640704,39.5115895 8.15564661,43.5404341 8.27691096,47.69518 C6.0941527,47.5692786 3.5476014,46.4361661 1.72863618,47.8210814 C0.879785743,48.954194 1.00105009,50.8427148 1.00105009,52.2276302 C1.12231444,56.3823761 1.72863618,61.4184318 3.42633705,65.1954736 C3.66886574,65.5731778 4.15392313,65.950882 4.63898053,65.8249806 C5.97288835,65.4472764 9.00449705,64.1882625 10.2171405,64.6918681 C10.8234623,64.9436708 11.5510483,66.0767834 11.9148414,66.580389 C12.8849562,67.7135015 13.7338066,68.9725154 14.7039214,70.1056279 C15.6740362,71.2387405 16.644151,72.371853 17.7355301,73.3790642 C18.0993231,73.7567683 19.433231,74.3862753 19.5544953,74.7639795 C19.797024,75.1416837 19.3119666,76.1488948 19.3119666,76.526599 C18.9481736,78.0374157 17.7355301,80.1777394 17.9780588,81.6885561 C18.2205875,82.94757 19.6757597,83.4511756 20.6458744,83.9547812 C22.7073683,84.9619923 25.011391,85.9692034 27.1941492,86.5987104 C28.528057,86.9764146 30.1044936,87.6059216 31.317137,86.8505132 C32.8935736,85.8433021 33.378631,83.4511756 33.742424,81.4367533 C36.167711,82.0662603 38.5929979,82.4439644 41.0182849,82.0662603 C42.473457,81.8144575 43.8073649,81.3108519 45.1412727,80.6813449 C45.7475944,80.3036408 46.8389736,79.422331 47.5665596,79.6741338 C47.8090883,79.8000352 48.1728814,80.4295422 48.2941457,80.6813449 C49.7493179,82.1921617 51.4470188,83.577077 53.629777,82.8216686 C55.6912709,82.1921617 57.5102362,80.3036408 58.9654083,78.7928241 C60.2993162,77.5338101 62.1182814,75.7711906 62.4820744,73.8826697 C62.9671318,71.7423461 60.9056379,70.1056279 59.5717301,68.846614 C59.207937,68.4689098 58.7228796,68.0912057 58.3590866,67.5876001 C58.1165579,67.3357973 57.8740292,66.9580931 57.7527649,66.7062903 C57.9952936,65.6990792 59.3292014,64.5659667 59.8142588,63.5587555 C61.1481666,60.7889249 61.8757527,57.6413901 61.997017,54.6197566 C64.3010396,54.8715594 66.7263266,55.5010664 69.0303492,55.2492636 C70.4855214,55.1233622 71.0918431,54.4938552 71.3343718,52.9830385 C72.1832222,49.2059967 71.0918431,44.2958424 69.8791996,40.7706034 C69.8791996,39.5115895 69.3941423,38.2525756 68.0602344,37.8748714 Z M69.5154066,52.7312357 C69.5154066,52.7312357 69.3941423,52.7312357 69.5154066,52.7312357 C69.2728779,52.7312357 68.6665562,52.8571371 68.4240275,52.8571371 C66.1200049,52.8571371 63.8159823,52.2276302 61.3906953,52.1017288 C60.7843736,52.1017288 60.1780518,52.6053343 60.1780518,53.2348413 C60.0567875,56.5082775 59.4504657,60.0335165 57.9952936,62.9292486 C57.2677075,64.1882625 55.5700066,65.6990792 55.9337996,67.3357973 C56.418857,69.2243182 58.4803509,70.6092335 59.6929944,71.8682474 C60.5418449,72.7495572 60.9056379,73.1272614 60.1780518,74.2603739 C59.5717301,75.1416837 58.844144,76.0229934 58.1165579,76.7784018 C56.7826501,78.0374157 55.3274779,79.6741338 53.629777,80.4295422 C51.3257544,81.4367533 50.476904,78.2892185 48.7792031,77.5338101 C46.9602379,76.6525004 44.898744,78.5410213 43.3223075,79.1705282 C40.1694344,80.3036408 36.895297,79.9259366 33.742424,78.9187254 C33.1361023,78.7928241 32.4085162,78.9187254 32.2872518,79.6741338 C32.0447231,80.8072463 31.8021944,82.0662603 31.4384014,83.1993728 C30.953344,84.4583867 30.953344,84.9619923 29.6194362,84.8360909 C27.6792066,84.4583867 25.738977,83.577077 23.9200118,82.8216686 C22.949897,82.4439644 22.1010466,81.8144575 21.1309318,81.5626547 C21.0096675,81.5626547 20.7671388,81.4367533 20.6458744,81.3108519 C20.6458744,81.1849505 20.6458744,81.1849505 20.7671388,81.0590491 C21.6159892,79.6741338 22.1010466,77.0302046 22.222311,75.3934864 C22.3435753,73.1272614 20.0395527,72.371853 18.5843805,70.8610363 C16.644151,68.846614 15.0677144,66.4544876 13.1274849,64.3141639 C12.0361057,63.05515 11.3085197,62.425643 9.61081878,62.5515444 C8.15564661,62.6774458 6.70047444,63.05515 5.24530226,63.4328541 C4.15392313,60.5371221 3.79013009,57.1377845 3.5476014,54.1161511 C3.42633705,53.1089399 3.062544,50.4650107 3.79013009,50.0873065 C4.51771618,49.7096023 6.21541705,50.2132079 6.94300313,50.3391093 C8.03438226,50.4650107 8.8832327,50.5909121 9.97461183,50.4650107 C10.5809336,50.0873065 10.8234623,49.4577995 10.8234623,48.8282926 C10.5809336,44.9253494 10.8234623,41.1483076 12.3998988,37.4971672 C13.0062205,35.9863505 14.4613927,34.4755338 13.855071,32.7129143 C13.3700136,31.327999 12.0361057,30.1948864 11.065991,29.1876753 C10.7021979,28.8099711 10.0958762,28.0545627 10.0958762,28.0545627 C10.2171405,27.6768586 11.1872553,26.9214502 11.5510483,26.6696474 C12.8849562,25.5365349 14.3401283,24.4034223 15.7953005,23.2703098 C17.1292083,22.2630987 18.7056449,20.5004792 20.160817,21.8853945 C21.6159892,23.1444084 22.222311,25.6624363 23.3136901,27.2991544 C23.6774831,27.9286613 24.4050692,27.80276 25.011391,27.4250558 C28.528057,25.1588307 33.1361023,24.6552251 37.1378257,25.2847321 C37.8654118,25.4106335 38.2292049,24.9070279 38.3504692,24.277521 C38.7142623,24.1516196 38.956791,23.8998168 39.0780553,23.5221126 C39.684377,21.7594931 40.6544918,20.122775 41.3820779,18.3601555 C44.4136866,19.3673666 47.8090883,20.2486764 50.5981683,22.0112959 C53.1447196,23.7739154 50.7194327,27.2991544 49.9918466,29.5653795 C49.7493179,30.1948864 50.1131109,30.9502948 50.7194327,31.0761962 C53.3872483,31.9575059 55.5700066,33.4683226 57.2677075,35.7345477 C58.1165579,36.8676602 58.7228796,38.378477 59.5717301,39.3856881 C60.5418449,40.5188006 61.8757527,40.3928992 63.2096605,40.3928992 C64.3010396,40.3928992 65.2711544,40.2669978 66.3625336,40.1410965 C67.3326483,40.1410965 67.575177,39.8892937 67.9389701,40.2669978 C68.7878205,41.274209 69.0303492,43.5404341 69.2728779,44.9253494 C69.6366709,46.8138703 69.8791996,48.7023912 69.8791996,50.5909121 C69.6366709,51.3463204 69.6366709,52.1017288 69.5154066,52.7312357 L69.5154066,52.7312357 Z M41.0182849,33.594224 C37.6228831,32.2093087 33.4998953,33.2165198 30.2257579,34.223731 C26.1027701,35.4827449 23.1924257,37.74897 20.7671388,41.4001104 C18.3418518,45.0512508 16.8866797,49.3318981 17.9780588,53.8643483 C18.8269092,57.5154887 20.7671388,61.2925305 23.1924257,64.0623611 C27.6792066,69.2243182 35.4401249,71.7423461 41.8671353,69.8538252 C49.5067892,67.7135015 54.4786275,59.529911 54.2360988,51.4722218 C53.9935701,43.7922368 47.8090883,36.1122519 41.0182849,33.594224 Z M43.4435718,66.7062903 C38.3504692,69.3502196 31.8021944,67.9653043 27.3154136,64.6918681 C22.3435753,61.0407277 18.3418518,52.9830385 20.5246101,46.8138703 C22.1010466,42.6591243 25.1326553,38.7561811 29.1343788,37.119463 C32.2872518,35.8604491 36.895297,34.4755338 40.1694344,35.8604491 C45.262537,37.74897 49.7493179,42.7850257 51.3257544,48.0728842 C53.5085127,55.1233622 49.7493179,63.4328541 43.4435718,66.7062903 Z" id="Shape"></path>
            <path d="M147.555664,82.4269748 C146.942528,82.298581 146.084137,82.4269748 145.348374,82.4269748 C144.61261,82.5553686 143.018456,82.8121562 142.40532,82.5553686 C142.160065,82.4269748 141.792183,81.5282182 141.669556,81.2714306 C141.301674,80.6294615 140.811165,79.9874925 140.320656,79.3455234 C139.094384,77.8047978 137.50023,76.6492535 135.783448,75.8788907 C136.519212,73.9529835 137.622857,71.641895 136.396584,69.8443817 C135.660821,68.6888374 133.944039,68.1752622 132.840394,67.661687 C131.000985,66.8913241 129.161576,66.2493551 127.19954,65.6073861 C126.709031,65.4789923 126.341149,65.7357799 126.095895,66.1209613 C125.482759,67.661687 124.501741,69.2024127 124.011232,70.8715322 L124.011232,70.999926 C120.94555,70.6147446 117.634614,70.999926 114.936815,72.5406517 C113.465288,70.1011693 112.116388,66.3777489 108.805452,68.8172313 C107.701807,69.7159879 106.475534,70.4863507 105.371889,71.3851074 C104.390871,72.1554702 103.041971,72.9258331 102.551462,74.0813773 C102.060953,75.1085278 102.674089,76.0072845 103.409853,76.9060411 C103.900362,77.4196163 104.390871,77.9331916 104.88138,78.5751606 C105.126634,78.960342 105.371889,79.0887358 105.249262,79.4739173 C105.249262,79.7307049 104.636125,80.6294615 104.513498,81.0146429 C103.287226,83.9677005 102.919344,86.9207581 103.041971,90.0022095 C101.447817,89.8738156 99.4857807,89.1034528 98.1368809,90.1306033 C97.2784901,90.9009661 97.4011174,92.313298 97.4011174,93.2120546 C97.5237446,96.293506 97.8916264,100.14532 99.2405262,102.969984 C99.3631535,103.355165 99.8536625,103.611953 100.221544,103.483559 C101.202562,103.226772 103.409853,102.199621 104.390871,102.584803 C104.88138,102.713196 105.371889,103.611953 105.617143,103.997134 C106.352907,104.895891 106.966043,105.794648 107.701807,106.693404 C108.43757,107.592161 109.173334,108.362524 110.031725,109.132887 C110.276979,109.389674 111.257997,109.90325 111.380624,110.160037 C111.503252,110.416825 111.257997,111.187188 111.13537,111.443975 C110.890115,112.59952 109.909097,114.140245 110.154352,115.424183 C110.276979,116.32294 111.503252,116.708121 112.239015,117.093303 C113.833169,117.863666 115.549951,118.634028 117.144105,119.147604 C118.125123,119.404391 119.351396,119.917967 120.209787,119.275998 C121.313432,118.505635 121.681314,116.708121 122.049196,115.167396 C123.765977,115.680971 125.605386,115.937759 127.444795,115.680971 C128.54844,115.552577 129.529458,115.167396 130.510476,114.65382 C131.000985,114.397033 131.736749,113.755064 132.349885,113.883458 C132.595139,114.011851 132.717767,114.397033 132.963021,114.65382 C134.066666,115.809365 135.415566,116.836515 136.887093,116.194546 C138.35862,115.680971 139.830147,114.268639 140.933793,113.113095 C141.914811,112.085944 143.26371,110.802006 143.631592,109.389674 C143.999474,107.848949 142.40532,106.565011 141.424302,105.53786 L140.565911,104.639103 C140.443284,104.382316 140.198029,104.253922 140.075402,103.997134 C140.320656,103.226772 141.179047,102.328015 141.546929,101.557652 C142.527947,99.5033512 143.018456,97.1922627 143.141083,94.7527803 C144.857865,94.8811741 146.697274,95.3947494 148.414055,95.2663555 C149.5177,95.1379617 149.885582,94.6243865 150.130837,93.5972361 C150.743973,90.7725723 150.008209,87.0491519 149.027191,84.3528819 C148.904564,83.5825191 148.536682,82.6837624 147.555664,82.4269748 L147.555664,82.4269748 Z M148.536682,93.5972361 C148.291428,93.5972361 147.923546,93.7256299 147.678292,93.5972361 C145.96151,93.5972361 144.244729,93.0836608 142.40532,92.955267 C141.914811,92.955267 141.424302,93.3404484 141.424302,93.8540237 C141.301674,96.4218998 140.933793,98.989776 139.70752,101.172471 C139.217011,102.199621 137.868111,103.226772 138.113366,104.51071 C138.481248,105.923042 140.075402,106.950192 140.933793,107.977342 C141.546929,108.619312 141.792183,109.004493 141.301674,109.774856 C140.933793,110.416825 140.320656,111.058794 139.70752,111.700763 C138.726502,112.727913 137.622857,113.883458 136.273957,114.525427 C134.557175,115.295789 133.944039,112.856307 132.595139,112.342732 C131.24624,111.700763 129.774713,113.113095 128.54844,113.62667 C126.218522,114.525427 123.765977,114.140245 121.436059,113.369882 C121.068177,113.241489 120.455041,113.369882 120.332414,113.883458 C120.087159,114.782214 119.964532,115.680971 119.719278,116.579728 C119.351396,117.606878 119.351396,117.992059 118.370378,117.735272 C116.898851,117.478484 115.427324,116.708121 114.078424,116.194546 C113.34266,115.937759 112.729524,115.424183 111.993761,115.167396 C111.871133,115.167396 111.748506,115.039002 111.625879,115.039002 C111.625879,115.039002 111.625879,114.910608 111.748506,114.910608 C112.361642,113.883458 112.729524,111.829157 112.852151,110.545219 C112.974779,108.876099 111.257997,108.23413 110.154352,107.20698 C108.682825,105.666254 107.456552,103.868741 106.107652,102.199621 C105.371889,101.300864 104.758753,100.787289 103.53248,100.915683 C102.428835,101.044077 101.32519,101.300864 100.221544,101.557652 C99.3631535,99.3749574 99.117899,96.8070812 98.8726444,94.6243865 C98.7500172,93.8540237 98.5047627,91.9281166 98.9952717,91.5429351 C99.4857807,91.2861475 100.834681,91.6713289 101.32519,91.6713289 C102.060953,91.7997228 102.796717,91.9281166 103.655107,91.7997228 C104.145616,91.7997228 104.390871,91.1577537 104.390871,90.7725723 C104.145616,87.8195147 104.390871,84.994851 105.494516,82.298581 C105.985025,81.1430367 107.08867,79.9874925 106.598161,78.7035544 C106.23028,77.676404 105.249262,76.7776473 104.513498,76.0072845 C104.268244,75.7504968 103.777735,75.1085278 103.777735,75.1085278 C103.777735,74.7233464 104.636125,74.338165 104.88138,74.0813773 C105.862398,73.1826207 106.966043,72.4122579 108.069689,71.5135012 C109.050707,70.7431384 110.154352,69.4592003 111.257997,70.4863507 C112.361642,71.5135012 112.852151,73.3110145 113.710542,74.5949526 C113.955797,74.980134 114.568933,74.980134 114.936815,74.7233464 C117.511987,72.9258331 121.068177,72.6690455 124.011232,73.1826207 C124.501741,73.3110145 124.869622,72.9258331 124.869622,72.4122579 C125.114877,72.283864 125.360131,72.1554702 125.360131,71.8986826 C125.85064,70.4863507 126.463777,69.3308065 127.076913,68.0468684 C129.406831,68.8172313 131.982003,69.4592003 133.944039,70.7431384 C135.906075,72.0270764 134.066666,74.7233464 133.45353,76.3924659 C133.330903,76.9060411 133.576157,77.4196163 133.944039,77.5480101 C135.906075,78.1899792 137.50023,79.3455234 138.849129,81.0146429 C139.462266,81.9133996 139.952775,82.9405501 140.565911,83.8393067 C141.301674,84.7380634 142.282692,84.6096695 143.26371,84.6096695 C143.999474,84.6096695 144.857865,84.4812757 145.593628,84.4812757 C146.329392,84.4812757 146.452019,84.3528819 146.819901,84.6096695 C147.433037,85.3800324 147.678292,87.1775457 147.800919,88.0763023 C148.046173,89.4886342 148.291428,90.9009661 148.291428,92.313298 C148.781937,92.5700856 148.781937,93.0836608 148.536682,93.5972361 L148.536682,93.5972361 Z M127.322167,77.8047978 C124.746995,76.7776473 121.681314,77.5480101 119.228769,78.318373 C116.163087,79.2171296 113.955797,80.8862491 112.116388,83.7109129 C110.276979,86.5355767 109.173334,89.7454218 110.031725,93.0836608 C110.644861,95.7799308 112.116388,98.7329883 113.955797,100.787289 C117.266733,104.639103 123.030214,106.565011 127.935304,105.152679 C133.821412,103.483559 137.377602,97.3206565 137.254975,91.1577537 C137.009721,85.5084262 132.472512,79.7307049 127.322167,77.8047978 L127.322167,77.8047978 Z M129.161576,102.84159 C125.360131,104.767497 120.455041,103.868741 117.021478,101.300864 C113.34266,98.6045945 110.276979,92.4416918 111.871133,87.8195147 C112.974779,84.6096695 115.304697,81.656612 118.370378,80.5010677 C120.700296,79.6023111 124.256486,78.5751606 126.709031,79.6023111 C130.510476,81.0146429 133.821412,84.7380634 135.047684,88.8466652 C136.641839,94.1108113 133.821412,100.402108 129.161576,102.84159 L129.161576,102.84159 Z" id="Shape"></path>
            <path d="M39.578,149 L37.693,149 L37.693,142.428 L30.525,142.428 L30.525,149 L28.65,149 L28.65,134.78 L30.525,134.78 L30.525,140.895 L37.693,140.895 L37.693,134.781 L39.578,134.781 L39.578,149 Z M52.142,136.324 L47.572,136.324 L47.572,149 L45.706,149 L45.706,136.324 L41.146,136.324 L41.146,134.781 L52.14,134.781 L52.14,136.325 L52.142,136.324 Z M56.365,134.781 L61.015,146.384 L65.662,134.782 L68.094,134.782 L68.094,149 L66.22,149 L66.22,143.463 L66.394,137.486 L61.726,149 L60.29,149 L55.633,137.516 L55.818,143.463 L55.818,149 L53.943,149 L53.943,134.78 L56.365,134.78 L56.365,134.781 Z M72.981,147.468 L79.721,147.468 L79.721,149 L71.097,149 L71.097,134.78 L72.982,134.78 L72.982,147.467 L72.981,147.468 Z M81.631,150.222 L80.077,150.222 L86.014,134.782 L87.557,134.782 L81.63,150.222 L81.631,150.222 Z M99.945,144.49 C99.769,145.994 99.215,147.155 98.28,147.972 C97.345,148.789 96.103,149.197 94.553,149.197 C92.873,149.197 91.528,148.595 90.515,147.391 C89.503,146.185 88.997,144.574 88.997,142.556 L88.997,141.188 C88.997,139.868 89.233,138.705 89.705,137.702 C90.177,136.702 90.845,135.932 91.712,135.394 C92.577,134.856 93.58,134.588 94.719,134.588 C96.229,134.588 97.439,135.008 98.351,135.853 C99.263,136.697 99.793,137.863 99.943,139.355 L98.06,139.355 C97.896,138.222 97.543,137.401 97,136.895 C96.456,136.385 95.696,136.132 94.72,136.132 C93.52,136.132 92.582,136.574 91.902,137.459 C91.222,138.344 90.882,139.604 90.882,141.239 L90.882,142.615 C90.882,144.158 91.204,145.385 91.848,146.297 C92.493,147.207 93.394,147.664 94.553,147.664 C95.595,147.664 96.393,147.428 96.951,146.956 C97.508,146.484 97.878,145.662 98.061,144.49 L99.945,144.49 L99.945,144.49 Z M106.385,142.664 C104.777,142.202 103.607,141.634 102.875,140.96 C102.142,140.286 101.775,139.454 101.775,138.465 C101.775,137.345 102.225,136.419 103.119,135.687 C104.014,134.954 105.179,134.587 106.609,134.587 C107.586,134.587 108.457,134.777 109.222,135.154 C109.988,135.532 110.582,136.054 111.002,136.717 C111.42,137.381 111.63,138.107 111.63,138.895 L109.746,138.895 C109.746,138.035 109.472,137.36 108.926,136.868 C108.378,136.378 107.606,136.131 106.611,136.131 C105.685,136.131 104.964,136.333 104.447,136.741 C103.929,137.147 103.67,137.711 103.67,138.435 C103.67,139.015 103.915,139.505 104.407,139.905 C104.897,140.305 105.735,140.671 106.917,141.003 C108.097,141.335 109.023,141.701 109.69,142.103 C110.357,142.503 110.852,142.969 111.174,143.503 C111.497,144.037 111.658,144.665 111.658,145.388 C111.658,146.54 111.208,147.463 110.31,148.156 C109.412,148.85 108.21,149.196 106.707,149.196 C105.73,149.196 104.819,149.009 103.972,148.636 C103.126,148.26 102.472,147.748 102.014,147.096 C101.554,146.446 101.326,145.706 101.326,144.88 L103.21,144.88 C103.21,145.738 103.528,146.417 104.163,146.915 C104.797,147.413 105.645,147.662 106.707,147.662 C107.697,147.662 108.455,147.46 108.982,147.057 C109.509,146.653 109.772,146.103 109.772,145.407 C109.772,144.71 109.529,144.171 109.042,143.79 C108.552,143.41 107.667,143.033 106.384,142.662 L106.385,142.664 Z M117.943,142.664 C116.335,142.202 115.165,141.634 114.433,140.96 C113.7,140.286 113.333,139.454 113.333,138.465 C113.333,137.345 113.781,136.419 114.676,135.687 C115.571,134.954 116.736,134.587 118.166,134.587 C119.144,134.587 120.016,134.777 120.78,135.154 C121.544,135.532 122.136,136.054 122.556,136.717 C122.976,137.381 123.186,138.107 123.186,138.895 L121.3,138.895 C121.3,138.035 121.028,137.36 120.48,136.868 C119.934,136.378 119.163,136.131 118.166,136.131 C117.242,136.131 116.521,136.333 116.003,136.741 C115.486,137.147 115.227,137.711 115.227,138.435 C115.227,139.015 115.473,139.505 115.964,139.905 C116.456,140.305 117.292,140.671 118.474,141.003 C119.656,141.335 120.58,141.701 121.248,142.103 C121.915,142.503 122.41,142.969 122.732,143.503 C123.054,144.037 123.215,144.665 123.215,145.388 C123.215,146.54 122.765,147.463 121.868,148.156 C120.968,148.85 119.768,149.196 118.264,149.196 C117.288,149.196 116.376,149.009 115.53,148.636 C114.683,148.26 114.03,147.748 113.572,147.096 C113.112,146.446 112.882,145.706 112.882,144.88 L114.768,144.88 C114.768,145.738 115.085,146.417 115.72,146.915 C116.355,147.413 117.203,147.662 118.264,147.662 C119.254,147.662 120.012,147.46 120.54,147.057 C121.067,146.653 121.33,146.103 121.33,145.407 C121.33,144.71 121.086,144.171 120.598,143.79 C120.11,143.41 119.224,143.033 117.942,142.662 L117.943,142.664 Z" id="HTML/CSS"></path>
        </g>
    </g>
</svg>