<?xml version="1.0" encoding="utf-8"?>
<!-- Generator: Adobe Illustrator 19.0.1, SVG Export Plug-In . SVG Version: 6.00 Build 0)  -->
<svg version="1.1" id="Layer_1" xmlns="http://www.w3.org/2000/svg" xmlns:xlink="http://www.w3.org/1999/xlink" x="0px" y="0px"
	 width="130.1px" height="153.4px" viewBox="0 0 130.1 153.4" style="enable-background:new 0 0 130.1 153.4;" xml:space="preserve"
	>
<style type="text/css">
	.st0{fill:#657488;}
</style>
<g>
	<g>
		<path class="st0" d="M127.9,124.4c-0.3-8.9-1.7-22.1-10.2-27.4c-9.7-6-20.9-0.5-26.2,8.6c-6.8,11.7-6.3,29.2-2.5,41.7
			c0.1,0.2,0.1,0.3,0.2,0.4c-0.7,0.3-1.3,0.6-1.9,1.1c-1.1,0.7-0.8,2.9,0.7,2.7c1.9-0.2,4.6,0.5,6.6,0.6c3.7,0,7.4,0.3,11.1,0.4
			c4.8,0.2,14,2.5,17.9-0.9c0.7-0.6,0.8-1.8,0.2-2.6c0.4,0,0.8-0.1,1.1-0.3C130.2,144.9,128.1,129.9,127.9,124.4L127.9,124.4z
			 M117.5,107c-1.8-2.2-4-4.1-6.8-5.5C113.3,102,115.7,103.7,117.5,107L117.5,107z M93.9,146.5c0-0.2,0-0.3,0-0.5
			c-0.2-0.8-0.3-1.6-0.4-2.4c1.8,2,4.2,3.4,6.3,2.3c0.4,0.2,0.8,0.3,1.1,0.5C98.6,146.2,96.2,146.2,93.9,146.5L93.9,146.5z
			 M93.9,146.5"/>
		<path class="st0" d="M118.3,50.5c-9.6-6.1-22-0.3-26.9,9.1c-3.2,6.1-2,12.7,1.5,17.8c0.1,0.2,0.1,0.3,0.2,0.5
			c1,2.1,2.7,3.7,4.8,4.8c1.8,1.4,3.8,2.5,5.9,3.2c0.3,1.3,1.3,2.5,3,2.6c10.1,0.7,21.5-2.7,23.1-14.2C131.2,65,126,55.4,118.3,50.5
			L118.3,50.5z M123.7,73.4c-0.1,0.9-0.4,1.8-0.7,2.6c0.5-3.8,0.3-8-0.8-11.7C123.5,67.1,124.2,70.3,123.7,73.4L123.7,73.4z
			 M123.7,73.4"/>
		<path class="st0" d="M113.9,5c0-2.2-1.7-3.4-3.7-3.7c-20-2.7-41-0.8-61,0.3C39,2.2,28.8,2.8,18.6,4c-4.3,0.5-9,0.9-11.8,4.6
			C6,9.7,6.3,11,7.1,12C-2.8,17.2,0.5,48,0.7,55c0.7,24.5,2.1,49.4,5.5,73.7c0.4,2.6,2.7,2.9,4.6,2c0.8,1.4,2.6,1.6,3.8,0.7
			c8.1,3.2,17.8,3.5,26.3,3.9c9.4,0.4,25.1,2.5,33.1-3.5c0.9-0.7,1.4-1.8,1.3-2.8c1.1,0.9,2.7-0.7,2.1-2c-1.5-3,0.4-11.5,1.2-14.8
			c1.8-7.8,6.5-13.8,9-21.2c0-0.1,0-0.3,0.1-0.4c1.1-0.8,1.7-2.5,0.5-3.9c-12.8-16.2-6.3-50.3,18.7-47.2c2.2,0.3,3.5-1.4,3.8-3.3
			c0.9-0.1,1.7-0.6,2-1.7C115.1,24.9,113.9,15,113.9,5L113.9,5z M12.1,43.1c20.9,1.5,41.7,0.8,62.7,0.4c-1,1.4-1.9,2.9-2.7,4.4
			c-20,1.1-40.1,1.2-60,2.7C12,48.1,12,45.6,12.1,43.1L12.1,43.1z M74.6,68.7c-0.4-0.1-0.8-0.2-1.1-0.3c0.2-1.5,0.6-3,1.1-4.5
			C74.5,65.5,74.5,67.1,74.6,68.7L74.6,68.7z M12.7,66.4c-0.1-2.2-0.3-4.4-0.4-6.6c4.9,2,10.6,2.2,16.3,2.5
			c12.3,0.6,25.5,1.3,37.9,0.2c-0.4,1.9-0.7,3.7-0.9,5.6c-6.3,0.6-13.2,2.6-18,3.1c-10.4,1.1-23.8,2.7-34.6,0.1
			C12.9,69.7,12.8,68.1,12.7,66.4L12.7,66.4z M48.5,88c-11.3,0-22.6,0.5-33.9,1.5c-0.2-2.8-0.5-5.7-0.7-8.5
			c7.2,2.8,18.6,1.4,25.4,1.9c9.4,0.8,18.9,1.2,28.3,0.7c0.5,1.3,1.2,2.6,1.9,3.9C62.5,87.2,55.1,88,48.5,88L48.5,88z M98.5,23.2
			c-0.1,1.1-0.4,2.4-0.5,3.6c-3.3,0.6-6.4,1.8-9.4,3.5c-25.2-0.7-50.7,1.7-75.8,3c0.4-3.2,1.6-6.4,2.9-9.6C31,21.8,46.5,21,62,20.3
			c11.3-0.5,24.9,1.3,36.8-0.1C98.7,21.1,98.6,22.2,98.5,23.2L98.5,23.2z M100.4,9.1C96.3,8.9,92.1,8.7,88,8.7
			c4.3-0.1,8.7-0.1,13-0.1C100.8,8.7,100.6,8.9,100.4,9.1L100.4,9.1z M107,21.6c-0.1-0.4-0.1-0.8-0.2-1.2c0.1-0.6,0.1-1.2,0.2-1.9
			c0.1,0,0.2,0,0.3-0.1c0.1,1.7,0.2,3.4,0.3,5.1C107.4,22.9,107.2,22.2,107,21.6L107,21.6z M107,21.6"/>
	</g>
</g>
</svg>
