<?xml version="1.0" encoding="UTF-8"?>
<svg width="150px" height="151px" viewBox="0 0 150 151" version="1.1" xmlns="http://www.w3.org/2000/svg" xmlns:xlink="http://www.w3.org/1999/xlink">
    <!-- Generator: Sketch 45 (43475) - http://www.bohemiancoding.com/sketch -->
    <title>design</title>
    <desc>Created with Sketch.</desc>
    <defs></defs>
    <g id="Page-1" stroke="none" stroke-width="1" fill="none" fill-rule="evenodd">
        <g id="design" transform="translate(0.000000, -1.000000)" fill-rule="nonzero" fill="#657488">
            <g id="Group" transform="translate(61.000000, 0.000000)">
                <path d="M69.4,54.7 C70,53.5 70.4,52.3 70.8,51 C71.2,49.7 72.1,48.3 72.7,47 C73.8,44.7 74.7,42.2 75.5,39.8 C76.5,36.9 78.1,34 79.4,31.2 C80.2,29.4 81.1,27.6 82,25.9 C82.2,25.4 82,24.8 81.5,24.6 L81.3,24.5 C81,24.4 80.7,24.4 80.5,24.5 C76.9,22.6 73.2,20.9 69.4,19.4 C67.6,18.7 65.7,17.9 63.8,17.4 C61.7,16.9 59.8,16 57.7,15.4 C53,14 48.3,12.6 43.7,10.8 C41.6,10 39.3,9.5 37.2,8.9 C34.9,8.2 32.6,7.5 30.5,6.5 C30.3,6.4 30.2,6.4 30.1,6.4 C29.8,6.4 29.4,6.5 29.2,7 C28.3,9.1 27.7,11.4 27.1,13.6 C26.3,16.4 25.1,19.1 24.2,21.9 C23.4,24.4 22.2,26.8 21.2,29.3 C20.3,31.7 19.4,34.3 18.3,36.6 C17.7,37.9 16.3,40.3 16.9,41.9 C17.6,43.9 20.6,44.4 22.4,44.8 C27.9,46 33.2,47.8 38.6,49.5 L47,52.2 C49.9,53.1 52.7,54.5 55.5,55.6 C57.9,56.5 60.4,57.5 62.7,58.6 C63.7,59.1 65.8,60.2 66.9,59.4 C68.1,58.5 68.7,56.1 69.4,54.7 L69.4,54.7 Z M67.3,54.5 C66.9,55.4 66.4,56.3 66,57.2 C65.9,57.3 65.9,57.4 65.8,57.5 C65.4,57.4 64.9,57.4 64.5,57.3 C63.9,57.1 63.4,56.8 62.8,56.5 C61.7,56 60.5,55.6 59.3,55.1 C56.8,53.9 54.2,53 51.6,51.9 C48.9,50.8 46.2,50 43.5,49.1 C41,48.2 38.5,47.4 36,46.6 C33.6,45.8 31.1,44.6 28.6,44.2 C26.1,43.8 23.7,43 21.2,42.4 C20.4,42.2 19.8,41.9 19.1,41.6 C18.1,41.1 18.6,40.4 18.9,39.8 C19.4,38.7 19.8,37.5 20.3,36.4 C21.3,34.1 22.1,31.7 23,29.4 C24,26.9 25.1,24.5 26,22 C26.8,19.5 27.8,17.1 28.6,14.6 C29.2,12.6 29.7,10.5 30.4,8.6 C34.2,10.2 38.3,11.3 42.3,12.4 C47,13.6 51.7,15.4 56.3,17 C64.2,19.7 72,22.3 79.4,26.2 L79.5,26.3 C78.5,28.3 77.5,30.4 76.6,32.4 C75.6,34.7 74,37.2 73.4,39.6 C72.7,42.2 71.3,44.8 70.3,47.3 C69.3,49.8 68.4,52.2 67.3,54.5 L67.3,54.5 Z" id="Shape"></path>
                <path d="M76.3,69.7 C77,67.9 74.3,67.4 73.2,67 C72.3,66.7 71.4,66.4 70.5,66 C70.8,65.7 71,65.3 71.3,64.9 C72.5,62.4 73.5,59.8 74.6,57.3 C77,52.2 78.5,47 80.4,41.7 C80.9,40.3 81.3,39 81.8,37.6 C82.2,36.3 83.1,35.1 83.6,33.9 C84.7,31.5 86,29.2 87,26.7 C87.5,25.6 87.9,24.3 88.3,23.1 C88.5,22.5 88.7,21.6 88.5,21 C87.8,19 85.1,18.4 83.3,17.6 C79.2,15.7 74.9,14.4 70.6,12.9 C65.6,11.1 60.6,9.3 55.5,7.7 C52.7,6.9 50,5.9 47,5.4 C45.6,5.2 44.4,4.6 43,4.4 C41.8,4.2 40.6,4 39.3,3.6 C36.8,2.9 34.3,1.8 31.7,1.6 C30,1.5 28.3,1.3 26.6,1.3 C26.4,1 26,0.9 25.6,1.1 C22.2,2.8 21.2,7.4 20.4,10.7 C19.3,15 16.9,19 15.7,23.3 C14.4,27.9 12.7,32.4 10.6,36.7 C9.3,39.3 7.7,42 9,44.3 C8.8,44.2 8.6,44.2 8.4,44.1 C7,43.6 5.3,42.6 3.8,43.5 C3.2,43.9 3,44.8 2.7,45.4 C2.3,46.4 1.8,47.3 1.4,48.3 C1,49.4 0.1,51.6 1.5,52.4 C3.3,53.4 5.3,54 7.1,54.9 C9.9,56.3 12.7,57 15.7,57.9 C18.2,58.7 20.9,59.8 23.3,60.9 C25.9,62.1 28.7,63.1 31.3,64.2 C33.6,65.1 36.1,66 38.5,66.6 C41,67.3 43.4,68.2 45.9,68.7 C48.4,69.3 50.9,70.3 53.5,71 C56.7,71.9 60.2,72.2 63.3,73.6 C64.2,74 65.2,74.4 66.2,74.7 C67.3,75 68.5,75.6 69.6,75.9 C71.1,76.2 72.7,77.1 73.7,75.6 C75,73.7 75.6,71.7 76.3,69.7 L76.3,69.7 Z M17.5,24.2 C17.9,22.3 18.8,20.7 19.5,18.9 C20.1,17.2 20.7,15.5 21.4,13.9 C22,12.3 22.5,10.7 22.9,9 C23.3,7.3 24.3,4.4 25.9,3.2 C27.7,3.1 29.8,3.2 31.5,3.5 C33.7,3.9 35.8,4.6 37.9,5.2 C42.6,6.5 47.5,7.1 52.1,8.8 C54.4,9.7 56.9,10.2 59.2,11.1 C61.4,11.9 63.9,12.4 65.9,13.4 C67.9,14.3 70,14.8 72.1,15.5 C74.1,16.2 76.2,16.8 78.2,17.6 C80.2,18.3 82,19.2 83.8,20.1 C85,20.7 87,21.1 86.4,22.9 C86,24.1 85.5,25.4 85,26.6 C83.1,31 80.7,35.1 79.2,39.6 C77.6,44.2 76.4,49 74.3,53.4 L71.2,60 C70.5,61.6 70,63.4 69,64.8 C68.5,64.6 68,64.8 67.8,65.2 C60.1,62.3 52.3,59.4 44.5,56.9 C33.5,53.4 22.4,49.8 11.9,45 C11.9,44.8 11.7,44.6 11.5,44.5 C9.7,43.2 10.5,41.5 11.3,39.8 C12.1,38 13,36.3 13.8,34.5 C15.2,30.9 16.6,27.7 17.5,24.2 Z M67.3,72.9 C64.7,72.2 62.4,71 59.8,70.4 C56.8,69.7 53.7,69.1 50.8,68 C45.8,66.2 40.7,65.1 35.7,63.4 C33.2,62.5 30.7,61.6 28.2,60.6 C25.6,59.6 23,58.3 20.2,57.4 C18.4,56.9 16.8,56 15,55.5 C13,54.9 11.1,54.4 9.2,53.6 C7.7,52.9 6.3,52.2 4.8,51.5 C4.3,51.3 3.7,51.2 3.2,51 C2.6,50.7 3,50.2 3.2,49.6 C3.7,48.3 4.2,47.1 4.8,45.9 C5.2,45 5.4,45.1 6.3,45.4 C6.9,45.7 7.6,45.8 8.2,46 C9.5,46.5 10.7,46.9 12.1,47.3 C12.9,47.5 13.6,48.1 14.3,48 L14.5,48 C24.2,52.2 34.4,55.5 44.5,58.7 C54.3,61.8 63.7,65.8 73.4,69.1 C73.6,69.2 73.8,69.2 73.9,69.3 C74.1,69.4 74.2,69.5 74.3,69.5 C74.2,69.8 74,70.1 74,70.4 C73.8,71.6 73,72.7 72.5,73.8 L72.3,74.2 C71.9,74.1 71.4,74.1 71,74 C69.7,73.7 68.5,73.3 67.3,72.9 L67.3,72.9 Z" id="Shape"></path>
            </g>
            <path d="M93.7,17.1 C92.5,19.6 93.9,22.5 95.9,24.2 C98.6,26.6 101.1,25.8 103.2,23.1 C104.6,21.2 105.6,17.9 103,16.5 C101.1,15.5 96,14.9 94.7,17 C94.3,17.7 95.3,18.3 95.8,17.6 C96.5,16.4 100.5,16.9 101.6,17.3 C104.5,18.1 103.4,21.2 101.9,22.8 C101,23.8 99.8,24.8 98.2,24.3 C97.5,24.1 96.9,23.5 96.4,23 C95.1,21.7 94,19.6 94.9,17.8 C95.1,17 94,16.4 93.7,17.1 L93.7,17.1 Z M110,22.9 C115.9,24.4 121,27.9 127,29.2 C127.8,29.4 128.1,28.2 127.3,28 C121.4,26.7 116.3,23.2 110.3,21.7 C109.5,21.5 109.2,22.7 110,22.9 Z" id="Shape"></path>
            <g id="Group" transform="translate(108.000000, 25.000000)">
                <path d="M1.1,1.1 C1.6,0.9 2.2,1.2 2.6,1.5 C5.3,3 8.2,4.2 11.2,4.8" id="Shape"></path>
                <path d="M1.1,1.7 C2.6,1.6 4.6,3.2 6,3.8 C7.7,4.5 9.4,5 11.1,5.4 C11.9,5.6 12.2,4.4 11.4,4.2 C9.2,3.7 7.2,3 5.2,2.1 C3.9,1.5 2.6,0.4 1.1,0.5 C0.3,0.5 0.3,1.8 1.1,1.7 Z" id="Shape"></path>
            </g>
            <g id="Group" transform="translate(91.000000, 28.000000)">
                <path d="M1,1.4 C4.2,2.7 7.6,3.6 10.9,4.6 C18.7,6.9 26.4,9.9 33.8,13.3" id="Shape"></path>
                <path d="M0.9,2 C11.8,6.1 22.9,8.9 33.5,13.8 C34.2,14.1 34.9,13.1 34.1,12.7 C23.4,7.8 12.2,4.9 1.2,0.8 C0.5,0.6 0.1,1.8 0.9,2 L0.9,2 Z" id="Shape"></path>
            </g>
            <g id="Group-2" transform="translate(0.000000, 17.000000)">
                <g id="Group">
                    <path d="M20.3,0.8 L28,0.8 C34.1,0.8 36.5,2.4 37.3,7.6 C38,11.8 38.5,16.1 38.6,20.3 C38.8,29.3 38.7,38.2 38.6,47.2 C38.6,50.3 38.1,53.4 37.6,56.5 C37.5,57.3 36.5,58.3 35.6,58.6 C26.8,61.6 17.5,61.5 8.3,61.3 C2.3,61.2 1.5,60.1 1.4,55 C1.2,45.8 0.6,36.5 0.4,27.3 C0.2,20.3 0.1,13.3 0.1,6.3 C0.1,3.4 0.8,2.5 4.1,2.2 C9.1,1.6 14.3,1.3 20.3,0.8 Z M3.3,45.8 L3,45.8 L3,54.9 C3,58.4 4,59.5 8,59.6 C13.8,59.7 19.6,59.5 25.4,59.1 C27.6,59 29.7,57.9 31.9,57.7 C34.4,57.5 36,56.7 36.1,54.3 C36.5,45.1 37.2,36 37.1,26.8 C37.1,20.1 36.2,13.4 35.3,6.8 C34.7,2.8 33.3,2 28.6,2.1 C21.7,2.2 14.9,2.4 8,2.7 C2.5,3 2.1,3.6 2.1,8.3 C2.1,14.9 1.8,21.4 2,28 C2.1,34 2.8,39.9 3.3,45.8 L3.3,45.8 Z" id="Shape"></path>
                    <path d="M23,42.9 C19.5,42.9 15.9,43 12.4,42.9 C9,42.8 7.3,41.7 7,38.6 C6.6,34.5 6.7,30.4 6.5,26.3 C6.2,21.5 5.9,16.8 5.6,12.1 C5.6,11.7 5.6,11.4 5.5,11 C4.4,7.6 5.6,5.7 9.5,5.7 C15.8,5.7 22.1,6 28.4,6.5 C32.2,6.8 33.4,8.3 33.8,11.6 C34.5,16.5 35.4,21.5 35.8,26.4 C36.2,30.7 36.7,35 35,39.2 C33.9,41.8 32.7,42.9 29.5,42.9 C28.4,42.9 27.4,42.8 26.3,42.8 C25.1,42.9 24,43 23,42.9 C23,43 23,42.9 23,42.9 L23,42.9 Z M8.2,28 L7.9,28 C8.2,31.5 8.4,35.1 8.8,38.6 C9,40.3 10,41.3 12.2,41.3 C17.9,41.3 23.7,41.4 29.4,41.4 C31.6,41.4 33.4,40.5 33.6,38.4 C33.9,34.5 34.3,30.6 34,26.8 C33.7,22 32.8,17.2 32.3,12.4 C32,9.6 31.2,8.4 28.2,8.2 C22.5,7.7 16.8,7.7 11,7.5 C7.6,7.4 6.8,8.2 7.1,11.2 C7.4,16.7 7.8,22.4 8.2,28 Z M21.9,55.9 C20.8,55.6 19.5,55.4 18.5,54.9 C16.6,54.1 15.3,52.9 15.8,50.8 C16.5,48 17.7,47 20.5,47 C22.3,47 24.4,47.1 25.9,47.8 C27.9,48.7 28.2,50.7 27.6,52.6 C26.9,54.5 24.3,55.8 21.9,55.9 Z M22,54.1 C24.2,54.1 26.3,52.6 26.3,51 C26.3,49.4 24.6,48.3 22.3,48.3 C19.3,48.3 17.5,49.5 17.5,51.5 C17.5,52.9 19.6,54.1 22,54.1 Z" id="Shape"></path>
                </g>
                <path d="M14.1,11.8 C9.7,12.1 12.7,20.5 14.1,22.5 C16.4,25.8 22.1,28.4 25.2,24.7 C27.5,21.9 31.9,14.4 27.5,11.7 C24.9,10.1 21.4,10 18.4,9.9 C15.9,9.8 13.4,9.7 12.2,12.3 C11.9,13 12.9,13.7 13.3,12.9 C14.8,9.8 22.3,11.2 24.7,11.9 C27.2,12.6 28.5,13.7 27.9,16.5 C27.5,18.2 26.6,19.9 25.7,21.4 C24.5,23.6 22.9,25.6 20.1,25 C18.4,24.6 16.8,23.7 15.7,22.4 C15,21.6 11.2,13.2 14.1,13 C14.9,13 14.9,11.8 14.1,11.8 Z" id="Shape"></path>
                <g id="Group" transform="translate(13.000000, 29.000000)">
                    <path d="M1.4,2.1 C6.3,1.4 11.3,1.2 16.3,1.5 L1.4,2.1 Z M1.5,2.7 C6.4,2 11.3,1.8 16.2,2.1 C17,2.1 17,0.9 16.2,0.8 C11.1,0.5 6.1,0.7 1.1,1.4 C0.4,1.6 0.7,2.8 1.5,2.7 Z" id="Shape"></path>
                </g>
                <g id="Group" transform="translate(15.000000, 34.000000)">
                    <path d="M1,1 C4.8,1.1 8.6,1.1 12.4,1.2 L1,1 Z M1,1.6 C4.8,1.7 8.6,1.7 12.4,1.8 C13.2,1.8 13.2,0.6 12.4,0.5 C8.6,0.5 4.8,0.4 1,0.3 C0.2,0.4 0.2,1.6 1,1.6 Z" id="Shape"></path>
                </g>
            </g>
            <g id="Group" transform="translate(44.000000, 68.000000)">
                <g id="Shape">
                    <path d="M44.4,27.3 C45.8,25.4 47.1,23.3 48.2,21.2 C48.7,20.3 49.1,19.4 49.4,18.5 C49.6,17.9 49.7,17.4 49.7,16.8 L49.7,15.9 C49.4,12.8 46,10.8 43.8,9.3 C41.6,7.8 39.4,6.2 37.1,4.7 C35.1,3.4 33.1,1.9 31,0.9 C28.5,-0.2 26,0.1 23.8,1.6 C21.2,3.4 19.4,6.3 17.8,8.9 C15.2,12.9 12.2,16.5 9.4,20.3 C7,23.4 4.1,27 3.2,31 C2.9,32.1 3.1,33.1 3.4,34.1 C3.5,34.3 3.6,34.6 3.7,34.8 L3.7,34.9 C3.7,35.2 3.6,35.4 3.5,35.7 C3.1,36.8 2,37.5 0.9,37.9 C0.6,38 0.6,38.5 0.9,38.6 C1.6,38.8 2.4,38.9 3.2,39 C3.5,39 3.8,39.1 4,39.1 C5.7,39.3 7.4,39.5 8.8,40.1 C10.9,40.9 18.4,46.4 20.5,47.7 C22.2,48.8 23.9,49.8 26.1,49.6 C28,49.5 30.5,46.7 34.4,40.6 C37.5,35.9 41.2,31.8 44.4,27.3 L44.4,27.3 Z M25.4,49 C23.1,48.8 20.5,46.7 18.5,45.5 C17.6,45 11.8,40.6 11.2,40.2 C10.7,40 10.2,39.7 9.7,39.5 C8.2,38.8 6.2,38.6 4.4,38.4 C4.1,38.4 3.9,38.3 3.6,38.3 L2.1,38 C2.8,37.6 3.3,37.1 3.8,36.5 C4,36.2 4.1,35.9 4.2,35.6 C4.2,35.4 4.3,35.1 4.3,34.9 C4.3,34.7 4.2,34.4 4.2,34.2 C4.2,34.1 4.1,34 4.1,34 C4,33.7 3.9,33.5 3.8,33.2 C3.7,33 3.7,32.7 3.7,32.5 C3.6,31.1 4.2,29.7 4.8,28.5 C7.1,23.7 10.8,19.5 14,15.4 C16.2,12.5 18.1,9.4 20.2,6.4 C22,3.8 24.4,1 27.8,1 C29.8,1 31.6,2.1 33.3,3.2 C35.8,4.8 38.2,6.4 40.6,8.1 C43.2,9.9 47.8,12.1 48.8,15.5 C48.9,15.9 49,16.4 49,16.9 L49,17.3 C48.8,19.6 47,22 45.9,23.8 C44.4,26.2 42.7,28.5 41,30.7 C37.8,34.8 34.7,38.9 31.9,43.3 C31.2,44.4 30.5,45.5 29.6,46.4 C29.7,46.4 27.6,49.1 25.4,49 L25.4,49 Z"></path>
                    <path d="M34.2,11.3 C34.7,10.6 35.1,9.3 34.5,8.6 C33.4,7 31.5,6.4 29.9,5.3 C29,4.7 28.1,4 27,4.2 C26.9,4.1 23.1,8.7 22.2,10.5 C21.4,12 25.9,14.3 27.4,15.5 C28.5,16.3 29.4,16.2 30.5,15.4 C32.1,14.3 33.2,12.7 34.2,11.3 L34.2,11.3 Z M29.6,5.8 C30.5,6.4 31.5,6.9 32.5,7.6 C33,7.9 33.3,8.2 33.5,8.5 C32,8.4 30.5,8.9 29.1,9.3 C28.7,7.8 28,6.4 27.6,4.9 L27.6,4.8 C28.3,4.8 29,5.4 29.6,5.8 Z M26.9,5 C27.2,6.5 27.9,8 28.4,9.5 C26.8,9.9 25.1,9.9 23.6,10.6 C23.6,9.8 26,5.9 26.9,5 Z M27.6,14.6 C26.6,13.9 25.6,13.3 24.6,12.6 C24,12.2 23.7,11.8 23.6,11.3 C25.1,10.5 26.9,10.6 28.5,10.2 C28.8,11.8 28.5,13.5 28.7,15.1 C28.4,15 28,14.8 27.6,14.6 L27.6,14.6 Z M30.8,14.2 C30.3,14.6 29.9,14.9 29.4,15 C29.2,13.3 29.5,11.6 29.2,9.9 C30.7,9.5 32.3,9 33.8,9.1 C34.2,11 32.2,12.9 30.8,14.2 L30.8,14.2 Z M45.7,16.4 C43.5,14.3 40.7,13.1 38.4,11.3 C38,11 37.6,11.6 38,11.9 C40.3,13.7 43.1,14.9 45.2,16.9 C45.5,17.1 46,16.7 45.7,16.4 Z M44.5,18.3 C43.4,17.6 42.3,16.9 41.3,16.2 C40,15.3 38.4,14.5 37.3,13.3 C37,13 36.4,13.4 36.7,13.7 C37.6,14.6 38.7,15.3 39.7,16 C41.1,17 42.6,18 44.1,18.9 C44.5,19.2 44.9,18.6 44.5,18.3 L44.5,18.3 Z M43.1,20.8 C40.5,19.2 37.9,17.5 35.4,15.6 C35,15.3 34.6,15.9 35,16.2 C37.5,18 40.1,19.7 42.7,21.4 C43,21.6 43.5,21 43.1,20.8 Z M41.5,23.2 C40.8,22.3 35,19.3 33.9,17.9 C33.6,17.6 33,18 33.3,18.3 C35.9,20.5 39.4,22.6 40.9,23.6 C41.3,23.9 41.7,23.6 41.5,23.2 Z M37.9,28.2 C35,26 22.2,18.3 19.3,15.6 C19,15.3 18.5,15.9 18.9,16.2 C21.6,18.7 34.4,26.4 37.5,28.8 C37.8,29 38.2,28.5 37.9,28.2 L37.9,28.2 Z M35.5,30.9 C32.7,28.9 20.5,20.7 17.3,18.3 C16.9,18 16.5,18.6 16.9,18.9 C19.9,21.1 32.1,29.3 35.1,31.5 C35.5,31.8 35.9,31.2 35.5,30.9 Z M31,37.2 C24.6,33.4 18.5,28.9 12.5,24.4 C12.1,24.1 11.7,24.7 12.1,25 C18.1,29.5 24.2,34 30.6,37.8 C31,38 31.4,37.4 31,37.2 Z M28.2,40.3 C25.1,38.5 13.3,29.4 10,27.2 C9.6,26.9 9.2,27.5 9.6,27.8 C12.7,29.9 24.5,39 27.8,40.9 C28.2,41.1 28.6,40.5 28.2,40.3 L28.2,40.3 Z M26.2,43.5 C23.7,41.1 20.6,39.4 17.8,37.3 C17.4,37 17,37.6 17.4,37.9 C20.1,40 23.2,41.6 25.7,43.9 C26,44.3 26.6,43.8 26.2,43.5 L26.2,43.5 Z M23.9,25.4 C22.3,24.2 17.8,21.1 16.3,19.9 C16.1,19.8 15.6,20 15.5,20.1 C14.2,21.6 14.9,22 16.5,22.9 C17.8,23.7 19.1,24.7 20.3,25.5 C20.8,25.9 22.1,27.3 22.8,27.2 C23.6,27.2 24.2,25.6 23.9,25.4 Z M18.6,23.7 C17.9,23.2 17.3,22.7 16.5,22.3 C15.7,21.8 15.4,21.4 16,20.7 C17.5,21.8 22.9,25.5 23.4,25.7 C23.5,25.8 23,26.6 23,26.6 C22.9,26.7 18.9,23.9 18.6,23.7 Z"></path>
                </g>
            </g>
            <path d="M19.65,147 L19.65,132.78 L23.664,132.78 C24.901,132.78 25.994,133.055 26.944,133.602 C27.896,134.148 28.63,134.926 29.147,135.936 C29.665,136.946 29.927,138.104 29.934,139.412 L29.934,140.32 C29.934,141.66 29.674,142.837 29.157,143.846 C28.64,144.856 27.901,145.63 26.94,146.17 C25.98,146.71 24.862,146.987 23.586,147 L19.65,147 L19.65,147 Z M21.525,134.324 L21.525,145.467 L23.498,145.467 C24.943,145.467 26.068,145.017 26.872,144.119 C27.676,143.219 28.078,141.939 28.078,140.279 L28.078,139.449 C28.078,137.836 27.698,136.581 26.94,135.686 C26.182,134.79 25.106,134.336 23.713,134.323 L21.525,134.323 L21.525,134.324 Z M36.559,147.194 C35.126,147.194 33.961,146.724 33.062,145.784 C32.164,144.844 31.715,143.584 31.715,142.01 L31.715,141.678 C31.715,140.63 31.915,139.694 32.315,138.87 C32.715,138.047 33.275,137.402 33.995,136.937 C34.715,136.471 35.495,136.237 36.335,136.237 C37.708,136.237 38.775,136.691 39.537,137.597 C40.299,138.501 40.68,139.797 40.68,141.482 L40.68,142.234 L33.522,142.234 C33.548,143.276 33.852,144.118 34.435,144.759 C35.018,145.399 35.759,145.719 36.657,145.719 C37.295,145.719 37.837,145.589 38.277,145.329 C38.721,145.069 39.107,144.724 39.44,144.294 L40.544,145.154 C39.658,146.514 38.33,147.194 36.559,147.194 L36.559,147.194 Z M36.334,137.724 C35.604,137.724 34.994,137.988 34.498,138.519 C34.002,139.049 33.696,139.792 33.578,140.749 L38.872,140.749 L38.872,140.612 C38.82,139.694 38.572,138.982 38.13,138.478 C37.687,137.973 37.088,137.721 36.333,137.721 L36.334,137.724 Z M48.614,144.197 C48.614,143.709 48.43,143.33 48.062,143.06 C47.694,142.79 47.052,142.557 46.138,142.36 C45.223,142.166 44.498,141.932 43.96,141.658 C43.423,141.385 43.026,141.058 42.768,140.682 C42.511,140.304 42.383,139.855 42.383,139.334 C42.383,138.468 42.749,137.736 43.481,137.137 C44.214,136.537 45.151,136.237 46.289,136.237 C47.489,136.237 48.459,136.547 49.205,137.167 C49.95,137.785 50.323,138.577 50.323,139.539 L48.507,139.539 C48.507,139.043 48.297,138.617 47.877,138.259 C47.457,137.901 46.927,137.722 46.29,137.722 C45.633,137.722 45.12,137.865 44.748,138.152 C44.378,138.438 44.191,138.812 44.191,139.274 C44.191,139.711 44.365,140.039 44.711,140.261 C45.055,140.481 45.678,140.694 46.581,140.895 C47.481,141.097 48.211,141.338 48.771,141.618 C49.331,141.898 49.747,142.234 50.017,142.628 C50.287,143.022 50.423,143.502 50.423,144.068 C50.423,145.012 50.045,145.768 49.29,146.338 C48.534,146.908 47.554,147.193 46.35,147.193 C45.503,147.193 44.754,147.043 44.103,146.743 C43.453,146.445 42.943,146.026 42.575,145.489 C42.207,144.953 42.023,144.372 42.023,143.747 L43.83,143.747 C43.862,144.353 44.105,144.833 44.557,145.187 C45.01,145.542 45.607,145.72 46.349,145.72 C47.032,145.72 47.581,145.582 47.994,145.306 C48.407,145.029 48.614,144.66 48.614,144.196 L48.614,144.197 Z M54.43,147 L52.624,147 L52.624,136.434 L54.43,136.434 L54.43,147 Z M52.477,133.63 C52.477,133.338 52.567,133.09 52.747,132.89 C52.925,132.687 53.19,132.586 53.542,132.586 C53.892,132.586 54.16,132.686 54.342,132.889 C54.525,133.089 54.616,133.337 54.616,133.629 C54.616,133.923 54.526,134.167 54.343,134.362 C54.16,134.558 53.893,134.655 53.543,134.655 C53.19,134.655 52.925,134.558 52.746,134.362 C52.566,134.167 52.476,133.922 52.476,133.63 L52.477,133.63 Z M56.584,141.63 C56.584,139.982 56.964,138.672 57.726,137.698 C58.488,136.725 59.496,136.238 60.754,136.238 C62.044,136.238 63.049,136.694 63.771,137.605 L63.861,136.435 L65.511,136.435 L65.511,146.745 C65.511,148.113 65.105,149.191 64.295,149.979 C63.485,150.765 62.395,151.159 61.028,151.159 C60.266,151.159 59.521,150.996 58.792,150.671 C58.064,150.345 57.507,149.899 57.122,149.333 L58.06,148.249 C58.835,149.206 59.782,149.685 60.902,149.685 C61.782,149.685 62.466,149.437 62.958,148.942 C63.448,148.448 63.695,147.752 63.695,146.852 L63.695,145.944 C62.972,146.778 61.985,147.194 60.735,147.194 C59.499,147.194 58.498,146.696 57.733,145.7 C56.969,144.705 56.587,143.348 56.587,141.63 L56.584,141.63 Z M58.4,141.834 C58.4,143.024 58.644,143.961 59.133,144.642 C59.621,145.322 60.303,145.662 61.183,145.662 C62.323,145.662 63.159,145.145 63.693,144.109 L63.693,139.284 C63.14,138.274 62.31,137.77 61.203,137.77 C60.323,137.77 59.637,138.113 59.143,138.797 C58.647,139.48 58.4,140.493 58.4,141.834 L58.4,141.834 Z M69.635,136.434 L69.695,137.762 C70.501,136.746 71.555,136.238 72.858,136.238 C75.091,136.238 76.218,137.498 76.238,140.018 L76.238,147 L74.43,147 L74.43,140.008 C74.424,139.246 74.25,138.683 73.908,138.318 C73.566,137.954 73.034,137.771 72.311,137.771 C71.726,137.771 71.211,137.929 70.769,138.241 C70.326,138.554 69.981,138.964 69.734,139.471 L69.734,147 L67.927,147 L67.927,136.434 L69.637,136.434 L69.635,136.434 Z M93.59,132.781 L93.59,142.451 C93.584,143.791 93.162,144.888 92.326,145.741 C91.489,146.594 90.356,147.073 88.922,147.177 L88.424,147.197 C86.868,147.197 85.628,146.777 84.704,145.937 C83.779,145.097 83.31,143.941 83.297,142.47 L83.297,132.78 L85.153,132.78 L85.153,142.41 C85.153,143.44 85.436,144.238 86.003,144.808 C86.569,145.378 87.376,145.662 88.423,145.662 C89.485,145.662 90.298,145.379 90.861,144.812 C91.425,144.246 91.707,143.449 91.707,142.42 L91.707,132.78 L93.591,132.78 L93.59,132.781 Z M98.253,147 L96.378,147 L96.378,132.78 L98.253,132.78 L98.253,147 Z M101.451,148.22 L99.9,148.22 L105.836,132.78 L107.379,132.78 L101.449,148.22 L101.451,148.22 Z M119.319,132.78 L119.319,142.45 C119.312,143.79 118.891,144.887 118.054,145.74 C117.217,146.593 116.084,147.072 114.651,147.176 L114.153,147.196 C112.597,147.196 111.356,146.776 110.433,145.936 C109.507,145.096 109.039,143.94 109.026,142.469 L109.026,132.779 L110.881,132.779 L110.881,142.409 C110.881,143.439 111.164,144.237 111.731,144.807 C112.297,145.377 113.104,145.661 114.153,145.661 C115.213,145.661 116.026,145.378 116.589,144.811 C117.152,144.245 117.434,143.448 117.434,142.419 L117.434,132.779 L119.319,132.779 L119.319,132.78 Z M126.609,138.23 L130.017,132.78 L132.224,132.78 L127.732,139.832 L132.332,147 L130.106,147 L126.61,141.453 L123.094,147 L120.877,147 L125.487,139.832 L120.985,132.782 L123.182,132.782 L126.61,138.23 L126.609,138.23 Z" id="Design-UI/UX"></path>
        </g>
    </g>
</svg>