<?xml version="1.0" encoding="utf-8"?>
<!-- Generator: Adobe Illustrator 19.0.1, SVG Export Plug-In . SVG Version: 6.00 Build 0)  -->
<svg version="1.1" id="Layer_1" xmlns="http://www.w3.org/2000/svg" xmlns:xlink="http://www.w3.org/1999/xlink" x="0px" y="0px"
	 width="149.9px" height="114.1px" viewBox="0 0 149.9 114.1" style="enable-background:new 0 0 149.9 114.1;" xml:space="preserve"
	>
<style type="text/css">
	.st0{fill:#657488;}
</style>
<g>
	<g>
		<path class="st0" d="M148.4,28.5c-0.6-6.9,1.5-17.4-0.7-23.7c-0.2-0.5-0.7-1-1.2-1.1c0,0,0,0,0,0c-3.2-4.5-12.1-3.1-16.8-3.2
			c-14.9-0.3-29.9-0.2-44.8-0.2c-27.1,0-55-1.3-82,1.1c-1.1,0.1-1.5,1-1.3,1.8c-0.8,0.5-1.3,1.3-1,2.5c4,17.7,4.2,36.1,3.8,54.1
			c-0.2,8.7-0.8,17.4-1.7,26c-0.7,6.9-3.8,14.8-2.2,21.6c0.4,1.6,2.8,2.5,4,1.3c9.7,6.7,30.7,4,41.5,4.4c13.2,0.5,26.3,0.9,39.6,0.8
			c14.3-0.1,28.6-0.3,42.9-1.1c4.6-0.2,15.4,0.8,17.8-4.7c0.4-1,0.2-2-0.3-2.8c1.2-3.5,0.7-7.6,0.7-11.4c-0.2-12.8,2.9-25.2,3.3-38
			C150.2,46.8,149.2,37.7,148.4,28.5L148.4,28.5z M29.1,7c15.6,0.8,31.3,0.7,47,0.7c15.1,0.1,30.3,0,45.4,0.2
			c2.9,0,7.7-0.3,12.2-0.5c-5.7,5.6-11.1,14.3-14.1,17.7C109.2,36.9,87.5,65.3,70,56.7c-14.3-7-25-24.2-35.8-35.5
			C29.9,16.7,23.7,9.8,16.9,6.6C21.1,6.8,25.3,6.8,29.1,7L29.1,7z M17.7,14.6c6.6,5.2,12.2,12,17.7,18.4
			c6.1,6.9,12.6,15.9,20.3,22.8c-2.1,1.5-4,3.4-5.8,5.1C43.4,66.7,37.2,72.9,31,79c-6.6,6.4-14.2,11.4-21.3,17.1
			c2.4-11.9,1.6-26.9,1.9-36.2c0.5-16.6,0.2-34.8-4.9-50.9C9.3,11.4,15,12.5,17.7,14.6L17.7,14.6z M117.7,106
			c-12.5,0.5-25,0.6-37.5,0.7c-11.5,0.1-22.8-0.4-34.3-0.8c-8.3-0.3-16.5-0.5-24.7-0.9c-3.5-0.1-7.3-0.7-10.9-0.6
			c6.3-3,14.5-10.7,17.6-13.1c6.7-5.2,12.6-11.8,18.8-17.7c4.5-4.3,10.7-8.4,15.1-13.1c2.3,1.5,4.7,2.8,7.2,3.8
			c8.7,3.3,16.9,0.6,24.3-4.2c8.2,8,15.9,16.3,23.3,25c5.1,6,10.6,15.7,17.3,21.1C128,106.5,121,105.9,117.7,106L117.7,106z
			 M139.9,81.1c-0.7,4.5-0.8,8.5-0.7,13c0,1.8,0.1,3.6,0,5.4c0,0.6,0,1.1,0,1.6c-4.4-7.6-12.8-14.8-18.1-20.6
			c-7.5-8.2-15.6-16-24.3-22.9c5.2-3.9,9.9-8.6,13.9-12.6c6.2-6.2,12.2-12.5,17.9-19.1c2.7-3.1,8.5-12.6,12.7-16.4
			c-2.8,9.4,0.7,27.3,1,32.7C143.3,55.3,141.8,68.1,139.9,81.1L139.9,81.1z M139.9,81.1"/>
	</g>
</g>
</svg>
