<?xml version="1.0" encoding="UTF-8"?>
<svg width="150px" height="150px" viewBox="0 0 150 150" version="1.1" xmlns="http://www.w3.org/2000/svg" xmlns:xlink="http://www.w3.org/1999/xlink">
    <!-- Generator: Sketch 45 (43475) - http://www.bohemiancoding.com/sketch -->
    <title>graphic</title>
    <desc>Created with Sketch.</desc>
    <defs></defs>
    <g id="Page-1" stroke="none" stroke-width="1" fill="none" fill-rule="evenodd">
        <g id="graphic" transform="translate(-13.000000, -1.000000)" fill-rule="nonzero" fill="#657488">
            <path d="M44.3,79.9 C44.2,79.7 44.1,79.5 44.1,79.4 C43.7,78.5 44,77.8 44.7,77.1 C45.4,76.5 46.1,76.6 46.7,77.1 C47.2,77.5 47.7,77.5 48.3,77.2 C52.3,75.5 56.4,73.8 60.4,72 C60.6,71.9 60.8,71.7 60.8,71.6 C60.9,70.3 62.1,70.2 62.9,69.5 C63.4,69.1 64.1,68.5 64.2,67.9 C64.4,66 65.6,64.9 66.8,63.8 C70.5,60.5 74.7,60.1 79.2,61.8 C81.8,62.8 84.4,63.7 87,64.7 C87.4,64.8 87.8,65.2 87.9,65.6 C88,65.8 87.5,66.2 87.3,66.5 C86.1,67.8 84.9,69.1 83.7,70.5 C82.6,71.7 81.6,73 80.6,74.2 C79.3,75.8 77.8,77 75.8,77.6 C73.8,78.1 71.8,79.2 69.6,78.4 C68.7,78.1 68,78.2 67.2,78.7 C66.5,79.1 65.6,79.5 64.7,78.8 C64.6,78.7 64.2,78.7 64,78.8 C62.7,79.4 61.5,80 60.2,80.7 C57.7,82.1 55.2,83.6 52.7,85.1 C52.4,85.3 52.2,85.7 52.1,86.1 C51.7,87.3 50.6,88.2 49.4,87.1 C48.1,85.9 47,87.1 46,87.6 C42.8,89.3 39.7,91.1 36.6,92.9 C35.4,93.6 34.3,94.4 33.1,95.1 C28.9,97.4 24.7,99.5 20.6,102 C17.2,104 13.3,104.8 9.7,106.4 C8.4,107 7.4,106.8 6.4,106.4 C6.1,106.3 5.8,105.9 5.6,105.5 C4.8,103.6 4.9,102.6 6.7,101.2 C9.3,99.1 12,97.2 14.8,95.4 C17.2,93.8 19.7,92.3 22.3,90.9 C24.5,89.7 26.9,88.9 29.2,87.8 C32.6,86.1 35.9,84.3 39.3,82.6 C40.7,81.6 42.5,80.8 44.3,79.9 L44.3,79.9 Z M44.8,81.2 C42.8,82.1 40.9,82.9 39.1,83.8 C36.8,84.9 34.6,86.2 32.3,87.3 C28.6,89.1 24.8,90.8 21,92.6 C19.5,93.3 18,94.2 16.6,95.1 C14.7,96.3 12.7,97.6 10.9,99 C9.5,100.1 8,101.3 6.8,102.6 C6.4,103.1 6.3,104.3 6.6,104.9 C6.9,105.6 7.8,105.6 8.6,105.2 C10,104.6 11.5,104.3 12.9,103.8 C15,103 17.2,102.2 19.2,101.3 C21.5,100.3 23.6,99 25.8,97.9 C28,96.7 30.1,95.6 32.3,94.4 C34.9,92.9 37.4,91.3 39.9,89.8 C42.1,88.5 44.3,87.4 46.4,86.1 C46.7,86 46.9,85.4 46.8,85.1 C46.3,83.8 45.6,82.6 44.8,81.2 L44.8,81.2 Z M63.8,77.4 C63.2,76.2 62.3,75.1 61.9,73.9 C61.6,73 61.3,72.9 60.5,73.3 C58.2,74.3 55.9,75.2 53.7,76.2 C52.2,76.9 50.6,77.6 49.1,78.3 C48.9,78.4 48.6,78.9 48.7,79.1 C49.3,80.6 50,82.1 50.7,83.5 C51.1,84.3 51.7,84.3 52.5,83.9 C56.2,81.7 59.9,79.6 63.8,77.4 Z M83,67.4 L82.8,67.2 C82.3,67.3 81.8,67.3 81.4,67.4 C78.3,67.8 75.2,68.3 72.5,69.9 C71.7,70.3 70.8,70.7 70.3,71.3 C69.7,72 69.4,73 69.2,74 C69.1,74.4 69.7,75.2 70,75.2 C70.8,75.3 71.8,75.3 72.5,74.9 C76.2,73 79.5,70.6 82.7,68 C82.7,68 82.8,67.7 83,67.4 L83,67.4 Z M83,66.2 L83,65.9 C82.8,65.8 82.7,65.8 82.5,65.7 C79.9,65.5 77.2,65.1 74.6,65.1 C72.8,65.1 70.9,65.1 69.3,66.5 C67.6,68 66.8,69.9 66.9,72 C66.9,72.5 67.3,73.1 67.6,73.9 C68.1,72.8 68.4,72 68.8,71.2 C69.8,69.6 71.5,69 73.1,68.4 C75.3,67.6 77.7,67.2 80.1,66.7 C80.9,66.5 82,66.4 83,66.2 L83,66.2 Z M65.4,72.3 C65.6,71.4 65.7,70.5 65.9,69.6 C66.7,66.9 68.2,64.9 71.2,64.5 C73.2,64.3 75.2,64.1 77.2,64.1 C78.8,64.1 80.4,64.3 82.2,64.4 C81.8,64.1 81.5,63.8 81.1,63.6 C79.8,63.2 78.5,62.7 77.2,62.5 C75.6,62.3 74,62.2 72.4,62.4 C69.9,62.7 68.1,64.3 66.5,66.1 C64.9,67.9 65.2,70.1 65.4,72.3 L65.4,72.3 Z M82.6,69.7 L82.3,69.4 C80.5,70.8 78.7,72.2 76.8,73.5 C74.7,74.9 72.7,76.7 69.9,76.5 C69.6,76.5 69.3,76.5 68.9,76.6 C69.1,76.8 69.2,76.8 69.3,76.9 C70.4,77.4 71.6,77.4 72.7,77 C74.5,76.3 76.6,76.2 78,74.7 C79.6,73 81.1,71.4 82.6,69.7 L82.6,69.7 Z M51.1,86.2 C50.2,84.6 49.3,83.1 48.5,81.6 C47.9,80.6 47.4,79.6 46.8,78.6 C46.6,78.3 45.9,78.1 45.6,78.2 C45,78.4 45.1,78.9 45.4,79.4 C46.3,81.1 47.2,82.9 48.1,84.6 C48.5,85.7 50,86.4 51.1,86.2 L51.1,86.2 Z M66.9,77.5 C64.5,76 63.9,73.7 63.6,71.2 C62.8,71.2 62.3,71.4 62.7,72.2 C63.6,74 64.5,75.7 65.5,77.5 C65.8,78.1 66.3,77.8 66.9,77.5 Z M65.6,72.8 C65.5,74.4 66.8,76.1 68.4,76.1 C67.4,74.9 66.5,73.9 65.6,72.8 Z" id="Shape" transform="translate(46.517427, 83.797127) rotate(-18.000000) translate(-46.517427, -83.797127) "></path>
            <g id="Group" transform="translate(12.000000, 0.000000)">
                <path d="M49.2765957,20.6808511 C49.2765957,17.6170213 48.1276596,14.5531915 46.3404255,11.8723404 C40.212766,15.5744681 34.0851064,19.2765957 29.106383,22.9787234 L29.106383,3.06382979 C18.6382979,2.93617021 9.95744681,11.7446809 9.57446809,22.3404255 C9.31914894,27.5744681 11.4893617,32.1702128 14.9361702,36.1276596 C18.5106383,40.0851064 24.6382979,41.2340426 29.7446809,41.2340426 C32.4255319,41.2340426 35.2340426,40.9787234 37.787234,40.0851064 C40.5957447,39.1914894 42.5106383,37.5319149 44.5531915,35.4893617 C46.212766,33.8297872 48,31.6595745 48.6382979,29.4893617 C49.4042553,26.5531915 49.2765957,23.6170213 49.2765957,20.6808511 L49.2765957,20.6808511 Z M46.4680851,26.8085106 C46.212766,29.4893617 44.5531915,31.787234 42.7659574,33.7021277 C39.0638298,37.4042553 35.106383,38.5531915 29.8723404,38.6808511 C25.4042553,38.6808511 20.0425532,37.787234 16.9787234,34.3404255 C13.9148936,30.893617 12.2553191,27.0638298 12.3829787,22.4680851 C12.3829787,18 14.9361702,12.893617 18.2553191,9.95744681 C20.8085106,7.78723404 23.6170213,6.5106383 26.8085106,6 C26.8085106,6.76595745 26.9361702,7.53191489 26.9361702,8.29787234 C26.9361702,10.212766 26.8085106,12 26.8085106,13.9148936 C26.8085106,17.6170213 26.5531915,21.5744681 26.8085106,25.2765957 C26.9361702,26.4255319 28.212766,27.0638298 29.106383,26.1702128 C31.9148936,23.3617021 34.8510638,20.8085106 38.2978723,18.7659574 C40.4680851,17.4893617 42.893617,16.212766 44.8085106,14.5531915 C45.8297872,16.4680851 46.4680851,18.5106383 46.5957447,20.6808511 C46.7234043,22.5957447 46.7234043,24.7659574 46.4680851,26.8085106 L46.4680851,26.8085106 Z" id="Shape"></path>
                <path d="M45.3191489,10.3404255 C45.4468085,10.7234043 45.7021277,11.106383 45.8297872,11.4893617 C45.5744681,11.106383 45.4468085,10.7234043 45.3191489,10.3404255 C44.4255319,9.19148936 43.4042553,8.17021277 42.2553191,7.27659574 C39.3191489,4.9787234 34.4680851,1.40425532 30.5106383,2.93617021 C30.3829787,2.93617021 30.2553191,3.06382979 30.2553191,3.06382979 L29.2340426,3.06382979 L29.2340426,5.4893617 C30.2553191,5.36170213 31.4042553,5.4893617 32.4255319,5.4893617 C32.5531915,5.36170213 32.5531915,5.36170213 32.5531915,5.23404255 C33.0638298,5.23404255 33.5744681,5.36170213 34.0851064,5.4893617 C33.9574468,5.61702128 33.9574468,5.61702128 33.9574468,5.74468085 C38.1702128,6.5106383 41.8723404,8.68085106 44.1702128,12.5106383 C44.2978723,12.6382979 44.4255319,12.6382979 44.5531915,12.7659574 C44.4255319,12.6382979 44.2978723,12.6382979 44.1702128,12.5106383 C44.2978723,12.6382979 44.4255319,12.893617 44.4255319,13.0212766 C45.0638298,12.6382979 45.7021277,12.2553191 46.4680851,11.8723404 L45.3191489,10.3404255 L45.3191489,10.3404255 Z M15.5744681,43.1489362 C15.4468085,42.7659574 15.3191489,42.3829787 15.0638298,41.8723404 C14.9361702,41.4893617 14.5531915,40.9787234 14.5531915,40.7234043 C14.4255319,39.0638298 11.8723404,38.9361702 11.8723404,40.7234043 L11.8723404,40.8510638 C10.0851064,39.4468085 8.68085106,37.9148936 7.40425532,35.8723404 C5.74468085,33.3191489 4.72340426,30.3829787 3.95744681,27.4468085 C3.57446809,26.0425532 3.82978723,24.2553191 3.82978723,22.7234043 C3.82978723,20.9361702 3.95744681,19.1489362 4.21276596,17.3617021 C4.72340426,14.5531915 6.5106383,10.4680851 8.55319149,8.29787234 C9.70212766,7.0212766 7.78723404,5.10638298 6.63829787,6.38297872 C4.59574468,8.55319149 3.06382979,12 2.04255319,14.8085106 C0.765957447,18.6382979 1.14893617,22.8510638 1.14893617,26.8085106 C1.14893617,30.3829787 3.44680851,34.0851064 5.10638298,37.1489362 C6.5106383,39.8297872 8.55319149,41.7446809 10.9787234,43.4042553 C10.7234043,43.4042553 10.4680851,43.2765957 10.212766,43.2765957 C8.55319149,43.1489362 8.55319149,45.8297872 10.212766,45.9574468 C11.8723404,46.0851064 14.4255319,47.6170213 15.5744681,45.8297872 C15.9574468,45.3191489 15.8297872,43.787234 15.5744681,43.1489362 L15.5744681,43.1489362 Z M56.6808511,12.3829787 C56.2978723,10.8510638 55.2765957,9.19148936 54.5106383,7.78723404 C53.7446809,6.38297872 52.7234043,5.23404255 51.8297872,4.08510638 L52.0851064,4.08510638 C52.8510638,4.46808511 54.1276596,4.08510638 54.1276596,2.93617021 L54.1276596,2.80851064 C54.1276596,2.29787234 53.7446809,1.65957447 53.106383,1.53191489 C52.0851064,1.40425532 50.8085106,1.0212766 49.6595745,1.0212766 L49.0212766,1.0212766 C48.7659574,1.0212766 48.5106383,1.0212766 48.3829787,1.14893617 C47.8723404,1.27659574 47.6170213,1.53191489 47.3617021,1.91489362 C47.106383,2.17021277 46.8510638,2.42553191 46.8510638,2.93617021 C46.8510638,3.44680851 46.7234043,3.82978723 46.5957447,4.21276596 C46.4680851,4.46808511 46.3404255,4.72340426 46.212766,5.10638298 C45.8297872,6.76595745 48.2553191,7.53191489 48.7659574,5.87234043 C48.7659574,5.74468085 48.893617,5.61702128 48.893617,5.4893617 C48.893617,5.36170213 49.0212766,5.23404255 49.0212766,5.23404255 C50.2978723,7.27659574 51.9574468,9.06382979 53.106383,11.3617021 C54.5106383,14.2978723 55.4042553,17.4893617 55.9148936,20.8085106 C56.5531915,24.2553191 56.4255319,28.4680851 55.6595745,31.787234 C55.2765957,33.5744681 54.7659574,34.9787234 53.7446809,36.5106383 C53.106383,37.5319149 52.3404255,39.8297872 51.3191489,40.5957447 C50.8085106,40.7234043 50.4255319,41.106383 50.4255319,41.8723404 L50.4255319,42 C50.4255319,43.0212766 51.5744681,43.6595745 52.4680851,43.1489362 C53.6170213,42.5106383 54.2553191,41.2340426 54.7659574,40.212766 C55.6595745,38.6808511 56.9361702,37.1489362 57.4468085,35.3617021 C58.7234043,31.6595745 58.8510638,27.9574468 58.8510638,24.1276596 C58.9787234,19.787234 57.7021277,16.212766 56.6808511,12.3829787 L56.6808511,12.3829787 Z" id="Shape"></path>
            </g>
            <path d="M111.7,12.4 L97.3,58 C95.4,64.1 93.5,70.1 91.4,76.1 C90.7,78.1 90.6,79.7 92.6,80.7 C94.4,81.6 96.4,82.1 98.3,82.8 C103.3,84.6 108.3,86.4 113.4,88.2 C118.9,90.1 124.4,92 129.9,93.6 C132,94.2 134.1,94.8 136.2,95.2 C137.3,95.4 138.7,95.8 139.9,95.5 C141.7,95 142.5,92.3 143.1,90.8 C144.7,87.1 146,83.4 147.3,79.6 C150.8,69.5 154.1,59.2 157.2,48.9 C158.5,44.7 159.8,40.4 161,36.2 C161.6,34 162.5,31.7 162.8,29.4 C163.1,27.1 160.4,26.1 158.8,25.3 C154.8,23.4 150.5,21.9 146.2,20.5 C136.6,17.3 126.9,14.6 117.2,11.8 C116.1,11.5 114.9,11.2 113.8,10.8 C113,10.6 112.5,11.2 112.6,11.8 C112.2,11.8 111.9,12 111.7,12.4 L111.7,12.4 Z M136.3,19.4 C141.3,20.9 146.2,22.5 151.1,24.3 C154.1,25.4 157.7,26.4 160.3,28.5 C160.5,28.6 160.7,28.8 160.8,29 L160.8,29.2 C160.5,30.1 160.4,31.1 160.1,32 C159.2,35.4 158.2,38.8 157.2,42.2 C154.3,51.9 151.3,61.6 148.1,71.3 C146.6,75.7 145.2,80.1 143.6,84.4 C142.6,87.2 141.6,90.1 140.2,92.7 C140,93 139.9,93.3 139.6,93.6 C139.5,93.7 139.7,93.7 139.4,93.7 C138,93.8 136.6,93.4 135.3,93.1 C130.5,92 125.8,90.4 121.2,88.9 C115.8,87.1 110.5,85.2 105.2,83.3 C103,82.5 100.9,81.7 98.7,81 L96.3,80.1 C95.4,79.8 93.9,79.6 93.3,78.9 C92.4,77.9 94.5,73.8 95,72.3 C96,69.1 97.1,65.8 98.1,62.6 C103,46.3 108.1,30.2 113.2,14 C113.3,13.7 113.4,13.3 113.5,13 L113.5,12.8 C121.2,15.1 128.8,17.1 136.3,19.4 Z" id="Shape"></path>
            <path d="M99.6,74 C101,74.8 102.7,75.2 104.3,75.8 C108.4,77.3 112.5,78.7 116.6,80.2 C121,81.7 125.4,83.2 129.9,84.5 C132.1,85.1 135.6,86.6 137.9,86 C139.4,85.6 140,83.5 140.6,82.3 C141.9,79.4 142.9,76.4 143.9,73.4 C146.8,65.3 149.4,57 151.9,48.8 C153,45.3 154,41.9 155,38.4 C155.5,36.6 156.3,34.6 156.5,32.7 C156.6,30.9 154.6,30 153.2,29.3 C150,27.7 146.5,26.6 143.1,25.5 C135.4,22.9 127.6,20.7 119.8,18.5 C118.9,18.2 117.9,18 117,17.7 C116.3,17.5 115.8,18 115.8,18.6 C115.5,18.7 115.3,18.9 115.2,19.2 C111.3,31.4 107.5,43.7 103.6,55.9 L98.8,70.6 C98.1,71.8 98.1,73.1 99.6,74 L99.6,74 Z M134.8,24.8 C138.7,26 142.6,27.2 146.4,28.6 C148.9,29.5 151.7,30.4 154,32 C154.1,32.1 154.3,32.2 154.4,32.3 L154.4,32.4 C154.2,33.2 154,33.9 153.8,34.7 C153.1,37.4 152.3,40.2 151.5,42.9 C149.2,50.7 146.8,58.4 144.2,66.2 C143,69.7 141.8,73.3 140.5,76.8 C139.7,79 138.9,81.3 137.8,83.3 C137.7,83.5 137.5,83.8 137.3,84.1 L137.2,84.1 C136.1,84.2 135,83.9 133.9,83.6 C130,82.7 126.2,81.4 122.4,80.2 C118.1,78.8 113.9,77.3 109.7,75.8 C107.9,75.2 106.2,74.5 104.4,73.9 C103.5,73.6 100.7,73 100.2,72.2 C99.8,71.5 101.4,68 101.8,66.9 C102.6,64.3 103.5,61.7 104.3,59.1 C108.4,46.2 112.5,33.4 116.5,20.5 C116.6,20.2 116.7,19.9 116.8,19.7 C122.8,21.4 128.9,23 134.8,24.8 L134.8,24.8 Z M119.6,82.7 C119,82 117.9,81.8 117.1,82.1 C116.4,82.3 115.8,82.9 115.8,83.7 C115.8,84.4 116.2,85 116.8,85.3 C117.3,85.6 117.9,85.6 118.4,85.5 C118.7,85.6 119.1,85.5 119.3,85.3 C120.1,84.6 120.3,83.5 119.6,82.7 Z M117.8,83.6 C117.7,83.6 117.7,83.6 117.8,83.6 C117.7,83.5 117.7,83.5 117.8,83.6 C117.7,83.5 117.7,83.6 117.8,83.6 Z" id="Shape"></path>
            <path d="M109.5,56.3 C113.4,52.1 118.6,48.5 123.5,45.5 C122.9,45.3 122.3,45 121.7,44.8 C122.4,47.6 122.5,50.2 122.1,53.2 C121.9,54.3 122.9,55.1 123.9,54.6 C126.7,53.4 129.4,52.1 132.1,50.7 C133.1,50.2 134.2,49.3 135.3,49 C136.4,47.7 137,47.7 137.2,48.9 C137.6,49.7 137.7,50.6 137.7,51.5 C137.8,52.3 138.4,52.9 139.3,52.7 C140.8,52.4 141.4,51 142.4,49.9 C144.5,47.5 146.7,45.2 149.1,43 C150.3,41.9 148.5,40.2 147.3,41.2 C145.6,42.8 143.9,44.4 142.3,46.1 C141.5,46.9 139.7,50 138.6,50.3 C139.1,50.7 139.7,51.1 140.2,51.5 C140,49.6 140,47.1 139.3,45.4 C139.1,44.9 138.4,44.7 137.9,44.8 C135.9,45.1 133.5,47.2 131.7,48.2 C128.8,49.8 125.8,51.2 122.8,52.6 C123.4,53.1 124,53.5 124.6,54 C125.1,50.6 125,47.7 124.2,44.3 C124,43.5 123,43.1 122.4,43.6 C117.3,46.7 112,50.4 107.9,54.8 C106.6,55.7 108.4,57.5 109.5,56.3 L109.5,56.3 Z" id="Shape"></path>
            <path d="M35.148,144.96 C34.668,145.65 33.994,146.166 33.132,146.508 C32.269,146.85 31.265,147.021 30.119,147.021 C28.959,147.021 27.929,146.751 27.031,146.207 C26.133,145.663 25.438,144.89 24.946,143.887 C24.456,142.885 24.202,141.723 24.189,140.401 L24.189,139.161 C24.189,137.018 24.689,135.358 25.689,134.181 C26.689,133.001 28.093,132.411 29.903,132.411 C31.388,132.411 32.583,132.791 33.487,133.551 C34.392,134.308 34.947,135.384 35.147,136.777 L33.272,136.777 C32.922,134.897 31.802,133.955 29.912,133.955 C28.657,133.955 27.704,134.395 27.057,135.278 C26.409,136.161 26.082,137.438 26.075,139.111 L26.075,140.273 C26.075,141.869 26.44,143.136 27.169,144.077 C27.899,145.017 28.884,145.487 30.129,145.487 C30.831,145.487 31.446,145.41 31.974,145.254 C32.501,145.098 32.937,144.834 33.282,144.464 L33.282,141.27 L29.992,141.27 L29.992,139.744 L35.147,139.744 L35.147,144.959 L35.148,144.96 Z M42.79,137.88 C42.517,137.834 42.22,137.812 41.9,137.812 C40.716,137.812 39.912,138.316 39.49,139.325 L39.49,146.825 L37.683,146.825 L37.683,136.26 L39.44,136.26 L39.47,137.48 C40.062,136.535 40.902,136.063 41.99,136.063 C42.34,136.063 42.608,136.109 42.79,136.2 L42.79,137.88 L42.79,137.88 Z M50.275,146.825 C50.171,146.617 50.085,146.245 50.021,145.712 C49.181,146.584 48.181,147.022 47.016,147.022 C45.974,147.022 45.119,146.726 44.452,146.137 C43.786,145.547 43.452,144.8 43.452,143.897 C43.452,142.795 43.87,141.941 44.707,141.332 C45.544,140.722 46.72,140.419 48.237,140.419 L49.995,140.419 L49.995,139.589 C49.995,138.955 49.805,138.452 49.429,138.079 C49.051,137.704 48.494,137.519 47.759,137.519 C47.114,137.519 46.574,137.679 46.139,138.005 C45.701,138.33 45.483,138.725 45.483,139.185 L43.668,139.185 C43.668,138.659 43.855,138.15 44.228,137.658 C44.604,137.168 45.112,136.778 45.753,136.49 C46.393,136.204 47.098,136.06 47.866,136.06 C49.084,136.06 50.036,136.365 50.726,136.974 C51.418,137.582 51.776,138.421 51.802,139.488 L51.802,144.353 C51.802,145.323 51.922,146.093 52.172,146.667 L52.172,146.821 L50.276,146.821 L50.275,146.825 Z M47.277,145.448 C47.844,145.448 48.381,145.302 48.889,145.008 C49.394,144.716 49.762,144.335 49.989,143.866 L49.989,141.698 L48.574,141.698 C46.36,141.698 45.254,142.346 45.254,143.642 C45.254,144.208 45.444,144.652 45.82,144.97 C46.2,145.29 46.684,145.448 47.276,145.448 L47.277,145.448 Z M63.249,141.658 C63.249,143.268 62.879,144.563 62.143,145.546 C61.408,146.529 60.413,147.021 59.155,147.021 C57.872,147.021 56.863,146.616 56.128,145.801 L56.128,150.891 L54.32,150.891 L54.32,136.261 L55.97,136.261 L56.058,137.433 C56.795,136.523 57.818,136.066 59.126,136.066 C60.396,136.066 61.399,136.546 62.138,137.502 C62.878,138.459 63.248,139.79 63.248,141.496 L63.248,141.662 L63.249,141.658 Z M61.439,141.454 C61.439,140.264 61.186,139.322 60.679,138.632 C60.171,137.942 59.474,137.597 58.589,137.597 C57.495,137.597 56.675,138.082 56.129,139.052 L56.129,144.102 C56.669,145.064 57.495,145.546 58.609,145.546 C59.474,145.546 60.162,145.202 60.674,144.516 C61.184,143.829 61.44,142.808 61.44,141.454 L61.439,141.454 Z M67.039,137.538 C67.839,136.555 68.883,136.063 70.166,136.063 C72.399,136.063 73.526,137.323 73.546,139.843 L73.546,146.825 L71.74,146.825 L71.74,139.833 C71.733,139.071 71.56,138.508 71.217,138.143 C70.877,137.779 70.343,137.597 69.621,137.597 C69.037,137.597 68.521,137.753 68.081,138.065 C67.637,138.378 67.291,138.788 67.045,139.295 L67.045,146.825 L65.238,146.825 L65.238,131.825 L67.045,131.825 L67.045,137.538 L67.039,137.538 Z M77.905,146.825 L76.1,146.825 L76.1,136.26 L77.907,136.26 L77.907,146.825 L77.905,146.825 Z M75.952,133.455 C75.952,133.163 76.042,132.915 76.22,132.715 C76.4,132.512 76.666,132.411 77.017,132.411 C77.369,132.411 77.637,132.514 77.817,132.716 C78,132.918 78.091,133.166 78.091,133.458 C78.091,133.751 78.001,133.995 77.819,134.19 C77.636,134.385 77.369,134.482 77.017,134.482 C76.667,134.482 76.4,134.386 76.221,134.19 C76.041,133.995 75.953,133.75 75.953,133.458 L75.952,133.455 Z M84.726,145.545 C85.371,145.545 85.934,145.351 86.416,144.96 C86.896,144.57 87.164,144.08 87.216,143.495 L88.926,143.495 C88.893,144.101 88.684,144.677 88.3,145.225 C87.917,145.771 87.404,146.207 86.763,146.532 C86.123,146.858 85.443,147.022 84.727,147.022 C83.287,147.022 82.144,146.54 81.294,145.58 C80.444,144.62 80.02,143.306 80.02,141.64 L80.02,141.337 C80.02,140.307 80.21,139.394 80.587,138.593 C80.965,137.793 81.507,137.17 82.213,136.728 C82.92,136.285 83.755,136.063 84.718,136.063 C85.903,136.063 86.888,136.418 87.672,137.128 C88.457,137.838 88.875,138.758 88.927,139.892 L87.217,139.892 C87.167,139.208 86.907,138.647 86.442,138.207 C85.976,137.767 85.402,137.547 84.718,137.547 C83.8,137.547 83.088,137.877 82.585,138.539 C82.08,139.199 81.828,140.153 81.828,141.403 L81.828,141.745 C81.828,142.963 82.078,143.9 82.58,144.558 C83.08,145.214 83.797,145.543 84.728,145.543 L84.726,145.545 Z M95.576,146.825 L95.576,132.605 L99.589,132.605 C100.827,132.605 101.921,132.88 102.871,133.427 C103.821,133.974 104.556,134.752 105.074,135.761 C105.591,136.771 105.854,137.931 105.86,139.239 L105.86,140.149 C105.86,141.489 105.603,142.664 105.085,143.673 C104.568,144.683 103.829,145.458 102.869,145.998 C101.909,146.538 100.789,146.815 99.513,146.828 L95.58,146.828 L95.576,146.825 Z M97.451,134.149 L97.451,145.289 L99.423,145.289 C100.868,145.289 101.993,144.839 102.797,143.942 C103.6,143.044 104.002,141.765 104.002,140.104 L104.002,139.274 C104.002,137.66 103.622,136.404 102.865,135.51 C102.105,134.616 101.03,134.16 99.637,134.148 L97.45,134.148 L97.451,134.149 Z M112.485,147.019 C111.052,147.019 109.887,146.549 108.989,145.609 C108.091,144.669 107.642,143.409 107.642,141.833 L107.642,141.501 C107.642,140.453 107.842,139.517 108.242,138.693 C108.642,137.87 109.202,137.225 109.922,136.76 C110.642,136.295 111.422,136.06 112.262,136.06 C113.635,136.06 114.702,136.515 115.464,137.42 C116.226,138.325 116.607,139.62 116.607,141.307 L116.607,142.059 L109.45,142.059 C109.476,143.099 109.78,143.941 110.363,144.582 C110.945,145.222 111.686,145.544 112.583,145.544 C113.223,145.544 113.763,145.414 114.205,145.154 C114.648,144.894 115.035,144.548 115.367,144.118 L116.471,144.978 C115.588,146.338 114.259,147.018 112.489,147.018 L112.485,147.019 Z M112.26,137.546 C111.53,137.546 110.92,137.811 110.425,138.342 C109.93,138.872 109.625,139.616 109.507,140.572 L114.8,140.572 L114.8,140.436 C114.75,139.519 114.502,138.806 114.06,138.303 C113.616,137.798 113.017,137.546 112.262,137.546 L112.26,137.546 Z M124.54,144.02 C124.54,143.533 124.357,143.154 123.99,142.884 C123.622,142.614 122.98,142.381 122.066,142.186 C121.151,141.99 120.426,141.756 119.888,141.482 C119.35,141.209 118.953,140.882 118.695,140.506 C118.438,140.128 118.31,139.679 118.31,139.158 C118.31,138.291 118.676,137.558 119.408,136.96 C120.141,136.36 121.078,136.06 122.216,136.06 C123.414,136.06 124.386,136.37 125.131,136.99 C125.877,137.608 126.251,138.4 126.251,139.362 L124.435,139.362 C124.435,138.867 124.225,138.442 123.805,138.082 C123.385,137.725 122.855,137.546 122.218,137.546 C121.56,137.546 121.046,137.689 120.675,137.976 C120.305,138.262 120.118,138.636 120.118,139.099 C120.118,139.535 120.291,139.864 120.636,140.085 C120.981,140.305 121.604,140.518 122.506,140.72 C123.408,140.923 124.139,141.163 124.698,141.443 C125.258,141.723 125.673,142.06 125.944,142.453 C126.214,142.848 126.349,143.328 126.349,143.895 C126.349,144.839 125.969,145.595 125.215,146.165 C124.46,146.735 123.48,147.02 122.275,147.02 C121.429,147.02 120.681,146.87 120.029,146.57 C119.379,146.272 118.869,145.854 118.501,145.316 C118.133,144.779 117.949,144.198 117.949,143.573 L119.756,143.573 C119.789,144.179 120.031,144.659 120.484,145.013 C120.936,145.369 121.534,145.546 122.276,145.546 C122.959,145.546 123.508,145.408 123.921,145.131 C124.335,144.856 124.541,144.487 124.541,144.024 L124.54,144.02 Z M130.357,146.824 L128.55,146.824 L128.55,136.26 L130.358,136.26 L130.358,146.825 L130.357,146.824 Z M128.403,133.454 C128.403,133.162 128.493,132.914 128.673,132.714 C128.851,132.511 129.116,132.41 129.468,132.41 C129.818,132.41 130.085,132.512 130.268,132.714 C130.45,132.916 130.541,133.164 130.541,133.456 C130.541,133.749 130.451,133.993 130.269,134.188 C130.086,134.384 129.819,134.481 129.469,134.481 C129.116,134.481 128.851,134.386 128.672,134.191 C128.492,133.995 128.402,133.751 128.402,133.458 L128.403,133.454 Z M132.51,141.454 C132.51,139.806 132.892,138.496 133.653,137.522 C134.415,136.549 135.423,136.062 136.681,136.062 C137.971,136.062 138.978,136.518 139.701,137.43 L139.788,136.26 L141.438,136.26 L141.438,146.57 C141.438,147.938 141.033,149.016 140.223,149.804 C139.413,150.591 138.323,150.984 136.957,150.984 C136.195,150.984 135.45,150.824 134.721,150.497 C133.991,150.172 133.435,149.727 133.051,149.159 L133.988,148.073 C134.763,149.03 135.71,149.509 136.83,149.509 C137.71,149.509 138.393,149.262 138.885,148.769 C139.375,148.273 139.622,147.576 139.622,146.679 L139.622,145.769 C138.9,146.603 137.912,147.019 136.662,147.019 C135.426,147.019 134.425,146.521 133.66,145.525 C132.895,144.529 132.513,143.172 132.513,141.453 L132.51,141.454 Z M134.327,141.658 C134.327,142.848 134.571,143.784 135.06,144.465 C135.548,145.145 136.232,145.485 137.11,145.485 C138.25,145.485 139.086,144.968 139.62,143.933 L139.62,139.108 C139.067,138.098 138.237,137.595 137.13,137.595 C136.25,137.595 135.564,137.935 135.07,138.62 C134.575,139.304 134.327,140.316 134.327,141.657 L134.327,141.658 Z M145.562,136.258 L145.622,137.585 C146.428,136.569 147.482,136.061 148.785,136.061 C151.018,136.061 152.145,137.321 152.165,139.841 L152.165,146.824 L150.357,146.824 L150.357,139.832 C150.351,139.072 150.177,138.508 149.835,138.142 C149.493,137.779 148.961,137.597 148.238,137.597 C147.652,137.597 147.138,137.753 146.695,138.065 C146.253,138.378 145.908,138.788 145.66,139.295 L145.66,146.825 L143.854,146.825 L143.854,136.26 L145.562,136.26 L145.562,136.258 Z" id="Graphic-Design"></path>
        </g>
    </g>
</svg>