<?xml version="1.0" encoding="UTF-8"?>
<svg width="150px" height="151px" viewBox="0 0 150 151" version="1.1" xmlns="http://www.w3.org/2000/svg" xmlns:xlink="http://www.w3.org/1999/xlink">
    <!-- Generator: Sketch 45 (43475) - http://www.bohemiancoding.com/sketch -->
    <title>illustrations</title>
    <desc>Created with Sketch.</desc>
    <defs></defs>
    <g id="Page-1" stroke="none" stroke-width="1" fill="none" fill-rule="evenodd">
        <g id="illustrations" transform="translate(-1.000000, 0.000000)" fill-rule="nonzero" fill="#657488">
            <g id="Group" transform="translate(72.000000, 0.000000)">
                <path d="M68.4137931,34.7586207 C69.1034483,32.8275862 70.7586207,30.6206897 70.0689655,28.4137931 C69.2413793,25.5172414 65.3793103,24.5517241 63.0344828,23.4482759 C56.2758621,20.4137931 49.1034483,18.4827586 42.0689655,16.2758621 C39.7241379,15.5862069 20.5517241,8 20.137931,9.51724138 C17.1034483,15.7241379 15.4482759,23.0344828 12.9655172,29.5172414 C12.2758621,31.4482759 10.6206897,33.6551724 11.3103448,35.862069 C12.2758621,38.7586207 16,39.7241379 18.3448276,40.8275862 C25.1034483,43.862069 32.2758621,45.7931034 39.3103448,48 C41.6551724,48.6896552 60.6896552,56.2758621 61.2413793,54.7586207 C64.4137931,48.5517241 65.9310345,41.2413793 68.4137931,34.7586207 L68.4137931,34.7586207 Z M19.1724138,17.5172414 C20,15.3103448 20.6896552,12.9655172 21.5172414,10.7586207 C23.862069,11.4482759 26.0689655,12.2758621 28.4137931,13.1034483 C33.1034483,14.7586207 37.7931034,16.4137931 42.6206897,18.0689655 C45.6551724,19.1724138 48.5517241,20.137931 51.5862069,21.2413793 C52.6896552,21.6551724 53.7931034,21.9310345 54.8965517,22.3448276 C55.0344828,22.3448276 55.1724138,22.4827586 55.3103448,22.4827586 L55.4482759,22.4827586 C55.5862069,22.4827586 55.7241379,22.6206897 56,22.6206897 C56.137931,22.6206897 56.137931,22.6206897 56.137931,22.7586207 L56.4137931,22.7586207 C60.6896552,24.137931 69.5172414,26.0689655 67.862069,31.862069 C66.0689655,38.3448276 62.8965517,44.6896552 60.8275862,51.1724138 C57.9310345,47.4482759 53.2413793,39.5862069 48,40.137931 C46.2068966,40.4137931 40.6896552,42.2068966 39.1724138,41.2413793 C37.7931034,40.4137931 36.6896552,38.3448276 35.862069,36.9655172 C34.2068966,34.2068966 31.1724138,28.5517241 27.862069,28.5517241 C25.6551724,28.5517241 23.3103448,28.8275862 21.1034483,29.1034483 C19.7241379,29.2413793 15.5862069,30.6206897 14.4827586,30.0689655 C16.2758621,25.9310345 17.7931034,21.7931034 19.1724138,17.5172414 Z M53.1034483,51.3103448 C50.2068966,50.3448276 47.3103448,49.3793103 44.5517241,48.2758621 C38.4827586,46.2068966 32.4137931,44 26.3448276,41.9310345 L26.2068966,41.9310345 C26.0689655,41.9310345 26.0689655,41.9310345 25.9310345,41.7931034 C25.5172414,41.6551724 25.3793103,41.6551724 25.3793103,41.6551724 L25.2413793,41.6551724 C21.7931034,40.5517241 14.6206897,38.8965517 13.5172414,35.1724138 C12.2758621,31.0344828 16.6896552,31.3103448 19.7241379,30.8965517 C22.2068966,30.6206897 24.5517241,30.6206897 27.0344828,30.4827586 C29.5172414,30.3448276 30.8965517,32.8275862 32.137931,34.6206897 C34.6206897,37.7931034 36.5517241,43.4482759 41.2413793,43.1724138 C44.2758621,43.0344828 48.9655172,40.4137931 51.5862069,42.7586207 C52.8275862,43.862069 53.7931034,45.3793103 54.7586207,46.8965517 C55.862069,48.2758621 58.6206897,52.5517241 60.2758621,52.9655172 C59.7241379,54.3448276 54.4827586,51.862069 53.1034483,51.3103448 L53.1034483,51.3103448 Z" id="Shape"></path>
                <path d="M51.862069,26.8965517 L51.7241379,26.7586207 C49.5172414,24 43.862069,25.9310345 45.5172414,29.7931034 C47.3103448,34.3448276 54.8965517,31.0344828 51.862069,26.8965517 L51.862069,26.8965517 Z M49.6551724,30.3448276 C48.2758621,30.7586207 46.6206897,29.3793103 47.1724138,28.137931 C46.7586207,28.4137931 46.4827586,28.5517241 47.5862069,27.4482759 L47.7241379,27.4482759 C49.6551724,26.8965517 52.2758621,29.6551724 49.6551724,30.3448276 Z" id="Shape"></path>
                <path d="M78.3448276,21.6551724 C74.8965517,19.1724138 70.6206897,17.9310345 66.6206897,16.4137931 C57.7931034,12.9655172 48.5517241,10.7586207 39.862069,7.31034483 C35.862069,5.65517241 31.7241379,4.4137931 27.5862069,3.03448276 C26.3448276,2.62068966 16.2758621,-1.51724138 17.1034483,0.689655172 C17.7931034,2.75862069 27.3103448,4.82758621 29.5172414,5.51724138 C33.9310345,7.03448276 38.2068966,8.55172414 42.4827586,10.0689655 C51.3103448,13.1034483 60,15.862069 68.8275862,18.8965517 C71.4482759,19.862069 78.8965517,21.7931034 77.7931034,25.1034483 C76.137931,29.9310345 71.862069,45.3793103 63.5862069,63.7241379 C53.3793103,59.862069 42.8965517,56.2758621 32.5517241,52.8275862 C23.862069,49.9310345 14.7586207,47.4482759 6.48275862,43.4482759 C5.51724138,43.0344828 4.55172414,42.4827586 3.72413793,41.9310345 C2.48275862,41.1034483 4,40.137931 4.4137931,38.8965517 C6.34482759,33.5172414 7.44827586,28.137931 9.79310345,22.7586207 C11.862069,17.7931034 13.9310345,12.8275862 15.7241379,7.72413793 C16.137931,6.75862069 18.3448276,2.20689655 16.8275862,1.51724138 C15.4482759,0.965517241 14.3448276,6.20689655 14.0689655,7.17241379 C10.4827586,16.5517241 5.51724138,25.3793103 3.5862069,35.1724138 C3.03448276,37.6551724 1.55431223e-15,41.1034483 2.06896552,43.0344828 C5.37931034,46.3448276 12,47.862069 16.2758621,49.3793103 C27.0344828,53.1034483 38.0689655,56.2758621 48.6896552,60.137931 C53.9310345,61.9310345 59.0344828,63.862069 64.137931,65.9310345 C65.5172414,66.3448276 81.3793103,23.862069 78.3448276,21.6551724 Z" id="Shape"></path>
            </g>
            <path d="M45.616109,39.5280824 C42.9271769,28.7132918 32.5381208,21.7609265 22.1490647,23.5633916 C13.7155957,22.9196541 5.52657505,30.1295144 2.47097032,37.8543648 C-1.07353116,46.7379428 1.98207357,57.2952383 8.70440396,63.6038661 C16.1600795,70.684979 27.5269291,70.942474 35.8381739,65.4063312 C44.0271946,59.9989359 48.182817,49.4416404 45.616109,39.5280824 Z M37.18264,62.5738861 C29.8491887,68.8825139 18.7267875,69.7837464 11.0266636,63.7326136 C4.42655735,58.5827134 0.882055868,49.1841454 3.20431546,40.68681 C5.64879924,31.6744845 12.8600264,26.7820792 21.049047,24.8508667 C21.1712712,25.1083617 21.5379438,25.3658567 21.9046164,25.2371092 C30.8269822,23.4346441 40.2382447,28.5845443 43.660522,37.5968698 C46.7161267,46.3517002 44.1494188,56.6515008 37.18264,62.5738861 Z M35.3492772,52.6603281 C33.6381385,58.0677233 28.0158258,59.2264509 23.2490824,59.3551984 C18.3601149,59.3551984 13.9600441,58.0677233 11.6377845,53.3040656 C11.3933361,52.7890756 10.659991,53.1753181 10.7822152,53.6903081 C12.2489054,59.6126934 18.7267875,61.028916 23.8602034,60.9001685 C29.2380677,60.771421 34.9826046,58.9689559 36.8159674,53.1753181 C37.0604158,52.145338 35.5937255,51.7590955 35.3492772,52.6603281 Z M19.9490293,38.3693548 C19.8268052,37.8543648 19.2156842,37.7256173 18.8490116,37.9831123 C18.6045633,37.9831123 18.3601149,38.1118598 18.3601149,38.4981023 C18.2378907,39.9143249 18.3601149,41.3305475 18.3601149,42.7467701 C18.3601149,43.3905076 19.3379084,43.7767501 19.5823568,43.1330126 C20.1934777,41.5880425 20.4379261,40.0430724 19.9490293,38.3693548 L19.9490293,38.3693548 Z M29.8491887,38.1118598 C29.7269645,37.5968698 29.1158435,37.4681223 28.7491709,37.7256173 C28.5047226,37.4681223 28.13805,37.5968698 28.0158258,37.9831123 C27.7713774,39.7855774 27.7713774,41.5880425 28.0158258,43.2617601 C28.13805,43.9054976 28.9936193,43.9054976 29.2380677,43.3905076 C30.093637,41.8455375 30.3380854,40.0430724 29.8491887,38.1118598 L29.8491887,38.1118598 Z M107.4,74.2 C106.7,76 106.1,77.8 105.3,79.4 C103.9,82.2 102.4,84.8 100.9,87.5 C100.1,88.9 99.2,90 97.7,90.7 C87.6,95.8 78.2,102.2 68.6,108.3 C66.1,109.9 63.8,111.9 60.8,112.8 C60.3,113 59.9,113.7 59.5,114.3 C58,116.3 56.2,117.7 53.5,117.1 C53.2,117 52.9,117.2 52.6,117.4 C50.8,118.1 49.1,118.8 47.3,119.4 C43.7,120.5 40.9,119.1 39.3,115.7 C36.7,110.3 39.8,105.4 44.6,104.3 C44.9,104.2 45.4,104.3 45.6,104 C46.8,102.1 48.9,101.5 50.7,100.4 C52,99.6 53.2,98.6 54.5,97.8 C65.2,91.4 76.1,85 86.8,78.3 C89.4,76.7 91.9,75.8 94.9,75.8 C97.6,75.8 100.2,75.4 102.7,74.4 C104.1,73.9 105.6,73.4 107.4,74.2 L107.4,74.2 Z M92.9,84.6 C79.8,91.3 67.7,99.5 55.6,107.7 C56.5,109.2 57.2,110.3 57.9,111.6 C70.1,104.1 82.2,96.6 94.2,89.2 C93.8,87.8 93.4,86.3 92.9,84.6 Z M88.7,79.9 C76.8,87.4 64.5,94.5 52.8,102.7 C53.4,103.8 54,104.7 54.6,105.8 C56.1,104.9 57.5,104 58.9,103.1 C64.5,99.6 70.2,96.2 75.8,92.8 C78.5,91.1 81.2,89.4 83.9,87.8 C84.7,87.3 85.6,87 86.5,86.7 C88.1,86 89.8,85.3 91.1,84.7 C90.3,83 89.6,81.6 88.7,79.9 Z M46.1,105.5 C41.7,106.3 39.1,111.2 41.8,115.5 C42.8,117.1 44.3,117.9 46.1,117.3 C47.8,116.8 49.4,116.1 51.5,115.3 C49.6,111.9 47.8,108.7 46.1,105.5 Z M101.8,80.2 C100.7,78.7 99.5,77.4 97.8,77.2 C96.2,77 94.6,77.3 92.9,77.5 C91.4,77.7 90.8,78.4 90.7,79.9 C90.6,81.8 91.3,82.7 93.1,83.3 C93.7,83.5 94.2,83.5 94.9,83.7 C94.6,85.5 94.3,87.2 96.1,88.2 C98.3,87.1 100.3,84.3 101.8,80.2 L101.8,80.2 Z M50.3,102.5 C48.5,104.1 48.3,104.9 49.2,106.7 C50.5,109.2 51.8,111.7 53.2,114.1 C54.2,115.9 55,115.9 56.7,114.4 C53.7,110.9 52.4,106.6 50.3,102.5 L50.3,102.5 Z" id="Shape"></path>
            <path d="M29.662,150 L27.787,150 L27.787,135.78 L29.662,135.78 L29.662,150 Z M34.462,150 L32.655,150 L32.655,135 L34.462,135 L34.462,150 Z M39.008,150 L37.2,150 L37.2,135 L39.008,135 L39.008,150 Z M48.114,148.955 C47.411,149.782 46.379,150.195 45.018,150.195 C43.892,150.195 43.034,149.868 42.445,149.215 C41.855,148.56 41.558,147.591 41.552,146.309 L41.552,139.433 L43.358,139.433 L43.358,146.259 C43.358,147.859 44.008,148.661 45.311,148.661 C46.693,148.661 47.611,148.147 48.066,147.118 L48.066,139.432 L49.873,139.432 L49.873,150 L48.153,150 L48.115,148.955 L48.114,148.955 Z M58.461,147.197 C58.461,146.709 58.278,146.33 57.911,146.06 C57.541,145.79 56.901,145.557 55.986,145.36 C55.071,145.166 54.346,144.932 53.808,144.658 C53.271,144.385 52.874,144.058 52.618,143.682 C52.36,143.304 52.231,142.855 52.231,142.334 C52.231,141.468 52.597,140.736 53.331,140.137 C54.061,139.537 54.998,139.237 56.137,139.237 C57.335,139.237 58.307,139.547 59.052,140.167 C59.799,140.785 60.172,141.577 60.172,142.539 L58.355,142.539 C58.355,142.043 58.145,141.617 57.725,141.259 C57.305,140.901 56.775,140.722 56.138,140.722 C55.481,140.722 54.968,140.865 54.595,141.152 C54.225,141.438 54.039,141.812 54.039,142.274 C54.039,142.711 54.211,143.039 54.556,143.261 C54.901,143.481 55.526,143.694 56.426,143.895 C57.328,144.097 58.059,144.338 58.619,144.618 C59.179,144.898 59.594,145.234 59.864,145.628 C60.134,146.022 60.269,146.502 60.269,147.068 C60.269,148.012 59.892,148.768 59.136,149.338 C58.381,149.908 57.401,150.193 56.196,150.193 C55.351,150.193 54.602,150.043 53.951,149.743 C53.299,149.445 52.789,149.026 52.421,148.489 C52.054,147.953 51.871,147.372 51.871,146.747 L53.676,146.747 C53.709,147.353 53.952,147.833 54.404,148.187 C54.856,148.542 55.454,148.72 56.196,148.72 C56.88,148.72 57.428,148.582 57.842,148.306 C58.256,148.029 58.462,147.66 58.462,147.196 L58.461,147.197 Z M64.765,136.875 L64.765,139.435 L66.738,139.435 L66.738,140.83 L64.765,140.83 L64.765,147.383 C64.765,147.806 64.853,148.123 65.029,148.335 C65.205,148.547 65.504,148.652 65.927,148.652 C66.137,148.652 66.422,148.612 66.787,148.535 L66.787,150 C66.311,150.13 65.849,150.195 65.4,150.195 C64.592,150.195 63.983,149.951 63.573,149.463 C63.163,148.975 62.958,148.281 62.958,147.383 L62.958,140.83 L61.034,140.83 L61.034,139.434 L62.958,139.434 L62.958,136.874 L64.764,136.874 L64.765,136.875 Z M73.647,141.055 C73.374,141.009 73.077,140.985 72.757,140.985 C71.573,140.985 70.769,141.491 70.347,142.5 L70.347,150 L68.54,150 L68.54,139.434 L70.296,139.434 L70.326,140.654 C70.918,139.71 71.758,139.238 72.846,139.238 C73.196,139.238 73.464,139.284 73.646,139.375 L73.646,141.055 L73.647,141.055 Z M81.13,150 C81.027,149.792 80.943,149.42 80.877,148.887 C80.037,149.759 79.035,150.195 77.87,150.195 C76.828,150.195 75.973,149.901 75.306,149.312 C74.639,148.722 74.306,147.975 74.306,147.07 C74.306,145.97 74.723,145.116 75.56,144.507 C76.397,143.897 77.573,143.594 79.09,143.594 L80.848,143.594 L80.848,142.764 C80.848,142.132 80.658,141.629 80.282,141.254 C79.904,140.881 79.347,140.694 78.612,140.694 C77.967,140.694 77.427,140.856 76.992,141.182 C76.554,141.507 76.336,141.902 76.336,142.362 L74.52,142.362 C74.52,141.836 74.707,141.327 75.082,140.835 C75.456,140.343 75.964,139.955 76.605,139.668 C77.245,139.382 77.951,139.238 78.719,139.238 C79.936,139.238 80.889,139.543 81.579,140.151 C82.269,140.761 82.629,141.599 82.654,142.667 L82.654,147.53 C82.654,148.5 82.777,149.27 83.024,149.844 L83.024,150 L81.13,150 Z M78.133,148.623 C78.7,148.623 79.237,148.477 79.745,148.183 C80.252,147.891 80.62,147.51 80.848,147.041 L80.848,144.874 L79.432,144.874 C77.219,144.874 76.112,145.522 76.112,146.817 C76.112,147.384 76.302,147.827 76.678,148.147 C77.056,148.465 77.541,148.624 78.133,148.624 L78.133,148.623 Z M87.63,136.875 L87.63,139.435 L89.603,139.435 L89.603,140.83 L87.63,140.83 L87.63,147.383 C87.63,147.806 87.718,148.123 87.894,148.335 C88.07,148.547 88.369,148.652 88.792,148.652 C89.002,148.652 89.287,148.612 89.652,148.535 L89.652,150 C89.176,150.13 88.714,150.195 88.265,150.195 C87.458,150.195 86.849,149.951 86.439,149.463 C86.029,148.975 85.823,148.281 85.823,147.383 L85.823,140.83 L83.9,140.83 L83.9,139.434 L85.824,139.434 L85.824,136.874 L87.63,136.874 L87.63,136.875 Z M93.367,150 L91.56,150 L91.56,139.434 L93.367,139.434 L93.367,150 Z M91.414,136.63 C91.414,136.338 91.504,136.09 91.684,135.89 C91.862,135.687 92.127,135.586 92.479,135.586 C92.829,135.586 93.096,135.686 93.279,135.889 C93.461,136.089 93.552,136.337 93.552,136.629 C93.552,136.923 93.462,137.167 93.279,137.362 C93.096,137.558 92.829,137.655 92.479,137.655 C92.126,137.655 91.861,137.558 91.682,137.362 C91.502,137.167 91.412,136.922 91.412,136.63 L91.414,136.63 Z M95.472,144.62 C95.472,143.584 95.675,142.653 96.082,141.826 C96.489,140.999 97.056,140.361 97.782,139.912 C98.507,139.462 99.336,139.238 100.267,139.238 C101.707,139.238 102.869,139.736 103.757,140.732 C104.647,141.729 105.091,143.052 105.091,144.707 L105.091,144.834 C105.091,145.864 104.895,146.784 104.501,147.604 C104.107,148.42 103.544,149.056 102.811,149.512 C102.079,149.967 101.238,150.195 100.287,150.195 C98.855,150.195 97.695,149.697 96.807,148.701 C95.917,147.706 95.473,146.388 95.473,144.747 L95.473,144.62 L95.472,144.62 Z M97.288,144.834 C97.288,146.006 97.56,146.947 98.104,147.656 C98.647,148.366 99.374,148.721 100.286,148.721 C101.204,148.721 101.933,148.361 102.474,147.643 C103.014,146.923 103.284,145.916 103.284,144.62 C103.284,143.46 103.009,142.52 102.459,141.802 C101.909,141.082 101.177,140.722 100.266,140.722 C99.374,140.722 98.656,141.077 98.108,141.787 C97.56,142.497 97.286,143.512 97.286,144.834 L97.288,144.834 Z M108.758,139.434 L108.818,140.762 C109.624,139.746 110.678,139.238 111.981,139.238 C114.215,139.238 115.341,140.498 115.361,143.018 L115.361,150 L113.554,150 L113.554,143.008 C113.547,142.246 113.374,141.683 113.031,141.318 C112.691,140.954 112.157,140.771 111.435,140.771 C110.849,140.771 110.335,140.929 109.892,141.241 C109.45,141.554 109.105,141.964 108.858,142.471 L108.858,150 L107.05,150 L107.05,139.434 L108.758,139.434 L108.758,139.434 Z M123.928,147.197 C123.928,146.709 123.745,146.33 123.378,146.06 C123.008,145.79 122.368,145.557 121.453,145.36 C120.538,145.166 119.813,144.932 119.275,144.658 C118.738,144.385 118.341,144.058 118.085,143.682 C117.827,143.304 117.698,142.855 117.698,142.334 C117.698,141.468 118.065,140.736 118.798,140.137 C119.528,139.537 120.465,139.237 121.605,139.237 C122.802,139.237 123.775,139.547 124.52,140.167 C125.265,140.785 125.638,141.577 125.638,142.539 L123.82,142.539 C123.82,142.043 123.61,141.617 123.19,141.259 C122.772,140.901 122.243,140.722 121.605,140.722 C120.947,140.722 120.433,140.865 120.062,141.152 C119.692,141.438 119.505,141.812 119.505,142.274 C119.505,142.711 119.677,143.039 120.023,143.261 C120.368,143.481 120.991,143.694 121.893,143.895 C122.793,144.097 123.525,144.338 124.085,144.618 C124.645,144.898 125.06,145.234 125.33,145.628 C125.6,146.022 125.735,146.502 125.735,147.068 C125.735,148.012 125.358,148.768 124.603,149.338 C123.847,149.908 122.868,150.193 121.663,150.193 C120.817,150.193 120.068,150.043 119.417,149.743 C118.767,149.445 118.257,149.026 117.889,148.489 C117.519,147.953 117.336,147.372 117.336,146.747 L119.143,146.747 C119.175,147.353 119.418,147.833 119.87,148.187 C120.324,148.542 120.92,148.72 121.663,148.72 C122.347,148.72 122.895,148.582 123.309,148.306 C123.721,148.029 123.929,147.66 123.929,147.196 L123.928,147.197 Z" id="Illustrations"></path>
        </g>
    </g>
</svg>