<svg id="Layer_1" xmlns="http://www.w3.org/2000/svg" width="142.3" height="142.7" viewBox="0 0 142.3 142.7">
  <style>
    .st0{fill:#647388;}
  </style>
  <path class="st0" d="M136.2 82.3c.3-3.1-1.7-5.4 1.5-7.6 1.9-1.3 3.4-3 4.3-5.1 1.6-3.6-1.8-6.6-4.8-7.7-3.8-1.4-8.3-.4-11.9 1.6 2.3-12.3 3-24.8 2.4-36.7 0-1.2-1-1.8-2-1.8-.6-.5-1.5-.7-2.3 0-24 23.5-56 3.8-64.9-23.7-.1-.5-.5-.6-.8-.5-.2-.6-1.1-1-1.9-.5-9.6 7.2-19.5 19.3-27.2 33.4-3.5-5.5-10.6-11.1-17.2-7.8-6.5 3.2-2.7 8.7 1.5 12-3.3 1.1-6 3.1-9.4 4.2-1.3.5-1.5 2.2-.1 2.8 1.2.5 2.3 1.1 3.5 1.8C3 48.2-1.4 51.1.5 55.5c2.6 6.3 11.1 6.5 16.8 5.4-4.4 16.1-4.9 32.5 1.4 45.7-4.4 1.8-8.6 5.7-7.1 10.9 1.1 3.9 4.6 3.7 8 2.4-1 1.5-1.9 3.1-2.9 4.6-.3.6-.2 1.4.4 1.7 2.9 1.8 6.2 3.6 9.7 2.9.4-.1.7-.2 1-.3-1.8 3.8-2.5 8.4 2.2 9.9 2.4.7 5-.3 6.9-1.6 2.4-1.7 5.8-5.2 5.7-8.4 0-.2-.1-.4-.2-.6 3.1 1.2 6.4 2 9.7 2.6v.1c-.7 4.7.5 10.9 6 11.8 3.4.5 4.7-2.3 5-5.5 1.7 2.7 3.9 4.8 6.8 3.9 3.2-1 4.2-3.7 4.4-6.7 1.7 2.2 3.9 4 6 6.3.5.6 1.2.6 1.8.1 5.1-4.2 5.4-8.6 3.3-14.6 7.2-3.3 13.6-8 18.5-13.9 4.1-4.9 7.5-10.3 10.4-15.9 3.9 3.7 10 6.6 14.9 2.9 4.5-3.5 3.7-8.6 1.1-12.7 2.7-.3 5.5-.9 5.9-4.2zm-118.3-24c-.3-.2-.7-.3-1.1-.3-3.9.8-7.7.8-11.3-1-6.9-3.6 2-7.9 5.4-8.7 1.5-.4 1.4-2.3.1-2.7-1.3-.6-2.6-1.3-3.9-2 3-1.5 5.7-3.3 9.1-4 1.2-.2 1.6-2 .5-2.6-3.1-1.7-10.1-7.2-3.2-9.1 5.8-1.6 10.9 3.1 13.9 7.5-3.8 7.2-7.1 15-9.5 22.9zm-4.3 57.5c-.8-3.4 2.7-6.4 5.7-8 1.2 2.4 2.7 4.6 4.3 6.7-2.2 1.7-8.9 6.4-10 1.3zM27 126.3c-2.4 1.3-5.4-.3-7.6-1.6 1.8-2.9 3.3-5.8 5.9-8.2 1.8 2 3.9 3.9 6.2 5.6-1.5 1.5-2.7 3.2-4.5 4.2zm13.7 1.5c-.9.9-1.3 2-2 3.1s-1.5 2.2-2.5 3.1c-1.3 1.3-3.2 2.4-5.1 2.3-4.5-.1-2.1-6.3-.6-9.3 1.1-1 2.1-2.3 2.8-3.5 2.5 1.7 5.1 3 7.8 4.2-.1-.1-.3 0-.4.1zm15.9 12c-3.1-1.6-3.5-6-3.6-9 2.4.3 4.9.5 7.4.6.4 2.4 1.2 11-3.8 8.4zm11.5-1.5c-2.7-.6-4.2-4.6-5-6.9 2.8-.1 5.7-.4 8.4-1 .4 2.7.9 8.8-3.4 7.9zm13.1-.4c-2.5-2.6-5.1-4.8-6.8-8.1 2.9-.7 5.9-1.6 8.7-2.7.9 3.8 1 7.7-1.9 10.8zm25.3-35.9c-15.3 24.7-49.3 33.9-73.7 16.5C13.9 105 17.4 77 23 57.9 29.1 37.3 40.8 16.2 57 2c5.9 30.5 42.4 49.4 67 27.3.3 25-4.2 51.1-17.5 72.7zm20.7-18.8c-1.2-.1-2 1.5-1.1 2.4 3 3.4 5.5 8.6.5 11.5-4 2.3-8.3-.8-11-3.8 4.1-8.6 7.1-18 9.1-27.5 3.3-1.7 6.8-2.7 10.7-1.9 7.6 1.6 1.9 7.6-1.9 9.8-.4.3-.8.7-.8 1.3.1 1.7.2 3.3.4 5.1.5 3.9-2.8 3.3-5.9 3.1zm0 0"/>
  <path class="st0" d="M89 51.1c0-.1.1-.1.2-.3.8-1-.8-2.4-1.8-1.5-8.1 8-11.1 20.7-8.3 31.7-2.4 2.7-4.6 6.3-8.6 6.5-3.9.3-4.4-4.4-4.4-7.8 20.3-7.7 16.5-45.8-7.3-42.5-.2-.3-.6-.5-1-.5-27.4-.2-27.7 42.9-.8 44.3 2.5.1 4.7-.1 6.7-.7-.2 4.3.6 9.2 5.2 10.2 4.1.9 8.7-2.2 11.3-5.9C85 94.8 96.8 95 106.6 90.7 129.9 80.6 111.3 42 89 51.1zM62.6 40.8c.4 0 .7.1 1.1.2 0 .2-.1.4-.1.5l.1.2-.1.1-.2.2c-.1.1-.1.1-.2.3 0 .1-.1 0-.1.1v.1s0 .1-.1.1c-.4 0-.9.1-1.2.5-.7.4-1 1.7-.9 2.9.1.1 0 .3.1.3-.3.7-.5 1.4-.7 2-.1-2.5.8-5.1 2.3-7.5zm-6.8 36.4C45.8 76.7 40.5 67 40.5 58c-.1-9.7 6.5-16.3 15.4-18.1.2.8 1 1.5 2 1.2.9-.1 1.7-.3 2.5-.3-3.2 5-4.1 9.9.2 15.3.5.6 1.6.7 2.1.1 3.5-3.6 5.4-7.8 6.8-12.5 4 3.2 6.3 8.7 6.6 14.5.7 12-8.6 19.6-20.3 19zm47 11.3c-22.4 8.1-24.3-18.4-16.5-33.3.3.2.7.2 1.1.1 3.1-1 6-1.5 8.8-1.4-1.1 2.2-1.8 4.7-1.6 7.3.2 3.5 2.9 5.9 5.9 7.5.6.3 1.2.3 1.8-.1 2.9-2.5 4.8-5.8 5.7-9.4 1.2 1.3 2.4 2.8 3.4 4.7 5.1 9.3 1.8 20.8-8.6 24.6zm0 0"/>
</svg>
