<?xml version="1.0" encoding="utf-8"?>
<!-- Generator: Adobe Illustrator 19.0.1, SVG Export Plug-In . SVG Version: 6.00 Build 0)  -->
<svg version="1.1" id="Layer_1" xmlns="http://www.w3.org/2000/svg" xmlns:xlink="http://www.w3.org/1999/xlink" x="0px" y="0px"
	 width="141.1px" height="144.7px" viewBox="0 0 141.1 144.7" style="enable-background:new 0 0 141.1 144.7;" xml:space="preserve"
	>
<style type="text/css">
	.st0{fill:#657488;}
</style>
<g>
	<g>
		<path class="st0" d="M139.5,101.5c-0.4-1.1-1.5-1.7-2.5-1.7c-7.3-9.1-21.6-25.5-34.9-23.5c-13.8,2-15.2,17.3-13.6,28.4
			c0.4,2.9,1.1,5.7,1.3,8.6c0.5,7.4-15,1.9-18.1,0.5c-11.3-4.8-20.8-14.3-28-24.1c-7.2-10-11.4-23.4-5.7-35.1
			c2.7-5.6,21.2-1.2,26.2-1.4c2.2-0.1,4.1-2.2,3.4-4.4C61,28.7,42.6,18.5,32.8,1.1c-1.2-2.1-4.4-0.8-4.1,1.4
			C1.1,7.5-3.1,40.6,1.7,63c5.2,24.7,20.4,47.1,41.2,61.1c19.1,12.7,44.4,22.6,67.6,20.2C131,142.2,146.2,122,139.5,101.5
			L139.5,101.5z M25,8.8c1.5-1.2,2.9-2.5,4.4-3.7C35.1,20.8,51.8,30.6,59,46c-2.6-0.1-5.1-0.3-7.6-0.5C45.9,39.7,40.6,34.5,36,27.7
			C34.9,26,25.3,9,24.6,9.3C24.8,9.2,25,9,25,8.8L25,8.8z M133.3,112.2c-0.1-0.1-0.2-0.2-0.3-0.2c-12-6.2-23.1-11-31.5-22.2
			c-1.3-1.8-4.3-0.2-3,1.8c7.4,11.5,20,20.1,33,24.1c0.5,0.2,1,0.1,1.3-0.1c-0.8,4.5-2,8.9-5.2,12.9c-5.5,7.1-15,8.9-23.4,9.1
			c-19.5,0.5-39.6-8.4-55.8-18.3C30,107.8,17.9,89.8,10.9,69.5C6.8,57.8,5.3,45,8,32.8c2.1-9.5,7.6-15.7,14.1-21.4
			c0.2,3.4,3.3,7.9,4.7,10.4c3.4,6,7.3,11.7,11.6,17.2c1.4,1.9,3.2,4.4,5.3,6.5c-7.3,0.5-13,3.6-14.4,14.7
			c-3.1,23.7,14.6,44,33.3,56.1c8.7,5.6,33.5,14.6,34.1-3.1c0.3-8.8-4.2-16.6,0-25.2c7.7-15.8,29.6,10.3,35.6,16.5
			c0.6,0.6,1.3,0.9,1.9,1C133.8,107.8,133.6,110,133.3,112.2L133.3,112.2z M133.3,112.2"/>
	</g>
</g>
</svg>
