<?xml version="1.0" encoding="utf-8"?>
<!-- Generator: Adobe Illustrator 19.0.1, SVG Export Plug-In . SVG Version: 6.00 Build 0)  -->
<svg version="1.1" id="Layer_1" xmlns="http://www.w3.org/2000/svg" xmlns:xlink="http://www.w3.org/1999/xlink" x="0px" y="0px"
	 width="65.8px" height="72.7px" viewBox="0 0 65.8 72.7" style="enable-background:new 0 0 65.8 72.7;" xml:space="preserve">
<style type="text/css">
	.st0{fill:#647387;}
</style>
<g>
	<g>
		<path class="st0" d="M61,46.8c0.2-1.1,0.8-3,1.1-3.9c0.3-1,0.5-1.6,0.6-2c1.3-6.1,0.6-11.6-2.2-17.4C56.4,15,50.1,9.4,42.3,7.4
			c-3.2-0.8-6.4-1.3-9.5-1.3c-0.9,0-1.9,0.2-2.9,0.3c-1,0.2-2,0.3-2.8,0.3c-0.2,0-0.3,0-0.4,0c-0.1-0.2-0.3-0.5-0.5-0.8
			c-0.4-0.6-0.7-1.2-1.2-1.7C22.2,1.6,18.4,0,14.6,0C8.1,0,2.4,4.4,0.7,10.7c-0.5,1.9-1.2,5.7,0.1,9.3c0.5,1.4,1.5,2.5,2.3,3.5
			c0.7,0.9,1.4,1.7,1.5,2.4c0.1,0.9-0.4,2.2-0.9,3.5c-0.5,1.3-1,2.6-1.1,4c-0.4,3.3-0.1,6.8,0.7,10.3C5.1,51.1,9,57.3,14.3,61.1
			c3.5,2.5,7.6,4.4,10.8,5.1c1.8,0.4,3.8,0.6,6.1,0.6c0.5,0,1,0,1.5,0c1.1,0,2.2-0.3,3.2-0.5c1.3-0.3,2.8-0.6,3.5-0.3
			c0.5,0.2,1.1,1,1.6,1.6c0.6,0.8,1.3,1.6,2.2,2.3c1.9,1.4,3.9,2.3,5.9,2.7c0.7,0.1,1.5,0.2,2.2,0.2c3.2,0,6.5-1.2,9.2-3.5
			C64,66.3,66,62,65.8,57.3C65.7,53.2,64,49.4,61,46.8L61,46.8z M57.4,65.6c-1.8,1.5-4,2.4-6.1,2.4c-0.5,0-0.9,0-1.4-0.1
			c-1.3-0.2-2.6-0.8-3.9-1.8c-0.4-0.3-0.8-0.8-1.3-1.4c-0.9-1.1-1.9-2.4-3.5-3.1c-0.8-0.3-1.7-0.5-2.7-0.5c-1.3,0-2.6,0.3-3.8,0.6
			c-0.9,0.2-1.7,0.4-2.3,0.4c-0.4,0-0.9,0-1.3,0c-1.9,0-3.6-0.2-5.1-0.5c-3.1-0.7-6.7-2.7-9.1-4.3c-4.4-3.1-7.6-8.3-9.2-14.7
			c-0.7-3-0.9-5.9-0.6-8.6c0.1-0.8,0.5-1.8,0.9-2.8c0.7-1.7,1.4-3.7,1.2-5.8c-0.3-2.1-1.6-3.7-2.6-5c-0.6-0.8-1.2-1.5-1.5-2.1
			c-0.6-1.7-0.6-4,0-6.3c1.2-4.3,4.9-7.1,9.3-7.1c2.6,0,5.2,1.1,7,2.9c0.1,0.1,0.4,0.5,0.5,0.8c0.6,1,1.2,2,2.3,2.5
			c0.8,0.4,1.6,0.5,2.7,0.5c1.2,0,2.4-0.2,3.6-0.4c0.8-0.1,1.6-0.3,2.1-0.3c2.7,0,5.5,0.4,8.3,1.1c8.1,2.1,12.7,8.5,15,13.6
			c2.3,4.8,2.9,9.3,1.8,14.4c0,0.2-0.3,0.9-0.4,1.5c-1.3,4.2-1.8,6.3-0.9,7.8l0.2,0.4l0.4,0.3c2.4,1.8,3.7,4.5,3.8,7.5
			C61.1,60.6,59.8,63.6,57.4,65.6L57.4,65.6z M57.4,65.6"/>
	</g>
	<path class="st0" d="M40,36.1c-2.7-0.9-10.5-2-12.5-4.8c3.8-5.1,11.4-1.6,16.4,0.8c0.6,0.3,1.1,0.3,1.6,0.1
		c0.5-0.1,1.1-0.4,1.3-0.9c0.7-1.4,1.3-2.8,2-4.1c2.3-4.2-8.8-7-11-7.6c-4.9-1.4-10.7-1.8-15.3,0.8c-2.5,1.4-4.5,3.9-5.5,6.5
		c-1.9,4.6,1.1,9.7,4.7,12.3c4.2,3,9.7,3.5,14,6.3c-2.7,0.9-10.9,0-13.3-2.1c-0.8-0.7-1.8-0.5-2.4-0.1c-0.2,0.1-0.4,0.2-0.5,0.4
		c-1.3,1.3-2.4,2.7-3.5,4.1c-0.6,0.8-0.8,1.9,0,2.7c0.1,0.1,0.2,0.2,0.3,0.2c0.1,0.1,0.2,0.3,0.4,0.4c6,4.4,20,7,27,3.7
		c3.9-1.8,8.9-7.7,6.8-12.2C48.8,38.8,43.7,37.3,40,36.1L40,36.1z M45.3,48.8c-0.9,1-2,1.8-3,2.2c-2.3,1.1-4.9,1.5-7.5,1.6
		c-2.8,0.1-5.6-0.3-8.2-1c-0.5-0.1-6.8-2.5-6.6-2.7c0.4-0.5,0.9-1,1.3-1.6c3.1,2.1,7.6,2.5,11.2,2.4c2.3-0.1,8.8-1,8.3-4.3
		c-0.7-4.4-10.5-5.5-13.7-7.1c-2.2-1.1-5.3-3.5-6.3-5.8c-2-4.9,2.7-8.1,6.7-9.5c3.2-1.1,6.6-0.8,9.7,0.1c0.6,0.2,7.9,2.9,7.6,3.5
		c-0.3,0.5-0.5,1.1-0.8,1.6c0.4-0.7-11.2-2.9-12.3-2.9c-2,0.1-3.9,0.8-5.5,1.9c-8.2,5.4,4.1,10.4,8.5,11.6
		c3.2,0.9,11.5,1.9,12.1,6.1C47.2,46.2,46.4,47.6,45.3,48.8L45.3,48.8z M45.3,48.8"/>
</g>
</svg>
