<?xml version="1.0" encoding="utf-8"?>
<!-- Generator: Adobe Illustrator 19.0.1, SVG Export Plug-In . SVG Version: 6.00 Build 0)  -->
<svg version="1.1" id="Layer_1" xmlns="http://www.w3.org/2000/svg" xmlns:xlink="http://www.w3.org/1999/xlink" x="0px" y="0px"
	 width="202.7px" height="160.6px" viewBox="0 0 202.7 160.6" style="enable-background:new 0 0 202.7 160.6;" xml:space="preserve"
	>
<style type="text/css">
	.st0{fill:#647388;}
</style>
<g id="XMLID_87_">
	<g id="XMLID_88_">
		<g id="XMLID_89_">
			<path id="XMLID_90_" class="st0" d="M90.7,53.9c1.2,2.9,4.4,4.7,6.8,6.3c6,4.1,13.6,8.4,21.1,9.6c0.2,0.4,0.5,0.6,1,0.6
				c6.5-0.5,16-1,21.1-5.7c5.3-4.8,7.8-14.3,10.2-20.8c1.5-4.2,2.2-7.5,0.7-10.6c0.1-0.3-0.1-0.7-0.3-0.8c-0.1,0-0.1,0-0.2-0.1
				c-0.7-1-1.6-2-2.8-3c-6.4-5.2-13.9-10-21.5-13.2c-0.3-0.1-0.5,0-0.7,0.2c-4.5-0.4-9.4,0.6-13.8,1.4c-3.3,0.6-7.3,1-9.9,3.3
				c-5.4,4.9-8.8,14.6-10.7,21.4C90.9,45.8,89.3,50.5,90.7,53.9z M148.1,32.2c-3.4,0.7-7.3,3.8-9.2,5.6c-3.6,3.3-6.7,7.9-7.6,12.8
				c-3.8-0.9-8.2-1-11.5,1.4c0,0-0.1,0-0.1,0.1c-4.9-3-11-4.6-16.8-4.7c-3-0.1-7.4-0.1-9.7,2.1c0.1-2.9,1.7-6.7,2.5-9.2
				c2-6.1,5.5-16.2,12-18.6c6.1-2.2,12.8-2.1,18.9-3.9c5.3,3.3,10.8,6.2,15.9,9.9C144.6,29,146.6,30.3,148.1,32.2z M130.8,52.1
				c-0.7,2.5-0.1,5.7-2.5,7.5c-2.1,1.6-6.5-2.7-8-5C122.2,51.7,127.6,52.1,130.8,52.1z M93.6,51.9c1.2-0.2,1.3-0.6,3.3-1.2
				c2.4-0.8,5.1-0.7,7.7-0.7c4.9,0.2,9.4,1.4,14,2.9c-0.6,0.6-1,1.2-0.9,2c0.2,1.5,2.6,3.3,3.7,4.2c2.4,2.2,5.6,4.8,8.6,2
				c2.2-2.1,3.7-6.6,2.6-9.5c0.2-0.1,0.3-0.2,0.4-0.4c1.9-4.7,4-8.7,8-12c2.1-1.7,4.6-3.1,7.1-3.9c0.6-0.2,1.1-0.3,1.5-0.5
				c0,0,0,0.1,0,0.1c1.4,3.5-0.3,6.7-1.6,10.1c-2.1,5.6-5.3,15.6-10.8,18.9c-4.8,2.8-11.1,2.8-16.6,4c-6.5-2.5-13-4.1-19-7.9
				C98.4,57.9,94.8,55.7,93.6,51.9z"/>
			<path id="XMLID_91_" class="st0" d="M124.7,39.7c0.8,2,2.5,3.8,4.7,2.3c3.8-2.6,0.6-9.2-3-10.2c-0.2-0.1-1.3,0.4-1.5,0.8
				C123.4,34.8,123.8,37.3,124.7,39.7z"/>
			<path id="XMLID_92_" class="st0" d="M117.7,45c2.4-0.5,2.2-3.6,2-5.4c-0.2-2.1-1-5-3.3-5.7c-0.4-0.1-1.1,0-1.3,0.1
				C111.3,35.2,113.3,46,117.7,45z"/>
			<path id="XMLID_93_" class="st0" d="M106.3,107.4c4.7,1,9.5-2,9.2-7.1c-0.2-3.4-2.5-5.9-4.4-8.4c-0.8-1.1-1.6-2.2-2.3-3.2
				c1.9-3.9,3.3-7.8,6.4-11.1c4.8-5.3,11.6-3.5,15.8,1.3c-0.1,0.9-0.1,1.7,0,2.5c-2.6,3.6-5.3,7-8,10.6c-1.9,2.6-3.8,5.6-3.9,8.9
				c-0.3,6.2,4.8,8.8,10.1,6.3c13.6-6.4,12.3-26.1,4.6-36.6c0-0.9-0.1-1.7-0.3-2.5c-0.1-0.5-0.7-0.4-0.9,0c-0.9,2.2-0.9,4.7-1.2,7
				c0,0.5-0.1,0.9-0.2,1.4c-3.1-3.6-9.1-5.8-13.3-4c-4.8,2-9.2,7.9-10.8,13.3c-1.3-2.5-2.2-5.2-2.9-8.2c-0.2-0.9-1.5-0.7-1.6,0.2
				c-0.3,4.4,1.7,8.5,4,12.1c1.1,1.7,2.4,3.2,3.6,4.9c2.6,3.5,4.1,4.7,1.6,8.5c-2.5,3.8-8.1,0.7-9-0.1c-5-3.3-7.4-9.7-8.2-15.4
				c-0.8-6.2,1-12.2,0.3-18.3c-0.1-0.9-1.2-1.1-1.5-0.2C89.2,80.4,91.5,104.4,106.3,107.4z M132.9,81c0-0.1,0-0.1,0-0.1
				c0.7-1.4,0.5-3.2,0.6-4.8c0-0.6,0.1-1.3,0.2-1.9c3.4,9.6,6.3,19.9-2.1,28.2c-1.2,1.2-2.6,2.3-4.2,2.9c-4.6,1.6-6.5-4.6-4.8-8.1
				c1.1-2.1,2.6-4,4.1-5.8C129.2,88.3,132.7,85.2,132.9,81z"/>
			<path id="XMLID_346_" class="st0" d="M99.7,110.6c0.4-2,0.7-4,2.1-5.5c0.3-0.4,0.9,0,0.9,0.4c0.2,1.9-0.5,3.8-0.8,5.7
				C101.7,112.6,99.4,112,99.7,110.6z"/>
			<path id="XMLID_345_" class="st0" d="M93.3,55.5c0.5-0.7,1.6-0.1,1.2,0.7c-4,7.9-8.3,15.7-11.6,23.9c-3.2,7.9-5.4,15.9-7.7,24
				c-0.4,1.5-2.6,0.8-2.3-0.7C75.7,86.9,83.1,68.9,93.3,55.5z"/>
			<path id="XMLID_344_" class="st0" d="M127.3,6.4c1.8-3.1,4.4-5.3,7.8-6.4c0.6-0.2,1.4,0.3,1.5,0.9c1,6.5,1.6,13.7-1.5,19.8
				c-0.6,1.1-2.4,0.3-2-0.9c1.6-4.6,2-9,1.7-13.6c-0.4,0.9-1,1.9-1.4,2.8c-1.3,2.9-1.9,6.2-3.4,9c-0.2,0.3-0.8,0.3-0.8-0.1
				c-0.5-2.6,0.3-5.4,1.2-7.9c0.7-2,1.5-4.2,2.5-6.2c-4.3,3-5.8,8.8-8.2,13.3c-0.2,0.4-0.8,0.2-0.8-0.2
				C123.4,13.6,125.6,9.3,127.3,6.4z"/>
			<path id="XMLID_343_" class="st0" d="M90.9,10.3C90.8,10.3,90.8,10.2,90.9,10.3c-0.5-0.8,0.2-1.8,0.9-1.7
				c6.4,0.6,12.8,5.2,14.9,11.5c0.2,0.5-0.5,0.8-0.8,0.5c-3.7-3.9-6.5-7.9-11.6-9.3c3,4.2,6.3,8.9,7,13.8c0.1,1-1.3,1.8-1.8,0.7
				c-1.2-2.7-2.2-5.5-3.7-8.1c-0.8-1.4-1.7-2.7-2.5-4c0.3,1.8,0.5,3.7,1,5.4c0.9,3.4,2.3,6.7,3.8,9.9c0.7,1.4-1.3,2.5-2.1,1.1
				C93,24.7,89.6,16.6,90.9,10.3z"/>
			<path id="XMLID_94_" class="st0" d="M6.9,42.3c4.2,1.8,8.8,2.1,13.1,3.6c5.3,1.9,9.9,5,13.7,9.2c7.1,7.8,12.9,18.9,15.2,29.2
				c2.5,10.9,3.2,22.5,4.3,33.6c1,9.1,0.8,21,6.8,28.5c0,0,0.1,0,0.1,0.1c6,12.2,26.2,15.1,38.1,13.8c2.4-0.3,10.5-1,8.6-5.3
				c0-0.1-0.1-0.2-0.2-0.3c3.8,0.3,8,0.1,11.9-0.9c0,0,0,0,0,0c4.7,1.9,10,3.2,15.1,2.8c2.7-0.2,6.6-0.6,8.2-3.1
				c4-5.9-6.3-6.9-11.6-7.1c2.3-2,3.4-5.2,4.4-8.1c1.6-4.8,2.7-9.7,3.4-14.7c0.8-6.2,0-16.4-7.4-18.3c0-0.1,0-0.2-0.1-0.2
				c-0.2-0.8-1.3-0.6-1.4,0.2c-1.4,10.3,1.6,21,0.8,31.3c-0.6,7.2-3.9,12.5-11.3,14c-4.9,1-10,0.6-14.8,1.6c-0.2,0-0.3,0.1-0.4,0.2
				c-2.8-0.7-6.6-0.3-9.4,0.3c6-9,10.3-20,10.4-30.9c0.1-10-5.1-17.4-14.5-21.1c-7.6-3-13.8-0.5-17.9,5c0-12.3-1.7-24.7-3.1-36.9
				c-1.4-11.9-3.3-24-8.7-34.8c-7.5-15-23.8-28.2-41.5-23.3c-7.2,2-13.8,7.1-16.9,14C-1.4,31.4-0.5,39.1,6.9,42.3z M131.1,107.8
				c6.2,5.4,5.3,13.1,3.5,21c-0.5,2.3-1.1,4.6-1.9,6.8c0.2-3.7-0.2-7.5-0.4-11.1C132,119.2,132.1,113.3,131.1,107.8z M122.5,152.4
				c2.3-1,4.3-2.3,5.9-4.1c1.4,0.4,2.6,0.2,4.2,0.3c2.4,0.1,10,2.5,4.8,4.9C132.9,155.6,127.3,153.8,122.5,152.4z M3.6,28.7
				c2.2-9.1,10.8-15.3,19.8-16.2c20.5-2,34.1,17.1,39,34.6c5.5,19.7,4.5,40.5,8.3,60.4c-0.6,1-1.1,2-1.6,3.2
				c-2.5,5.7-4.1,11.7-4.9,17.8c-0.7,5.2-1.6,11.6,0.2,16.7c0.1,0.2,0.5,0.3,0.6,0c0.9-4.1,0.4-8.5,0.9-12.8
				c0.6-4.7,1.7-9.4,3.1-13.9c3.1-9.6,8.7-20.3,20.7-14.9c4,1.8,8.4,4.8,10.3,9c2.2,4.8,1.8,10.6,0.9,15.7
				c-1.6,9-5.3,17.3-10.5,24.8c-0.9,1.3,1,2.6,2.1,1.7c2,0.1,4-0.2,6.1-0.2c1.9,0,7.5,0.4,3.9,2.3c-4.3,2.2-10.6,0.9-15.2,0.3
				c-5.8-0.7-11.7-1.6-17-4.4c-3.9-2.1-6.3-5.1-9-8.4c-4.4-9.2-4.9-20.9-6.3-30.9c-0.8-6.1-1.4-12.3-1.9-18.5
				c-0.3-4.8-0.5-9.5-1.8-14.2C47.4,66.6,38,50.3,23.9,44C16.2,40.6,0.6,41.3,3.6,28.7z"/>
		</g>
	</g>
</g>
<g>
	<path class="st0" d="M181.2,26.3l-0.9,3.1c-0.5,2.5-0.8,3.8-0.8,3.8c-0.1,0.1-0.5,0-1.1-0.2c-0.5-0.3-0.7-0.5-0.8-0.8
		c-0.1-0.3,0-0.6,0.1-0.9c0.2-0.3,0.5-1.6,1.1-3.9c0.3-0.8,0.6-1.9,1-3.3s0.6-2.2,0.6-2.2v-0.4c0-0.1-1-0.2-2.9-0.2
		c-1.9,0-3.5,0.1-4.8,0.3h-2.6c-0.1,0.3-0.5,1.3-1.1,3.3c-0.6,1.9-1.1,3.7-1.4,5.3c-0.3,1.6-0.7,3.1-1.2,4.6
		c-0.2-0.1-0.5-0.2-0.7-0.2c-0.4-0.1-0.6-0.3-0.8-0.6c-0.2-0.3-0.2-0.7-0.1-1c0.2-0.2,0.3-0.6,0.3-1.3c0.1-0.2,0.3-0.7,0.4-1.5
		s0.6-2.4,1.2-4.8c0.7-2.4,1.1-3.7,1.3-3.9V21c0-0.4,0.1-0.7,0.4-1.1c0.2-0.7,0.4-1.2,0.4-1.4l2-5v-0.2c0,0,0.3-0.7,0.9-1.9
		c0.5-1.2,0.9-2,1.1-2.4c0.2-0.4,0.3-0.7,0.4-0.9c0.1-0.2,0.2-0.3,0.2-0.4c0.1-0.1,0.1-0.2,0.1-0.3c0.2-0.3,0.5-0.3,0.8-0.2
		c0.4,0.1,0.6,0.4,0.8,0.8l0.4,0.6l-1.3,2.5c-0.9,1.5-1.3,2.4-1.3,2.7c-0.5,1.4-0.9,2.4-1.1,3c-0.2,0.6-0.4,1.2-0.6,1.6
		c-0.4,0.8-0.6,1.3-0.6,1.4c0-0.1,0.6-0.1,1.9-0.1c4.1,0,6.3-0.1,6.8-0.1l1.8-0.2l2.7-8.4c0.4-1,0.6-1.7,0.8-2
		c0.2-0.3,0.4-0.4,0.6-0.4s0.4,0.1,0.7,0.2c0.2,0.1,0.4,0.2,0.4,0.4c0.5,0.5,0.5,1.2-0.2,2.2c-0.4,0.7-0.7,1.4-1,2.3
		c-0.3,0.9-0.5,1.4-0.6,1.6c0,0.5-0.1,0.8-0.2,1c-0.2,0.2-0.4,0.5-0.6,1.1c-0.2,0.6-0.4,1-0.4,1.3c0,0.3-0.1,0.6-0.4,0.8
		C182.4,23,181.6,25.3,181.2,26.3z"/>
	<path class="st0" d="M185.8,28.4l0.1-0.7c0-0.1,0.1-0.5,0.3-1.2c0.4-0.9,1-2.6,1.7-5c0-0.3,0.2-0.4,0.6-0.5c0.3-0.1,0.5-0.1,0.6,0
		c0.1,0.1,0.3,0.3,0.6,0.7c0.4,0.4,0.3,1-0.1,1.9s-0.7,1.6-0.8,2.1c-0.4,0.8-0.6,1.5-0.8,2.2s-0.3,1.2-0.5,1.4
		c-0.2,1-0.4,1.5-0.6,1.7c-0.2,0.2-0.4,0.1-0.8-0.3c-0.3-0.4-0.5-0.8-0.6-1.2C185.6,29.1,185.6,28.7,185.8,28.4z M190.4,12.9
		c0.5-0.4,1.1-0.2,1.6,0.7c0.2,0.5,0.2,0.8,0.2,1.1s-0.3,0.7-0.8,1.2c-0.6,0.8-1.3,1-1.9,0.5c-0.3-0.2-0.4-0.5-0.5-0.9
		c0-0.4,0-0.5,0-0.6c0.2,0,0.4-0.2,0.7-0.6c0.2-0.4,0.4-0.7,0.4-0.9S190.2,13,190.4,12.9z"/>
	<path class="st0" d="M192.4,28.7c0.4-0.3,0.7-0.4,0.9-0.4c0.2,0,0.5,0.1,0.9,0.2c0.7,0.4,1,0.9,0.9,1.5s-0.6,1-1.4,1.4
		c-0.8,0.3-1.5,0.3-2.1-0.2C190.9,30.4,191.1,29.6,192.4,28.7z M197.1,15.5l0.5-1.2c0.4-0.7,1-2,1.8-4s1.2-3.1,1.3-3.4
		c0-0.4,0.2-0.5,0.6-0.4c0.1-0.1,0.3-0.1,0.6-0.1c0.1,0.1,0.3,0.3,0.5,0.5s0.3,0.6,0.3,0.9c0,0.4,0,0.7-0.1,0.9
		c-0.1,0.2-0.1,0.3-0.2,0.5c0,0.1-0.1,0.3-0.3,0.6s-0.2,0.4-0.3,0.5c-0.1,0.2-0.3,0.7-0.7,1.3c-0.7,1.3-1,2-1,2s-0.2,0.4-0.5,1.1
		c-0.7,1.2-1.1,2-1.1,2.3c-0.1,0.3-0.2,0.5-0.3,0.6c-0.1,0-0.2,0.1-0.2,0.3v0.1c0,0.3-0.2,0.9-0.7,1.9c-0.8,2.3-1.2,3.8-1.3,4.6
		s-0.1,1.2-0.1,1.3c0,0.1-0.1,0.2-0.3,0.3c-0.4,0.1-0.8,0-1-0.4c-0.5-0.6-0.5-1.9-0.1-3.7c0.3-0.7,0.5-1.1,0.5-1.5
		c0.3-1,0.7-2,1.2-3c0.1,0,0.2-0.1,0.3-0.2c0.1-0.2,0.2-0.4,0.2-0.8C196.7,16,196.9,15.7,197.1,15.5z"/>
</g>
</svg>
