<?xml version="1.0" encoding="UTF-8"?>
<svg width="131px" height="155px" viewBox="0 0 131 155" version="1.1" xmlns="http://www.w3.org/2000/svg" xmlns:xlink="http://www.w3.org/1999/xlink">
    <!-- Generator: Sketch 50.2 (55047) - http://www.bohemiancoding.com/sketch -->
    <title>cv</title>
    <desc>Created with Sketch.</desc>
    <defs></defs>
    <g id="Page-1" stroke="none" stroke-width="1" fill="none" fill-rule="evenodd">
        <g id="cv" fill="#FFFFFF" fill-rule="nonzero">
            <path d="M127.9,125.4 C127.6,116.5 126.2,103.3 117.7,98 C108,92 96.8,97.5 91.5,106.6 C84.7,118.3 85.2,135.8 89,148.3 C89.1,148.5 89.1,148.6 89.2,148.7 C88.5,149 87.9,149.3 87.3,149.8 C86.2,150.5 86.5,152.7 88,152.5 C89.9,152.3 92.6,153 94.6,153.1 C98.3,153.1 102,153.4 105.7,153.5 C110.5,153.7 119.7,156 123.6,152.6 C124.3,152 124.4,150.8 123.8,150 C124.2,150 124.6,149.9 124.9,149.7 C130.2,145.9 128.1,130.9 127.9,125.4 Z M117.5,108 C115.7,105.8 113.5,103.9 110.7,102.5 C113.3,103 115.7,104.7 117.5,108 Z M93.9,147.5 C93.9,147.3 93.9,147.2 93.9,147 C93.7,146.2 93.6,145.4 93.5,144.6 C95.3,146.6 97.7,148 99.8,146.9 C100.2,147.1 100.6,147.2 100.9,147.4 C98.6,147.2 96.2,147.2 93.9,147.5 Z" id="Shape"></path>
            <path d="M118.3,51.5 C108.7,45.4 96.3,51.2 91.4,60.6 C88.2,66.7 89.4,73.3 92.9,78.4 C93,78.6 93,78.7 93.1,78.9 C94.1,81 95.8,82.6 97.9,83.7 C99.7,85.1 101.7,86.2 103.8,86.9 C104.1,88.2 105.1,89.4 106.8,89.5 C116.9,90.2 128.3,86.8 129.9,75.3 C131.2,66 126,56.4 118.3,51.5 Z M123.7,74.4 C123.6,75.3 123.3,76.2 123,77 C123.5,73.2 123.3,69 122.2,65.3 C123.5,68.1 124.2,71.3 123.7,74.4 Z" id="Shape"></path>
            <path d="M113.9,6 C113.9,3.8 112.2,2.6 110.2,2.3 C90.2,-0.4 69.2,1.5 49.2,2.6 C39,3.2 28.8,3.8 18.6,5 C14.3,5.5 9.6,5.9 6.8,9.6 C6,10.7 6.3,12 7.1,13 C-2.8,18.2 0.5,49 0.7,56 C1.4,80.5 2.8,105.4 6.2,129.7 C6.6,132.3 8.9,132.6 10.8,131.7 C11.6,133.1 13.4,133.3 14.6,132.4 C22.7,135.6 32.4,135.9 40.9,136.3 C50.3,136.7 66,138.8 74,132.8 C74.9,132.1 75.4,131 75.3,130 C76.4,130.9 78,129.3 77.4,128 C75.9,125 77.8,116.5 78.6,113.2 C80.4,105.4 85.1,99.4 87.6,92 C87.6,91.9 87.6,91.7 87.7,91.6 C88.8,90.8 89.4,89.1 88.2,87.7 C75.4,71.5 81.9,37.4 106.9,40.5 C109.1,40.8 110.4,39.1 110.7,37.2 C111.6,37.1 112.4,36.6 112.7,35.5 C115.1,25.9 113.9,16 113.9,6 Z M12.1,44.1 C33,45.6 53.8,44.9 74.8,44.5 C73.8,45.9 72.9,47.4 72.1,48.9 C52.1,50 32,50.1 12.1,51.6 C12,49.1 12,46.6 12.1,44.1 Z M74.6,69.7 C74.2,69.6 73.8,69.5 73.5,69.4 C73.7,67.9 74.1,66.4 74.6,64.9 C74.5,66.5 74.5,68.1 74.6,69.7 Z M12.7,67.4 C12.6,65.2 12.4,63 12.3,60.8 C17.2,62.8 22.9,63 28.6,63.3 C40.9,63.9 54.1,64.6 66.5,63.5 C66.1,65.4 65.8,67.2 65.6,69.1 C59.3,69.7 52.4,71.7 47.6,72.2 C37.2,73.3 23.8,74.9 13,72.3 C12.9,70.7 12.8,69.1 12.7,67.4 Z M48.5,89 C37.2,89 25.9,89.5 14.6,90.5 C14.4,87.7 14.1,84.8 13.9,82 C21.1,84.8 32.5,83.4 39.3,83.9 C48.7,84.7 58.2,85.1 67.6,84.6 C68.1,85.9 68.8,87.2 69.5,88.5 C62.5,88.2 55.1,89 48.5,89 Z M98.5,24.2 C98.4,25.3 98.1,26.6 98,27.8 C94.7,28.4 91.6,29.6 88.6,31.3 C63.4,30.6 37.9,33 12.8,34.3 C13.2,31.1 14.4,27.9 15.7,24.7 C31,22.8 46.5,22 62,21.3 C73.3,20.8 86.9,22.6 98.8,21.2 C98.7,22.1 98.6,23.2 98.5,24.2 Z M100.4,10.1 C96.3,9.9 92.1,9.7 88,9.7 C92.3,9.6 96.7,9.6 101,9.6 C100.8,9.7 100.6,9.9 100.4,10.1 Z M107,22.6 C106.9,22.2 106.9,21.8 106.8,21.4 C106.9,20.8 106.9,20.2 107,19.5 C107.1,19.5 107.2,19.5 107.3,19.4 C107.4,21.1 107.5,22.8 107.6,24.5 C107.4,23.9 107.2,23.2 107,22.6 Z" id="Shape"></path>
        </g>
    </g>
</svg>